<?xml version="1.0" encoding="UTF-8" standalone="no"?>
<!DOCTYPE svg PUBLIC "-//W3C//DTD SVG 1.1//EN"
 "http://www.w3.org/Graphics/SVG/1.1/DTD/svg11.dtd">
<!-- Generated by graphviz version 2.43.0 (0)
 -->
<!-- Title: %3 Pages: 1 -->
<svg width="391pt" height="355pt"
 viewBox="0.00 0.00 390.70 354.86" xmlns="http://www.w3.org/2000/svg" xmlns:xlink="http://www.w3.org/1999/xlink">
<g id="graph0" class="graph" transform="scale(1 1) rotate(0) translate(4 350.86)">
<title>%3</title>
<polygon fill="white" stroke="transparent" points="-4,4 -4,-350.86 386.7,-350.86 386.7,4 -4,4"/>
<g id="clust1" class="cluster">
<title>cluster85</title>
<path fill="none" stroke="black" d="M58.72,-129.95C58.72,-129.95 142.72,-129.95 142.72,-129.95 148.72,-129.95 154.72,-135.95 154.72,-141.95 154.72,-141.95 154.72,-231.91 154.72,-231.91 154.72,-237.91 148.72,-243.91 142.72,-243.91 142.72,-243.91 58.72,-243.91 58.72,-243.91 52.72,-243.91 46.72,-237.91 46.72,-231.91 46.72,-231.91 46.72,-141.95 46.72,-141.95 46.72,-135.95 52.72,-129.95 58.72,-129.95"/>
<text text-anchor="middle" x="139.72" y="-137.75" font-family="Times,serif" font-size="14.00">85</text>
</g>
<g id="clust2" class="cluster">
<title>cluster919</title>
<path fill="none" stroke="black" d="M168.72,-8C168.72,-8 244.72,-8 244.72,-8 250.72,-8 256.72,-14 256.72,-20 256.72,-20 256.72,-109.95 256.72,-109.95 256.72,-115.95 250.72,-121.95 244.72,-121.95 244.72,-121.95 168.72,-121.95 168.72,-121.95 162.72,-121.95 156.72,-115.95 156.72,-109.95 156.72,-109.95 156.72,-20 156.72,-20 156.72,-14 162.72,-8 168.72,-8"/>
<text text-anchor="middle" x="238.22" y="-15.8" font-family="Times,serif" font-size="14.00">919</text>
</g>
<!-- a -->
<g id="node1" class="node">
<title>a</title>
<ellipse fill="none" stroke="black" cx="41.72" cy="-309.38" rx="41.94" ry="37.45"/>
<text text-anchor="middle" x="41.72" y="-320.68" font-family="Times,serif" font-size="14.00">a</text>
<text text-anchor="middle" x="41.72" y="-305.68" font-family="Times,serif" font-size="14.00">~</text>
<text text-anchor="middle" x="41.72" y="-290.68" font-family="Times,serif" font-size="14.00">Normal</text>
</g>
<!-- a_mouse -->
<g id="node5" class="node">
<title>a_mouse</title>
<ellipse fill="none" stroke="black" cx="100.72" cy="-198.43" rx="45.92" ry="37.45"/>
<text text-anchor="middle" x="100.72" y="-209.73" font-family="Times,serif" font-size="14.00">a_mouse</text>
<text text-anchor="middle" x="100.72" y="-194.73" font-family="Times,serif" font-size="14.00">~</text>
<text text-anchor="middle" x="100.72" y="-179.73" font-family="Times,serif" font-size="14.00">Normal</text>
</g>
<!-- a&#45;&gt;a_mouse -->
<g id="edge1" class="edge">
<title>a&#45;&gt;a_mouse</title>
<path fill="none" stroke="black" d="M59.58,-275.4C65.25,-264.93 71.61,-253.19 77.59,-242.14"/>
<polygon fill="black" stroke="black" points="80.83,-243.52 82.51,-233.06 74.67,-240.18 80.83,-243.52"/>
</g>
<!-- b -->
<g id="node2" class="node">
<title>b</title>
<ellipse fill="none" stroke="black" cx="206.72" cy="-198.43" rx="41.94" ry="37.45"/>
<text text-anchor="middle" x="206.72" y="-209.73" font-family="Times,serif" font-size="14.00">b</text>
<text text-anchor="middle" x="206.72" y="-194.73" font-family="Times,serif" font-size="14.00">~</text>
<text text-anchor="middle" x="206.72" y="-179.73" font-family="Times,serif" font-size="14.00">Normal</text>
</g>
<!-- y -->
<g id="node6" class="node">
<title>y</title>
<ellipse fill="lightgrey" stroke="black" cx="206.72" cy="-76.48" rx="41.94" ry="37.45"/>
<text text-anchor="middle" x="206.72" y="-87.78" font-family="Times,serif" font-size="14.00">y</text>
<text text-anchor="middle" x="206.72" y="-72.78" font-family="Times,serif" font-size="14.00">~</text>
<text text-anchor="middle" x="206.72" y="-57.78" font-family="Times,serif" font-size="14.00">Normal</text>
</g>
<!-- b&#45;&gt;y -->
<g id="edge4" class="edge">
<title>b&#45;&gt;y</title>
<path fill="none" stroke="black" d="M206.72,-160.79C206.72,-149.38 206.72,-136.65 206.72,-124.63"/>
<polygon fill="black" stroke="black" points="210.22,-124.31 206.72,-114.31 203.22,-124.31 210.22,-124.31"/>
</g>
<!-- sigma_a -->
<g id="node3" class="node">
<title>sigma_a</title>
<ellipse fill="none" stroke="black" cx="159.72" cy="-309.38" rx="57.97" ry="37.45"/>
<text text-anchor="middle" x="159.72" y="-320.68" font-family="Times,serif" font-size="14.00">sigma_a</text>
<text text-anchor="middle" x="159.72" y="-305.68" font-family="Times,serif" font-size="14.00">~</text>
<text text-anchor="middle" x="159.72" y="-290.68" font-family="Times,serif" font-size="14.00">Exponential</text>
</g>
<!-- sigma_a&#45;&gt;a_mouse -->
<g id="edge2" class="edge">
<title>sigma_a&#45;&gt;a_mouse</title>
<path fill="none" stroke="black" d="M140.89,-273.61C135.46,-263.59 129.48,-252.54 123.83,-242.11"/>
<polygon fill="black" stroke="black" points="126.81,-240.26 118.97,-233.13 120.65,-243.59 126.81,-240.26"/>
</g>
<!-- sigma -->
<g id="node4" class="node">
<title>sigma</title>
<ellipse fill="none" stroke="black" cx="324.72" cy="-198.43" rx="57.97" ry="37.45"/>
<text text-anchor="middle" x="324.72" y="-209.73" font-family="Times,serif" font-size="14.00">sigma</text>
<text text-anchor="middle" x="324.72" y="-194.73" font-family="Times,serif" font-size="14.00">~</text>
<text text-anchor="middle" x="324.72" y="-179.73" font-family="Times,serif" font-size="14.00">Exponential</text>
</g>
<!-- sigma&#45;&gt;y -->
<g id="edge5" class="edge">
<title>sigma&#45;&gt;y</title>
<path fill="none" stroke="black" d="M294.02,-166.23C277.92,-149.85 258.12,-129.73 241.45,-112.79"/>
<polygon fill="black" stroke="black" points="243.55,-109.93 234.04,-105.25 238.56,-114.83 243.55,-109.93"/>
</g>
<!-- a_mouse&#45;&gt;y -->
<g id="edge3" class="edge">
<title>a_mouse&#45;&gt;y</title>
<path fill="none" stroke="black" d="M125.08,-166.39C134.44,-154.77 145.37,-141.58 155.72,-129.95 160.95,-124.08 166.63,-117.98 172.23,-112.11"/>
<polygon fill="black" stroke="black" points="174.84,-114.45 179.26,-104.83 169.8,-109.59 174.84,-114.45"/>
</g>
</g>
</svg>
