<?xml version="1.0" encoding="UTF-8" standalone="no"?>
<!DOCTYPE svg PUBLIC "-//W3C//DTD SVG 1.1//EN"
 "http://www.w3.org/Graphics/SVG/1.1/DTD/svg11.dtd">
<!-- Generated by graphviz version 2.43.0 (0)
 -->
<!-- Title: %3 Pages: 1 -->
<svg width="305pt" height="355pt"
 viewBox="0.00 0.00 304.97 354.86" xmlns="http://www.w3.org/2000/svg" xmlns:xlink="http://www.w3.org/1999/xlink">
<g id="graph0" class="graph" transform="scale(1 1) rotate(0) translate(4 350.86)">
<title>%3</title>
<polygon fill="white" stroke="transparent" points="-4,4 -4,-350.86 300.97,-350.86 300.97,4 -4,4"/>
<g id="clust1" class="cluster">
<title>cluster85</title>
<path fill="none" stroke="black" d="M137.98,-129.95C137.98,-129.95 221.98,-129.95 221.98,-129.95 227.98,-129.95 233.98,-135.95 233.98,-141.95 233.98,-141.95 233.98,-231.91 233.98,-231.91 233.98,-237.91 227.98,-243.91 221.98,-243.91 221.98,-243.91 137.98,-243.91 137.98,-243.91 131.98,-243.91 125.98,-237.91 125.98,-231.91 125.98,-231.91 125.98,-141.95 125.98,-141.95 125.98,-135.95 131.98,-129.95 137.98,-129.95"/>
<text text-anchor="middle" x="218.98" y="-137.75" font-family="Times,serif" font-size="14.00">85</text>
</g>
<g id="clust2" class="cluster">
<title>cluster919</title>
<path fill="none" stroke="black" d="M78.98,-8C78.98,-8 154.98,-8 154.98,-8 160.98,-8 166.98,-14 166.98,-20 166.98,-20 166.98,-109.95 166.98,-109.95 166.98,-115.95 160.98,-121.95 154.98,-121.95 154.98,-121.95 78.98,-121.95 78.98,-121.95 72.98,-121.95 66.98,-115.95 66.98,-109.95 66.98,-109.95 66.98,-20 66.98,-20 66.98,-14 72.98,-8 78.98,-8"/>
<text text-anchor="middle" x="148.48" y="-15.8" font-family="Times,serif" font-size="14.00">919</text>
</g>
<!-- sigma -->
<g id="node1" class="node">
<title>sigma</title>
<ellipse fill="none" stroke="black" cx="57.98" cy="-198.43" rx="57.97" ry="37.45"/>
<text text-anchor="middle" x="57.98" y="-209.73" font-family="Times,serif" font-size="14.00">sigma</text>
<text text-anchor="middle" x="57.98" y="-194.73" font-family="Times,serif" font-size="14.00">~</text>
<text text-anchor="middle" x="57.98" y="-179.73" font-family="Times,serif" font-size="14.00">Exponential</text>
</g>
<!-- y -->
<g id="node5" class="node">
<title>y</title>
<ellipse fill="lightgrey" stroke="black" cx="116.98" cy="-76.48" rx="41.94" ry="37.45"/>
<text text-anchor="middle" x="116.98" y="-87.78" font-family="Times,serif" font-size="14.00">y</text>
<text text-anchor="middle" x="116.98" y="-72.78" font-family="Times,serif" font-size="14.00">~</text>
<text text-anchor="middle" x="116.98" y="-57.78" font-family="Times,serif" font-size="14.00">Normal</text>
</g>
<!-- sigma&#45;&gt;y -->
<g id="edge4" class="edge">
<title>sigma&#45;&gt;y</title>
<path fill="none" stroke="black" d="M75.21,-162.41C81.67,-149.26 89.1,-134.17 95.88,-120.39"/>
<polygon fill="black" stroke="black" points="99.18,-121.61 100.45,-111.09 92.89,-118.52 99.18,-121.61"/>
</g>
<!-- a -->
<g id="node2" class="node">
<title>a</title>
<ellipse fill="none" stroke="black" cx="120.98" cy="-309.38" rx="41.94" ry="37.45"/>
<text text-anchor="middle" x="120.98" y="-320.68" font-family="Times,serif" font-size="14.00">a</text>
<text text-anchor="middle" x="120.98" y="-305.68" font-family="Times,serif" font-size="14.00">~</text>
<text text-anchor="middle" x="120.98" y="-290.68" font-family="Times,serif" font-size="14.00">Normal</text>
</g>
<!-- a_mouse -->
<g id="node4" class="node">
<title>a_mouse</title>
<ellipse fill="none" stroke="black" cx="179.98" cy="-198.43" rx="45.92" ry="37.45"/>
<text text-anchor="middle" x="179.98" y="-209.73" font-family="Times,serif" font-size="14.00">a_mouse</text>
<text text-anchor="middle" x="179.98" y="-194.73" font-family="Times,serif" font-size="14.00">~</text>
<text text-anchor="middle" x="179.98" y="-179.73" font-family="Times,serif" font-size="14.00">Normal</text>
</g>
<!-- a&#45;&gt;a_mouse -->
<g id="edge1" class="edge">
<title>a&#45;&gt;a_mouse</title>
<path fill="none" stroke="black" d="M138.84,-275.4C144.52,-264.93 150.87,-253.19 156.85,-242.14"/>
<polygon fill="black" stroke="black" points="160.09,-243.52 161.77,-233.06 153.93,-240.18 160.09,-243.52"/>
</g>
<!-- sigma_a -->
<g id="node3" class="node">
<title>sigma_a</title>
<ellipse fill="none" stroke="black" cx="238.98" cy="-309.38" rx="57.97" ry="37.45"/>
<text text-anchor="middle" x="238.98" y="-320.68" font-family="Times,serif" font-size="14.00">sigma_a</text>
<text text-anchor="middle" x="238.98" y="-305.68" font-family="Times,serif" font-size="14.00">~</text>
<text text-anchor="middle" x="238.98" y="-290.68" font-family="Times,serif" font-size="14.00">Exponential</text>
</g>
<!-- sigma_a&#45;&gt;a_mouse -->
<g id="edge2" class="edge">
<title>sigma_a&#45;&gt;a_mouse</title>
<path fill="none" stroke="black" d="M220.15,-273.61C214.73,-263.59 208.75,-252.54 203.09,-242.11"/>
<polygon fill="black" stroke="black" points="206.07,-240.26 198.23,-233.13 199.92,-243.59 206.07,-240.26"/>
</g>
<!-- a_mouse&#45;&gt;y -->
<g id="edge3" class="edge">
<title>a_mouse&#45;&gt;y</title>
<path fill="none" stroke="black" d="M162.27,-163.7C155.16,-150.17 146.89,-134.42 139.38,-120.11"/>
<polygon fill="black" stroke="black" points="142.31,-118.18 134.57,-110.96 136.12,-121.44 142.31,-118.18"/>
</g>
</g>
</svg>
