<?xml version="1.0" encoding="UTF-8" standalone="no"?>
<!DOCTYPE svg PUBLIC "-//W3C//DTD SVG 1.1//EN"
 "http://www.w3.org/Graphics/SVG/1.1/DTD/svg11.dtd">
<!-- Generated by graphviz version 2.43.0 (0)
 -->
<!-- Title: %3 Pages: 1 -->
<svg width="296pt" height="260pt"
 viewBox="0.00 0.00 296.12 259.91" xmlns="http://www.w3.org/2000/svg" xmlns:xlink="http://www.w3.org/1999/xlink">
<g id="graph0" class="graph" transform="scale(1 1) rotate(0) translate(4 255.91)">
<title>%3</title>
<polygon fill="white" stroke="transparent" points="-4,4 -4,-255.91 292.12,-255.91 292.12,4 -4,4"/>
<g id="clust1" class="cluster">
<title>cluster85</title>
<path fill="none" stroke="black" d="M20,-129.95C20,-129.95 122,-129.95 122,-129.95 128,-129.95 134,-135.95 134,-141.95 134,-141.95 134,-231.91 134,-231.91 134,-237.91 128,-243.91 122,-243.91 122,-243.91 20,-243.91 20,-243.91 14,-243.91 8,-237.91 8,-231.91 8,-231.91 8,-141.95 8,-141.95 8,-135.95 14,-129.95 20,-129.95"/>
<text text-anchor="middle" x="116.5" y="-137.75" font-family="Times,serif" font-size="14.00">85</text>
</g>
<g id="clust2" class="cluster">
<title>cluster919</title>
<path fill="none" stroke="black" d="M29,-8C29,-8 119,-8 119,-8 125,-8 131,-14 131,-20 131,-20 131,-109.95 131,-109.95 131,-115.95 125,-121.95 119,-121.95 119,-121.95 29,-121.95 29,-121.95 23,-121.95 17,-115.95 17,-109.95 17,-109.95 17,-20 17,-20 17,-14 23,-8 29,-8"/>
<text text-anchor="middle" x="109" y="-15.8" font-family="Times,serif" font-size="14.00">919</text>
</g>
<!-- a_mouse -->
<g id="node1" class="node">
<title>a_mouse</title>
<ellipse fill="none" stroke="black" cx="71" cy="-198.43" rx="55.31" ry="37.45"/>
<text text-anchor="middle" x="71" y="-209.73" font-family="Times,serif" font-size="14.00">a_mouse</text>
<text text-anchor="middle" x="71" y="-194.73" font-family="Times,serif" font-size="14.00">~</text>
<text text-anchor="middle" x="71" y="-179.73" font-family="Times,serif" font-size="14.00">Normal</text>
</g>
<!-- y -->
<g id="node3" class="node">
<title>y</title>
<ellipse fill="lightgrey" stroke="black" cx="74" cy="-76.48" rx="49.49" ry="37.45"/>
<text text-anchor="middle" x="74" y="-87.78" font-family="Times,serif" font-size="14.00">y</text>
<text text-anchor="middle" x="74" y="-72.78" font-family="Times,serif" font-size="14.00">~</text>
<text text-anchor="middle" x="74" y="-57.78" font-family="Times,serif" font-size="14.00">Normal</text>
</g>
<!-- a_mouse&#45;&gt;y -->
<g id="edge2" class="edge">
<title>a_mouse&#45;&gt;y</title>
<path fill="none" stroke="black" d="M71.92,-160.79C72.2,-149.38 72.52,-136.65 72.82,-124.63"/>
<polygon fill="black" stroke="black" points="76.33,-124.39 73.08,-114.31 69.33,-124.22 76.33,-124.39"/>
</g>
<!-- sigma -->
<g id="node2" class="node">
<title>sigma</title>
<ellipse fill="none" stroke="black" cx="216" cy="-198.43" rx="72.25" ry="37.45"/>
<text text-anchor="middle" x="216" y="-209.73" font-family="Times,serif" font-size="14.00">sigma</text>
<text text-anchor="middle" x="216" y="-194.73" font-family="Times,serif" font-size="14.00">~</text>
<text text-anchor="middle" x="216" y="-179.73" font-family="Times,serif" font-size="14.00">Exponential</text>
</g>
<!-- sigma&#45;&gt;y -->
<g id="edge1" class="edge">
<title>sigma&#45;&gt;y</title>
<path fill="none" stroke="black" d="M179.66,-165.65C166.59,-154.31 151.7,-141.49 138,-129.95 130.74,-123.84 122.96,-117.38 115.41,-111.17"/>
<polygon fill="black" stroke="black" points="117.3,-108.19 107.35,-104.55 112.86,-113.6 117.3,-108.19"/>
</g>
</g>
</svg>
