<?xml version="1.0" encoding="UTF-8" standalone="no"?>
<!DOCTYPE svg PUBLIC "-//W3C//DTD SVG 1.1//EN"
 "http://www.w3.org/Graphics/SVG/1.1/DTD/svg11.dtd">
<!-- Generated by graphviz version 2.43.0 (0)
 -->
<!-- Title: %3 Pages: 1 -->
<svg width="571pt" height="355pt"
 viewBox="0.00 0.00 571.25 354.86" xmlns="http://www.w3.org/2000/svg" xmlns:xlink="http://www.w3.org/1999/xlink">
<g id="graph0" class="graph" transform="scale(1 1) rotate(0) translate(4 350.86)">
<title>%3</title>
<polygon fill="white" stroke="transparent" points="-4,4 -4,-350.86 567.25,-350.86 567.25,4 -4,4"/>
<g id="clust1" class="cluster">
<title>cluster85</title>
<path fill="none" stroke="black" d="M166.12,-129.95C166.12,-129.95 398.12,-129.95 398.12,-129.95 404.12,-129.95 410.12,-135.95 410.12,-141.95 410.12,-141.95 410.12,-231.91 410.12,-231.91 410.12,-237.91 404.12,-243.91 398.12,-243.91 398.12,-243.91 166.12,-243.91 166.12,-243.91 160.12,-243.91 154.12,-237.91 154.12,-231.91 154.12,-231.91 154.12,-141.95 154.12,-141.95 154.12,-135.95 160.12,-129.95 166.12,-129.95"/>
<text text-anchor="middle" x="392.62" y="-137.75" font-family="Times,serif" font-size="14.00">85</text>
</g>
<g id="clust2" class="cluster">
<title>cluster919</title>
<path fill="none" stroke="black" d="M172.12,-8C172.12,-8 262.12,-8 262.12,-8 268.12,-8 274.12,-14 274.12,-20 274.12,-20 274.12,-109.95 274.12,-109.95 274.12,-115.95 268.12,-121.95 262.12,-121.95 262.12,-121.95 172.12,-121.95 172.12,-121.95 166.12,-121.95 160.12,-115.95 160.12,-109.95 160.12,-109.95 160.12,-20 160.12,-20 160.12,-14 166.12,-8 172.12,-8"/>
<text text-anchor="middle" x="252.12" y="-15.8" font-family="Times,serif" font-size="14.00">919</text>
</g>
<!-- sigma -->
<g id="node1" class="node">
<title>sigma</title>
<ellipse fill="none" stroke="black" cx="72.12" cy="-198.43" rx="72.25" ry="37.45"/>
<text text-anchor="middle" x="72.12" y="-209.73" font-family="Times,serif" font-size="14.00">sigma</text>
<text text-anchor="middle" x="72.12" y="-194.73" font-family="Times,serif" font-size="14.00">~</text>
<text text-anchor="middle" x="72.12" y="-179.73" font-family="Times,serif" font-size="14.00">Exponential</text>
</g>
<!-- y -->
<g id="node8" class="node">
<title>y</title>
<ellipse fill="lightgrey" stroke="black" cx="217.12" cy="-76.48" rx="49.49" ry="37.45"/>
<text text-anchor="middle" x="217.12" y="-87.78" font-family="Times,serif" font-size="14.00">y</text>
<text text-anchor="middle" x="217.12" y="-72.78" font-family="Times,serif" font-size="14.00">~</text>
<text text-anchor="middle" x="217.12" y="-57.78" font-family="Times,serif" font-size="14.00">Normal</text>
</g>
<!-- sigma&#45;&gt;y -->
<g id="edge7" class="edge">
<title>sigma&#45;&gt;y</title>
<path fill="none" stroke="black" d="M107.93,-165.82C121.08,-154.38 136.16,-141.45 150.12,-129.95 158,-123.47 166.49,-116.67 174.7,-110.2"/>
<polygon fill="black" stroke="black" points="177.08,-112.78 182.78,-103.85 172.76,-107.28 177.08,-112.78"/>
</g>
<!-- a -->
<g id="node2" class="node">
<title>a</title>
<ellipse fill="none" stroke="black" cx="71.12" cy="-309.38" rx="49.49" ry="37.45"/>
<text text-anchor="middle" x="71.12" y="-320.68" font-family="Times,serif" font-size="14.00">a</text>
<text text-anchor="middle" x="71.12" y="-305.68" font-family="Times,serif" font-size="14.00">~</text>
<text text-anchor="middle" x="71.12" y="-290.68" font-family="Times,serif" font-size="14.00">Normal</text>
</g>
<!-- a_mouse -->
<g id="node7" class="node">
<title>a_mouse</title>
<ellipse fill="none" stroke="black" cx="217.12" cy="-198.43" rx="55.31" ry="37.45"/>
<text text-anchor="middle" x="217.12" y="-209.73" font-family="Times,serif" font-size="14.00">a_mouse</text>
<text text-anchor="middle" x="217.12" y="-194.73" font-family="Times,serif" font-size="14.00">~</text>
<text text-anchor="middle" x="217.12" y="-179.73" font-family="Times,serif" font-size="14.00">Normal</text>
</g>
<!-- a&#45;&gt;a_mouse -->
<g id="edge2" class="edge">
<title>a&#45;&gt;a_mouse</title>
<path fill="none" stroke="black" d="M105.72,-282.56C125.6,-267.73 150.79,-248.94 172.18,-232.97"/>
<polygon fill="black" stroke="black" points="174.56,-235.56 180.48,-226.78 170.37,-229.95 174.56,-235.56"/>
</g>
<!-- b -->
<g id="node3" class="node">
<title>b</title>
<ellipse fill="none" stroke="black" cx="351.12" cy="-309.38" rx="49.49" ry="37.45"/>
<text text-anchor="middle" x="351.12" y="-320.68" font-family="Times,serif" font-size="14.00">b</text>
<text text-anchor="middle" x="351.12" y="-305.68" font-family="Times,serif" font-size="14.00">~</text>
<text text-anchor="middle" x="351.12" y="-290.68" font-family="Times,serif" font-size="14.00">Normal</text>
</g>
<!-- b_mouse -->
<g id="node6" class="node">
<title>b_mouse</title>
<ellipse fill="none" stroke="black" cx="346.12" cy="-198.43" rx="55.72" ry="37.45"/>
<text text-anchor="middle" x="346.12" y="-209.73" font-family="Times,serif" font-size="14.00">b_mouse</text>
<text text-anchor="middle" x="346.12" y="-194.73" font-family="Times,serif" font-size="14.00">~</text>
<text text-anchor="middle" x="346.12" y="-179.73" font-family="Times,serif" font-size="14.00">Normal</text>
</g>
<!-- b&#45;&gt;b_mouse -->
<g id="edge3" class="edge">
<title>b&#45;&gt;b_mouse</title>
<path fill="none" stroke="black" d="M349.45,-271.8C349.07,-263.63 348.67,-254.85 348.28,-246.32"/>
<polygon fill="black" stroke="black" points="351.76,-245.93 347.81,-236.1 344.77,-246.25 351.76,-245.93"/>
</g>
<!-- sigma_a -->
<g id="node4" class="node">
<title>sigma_a</title>
<ellipse fill="none" stroke="black" cx="211.12" cy="-309.38" rx="72.25" ry="37.45"/>
<text text-anchor="middle" x="211.12" y="-320.68" font-family="Times,serif" font-size="14.00">sigma_a</text>
<text text-anchor="middle" x="211.12" y="-305.68" font-family="Times,serif" font-size="14.00">~</text>
<text text-anchor="middle" x="211.12" y="-290.68" font-family="Times,serif" font-size="14.00">Exponential</text>
</g>
<!-- sigma_a&#45;&gt;a_mouse -->
<g id="edge1" class="edge">
<title>sigma_a&#45;&gt;a_mouse</title>
<path fill="none" stroke="black" d="M213.14,-271.8C213.59,-263.63 214.07,-254.85 214.54,-246.32"/>
<polygon fill="black" stroke="black" points="218.05,-246.28 215.11,-236.1 211.06,-245.89 218.05,-246.28"/>
</g>
<!-- sigma_b -->
<g id="node5" class="node">
<title>sigma_b</title>
<ellipse fill="none" stroke="black" cx="491.12" cy="-309.38" rx="72.25" ry="37.45"/>
<text text-anchor="middle" x="491.12" y="-320.68" font-family="Times,serif" font-size="14.00">sigma_b</text>
<text text-anchor="middle" x="491.12" y="-305.68" font-family="Times,serif" font-size="14.00">~</text>
<text text-anchor="middle" x="491.12" y="-290.68" font-family="Times,serif" font-size="14.00">Exponential</text>
</g>
<!-- sigma_b&#45;&gt;b_mouse -->
<g id="edge4" class="edge">
<title>sigma_b&#45;&gt;b_mouse</title>
<path fill="none" stroke="black" d="M450.73,-278.03C432.19,-264.1 410.14,-247.53 391.08,-233.21"/>
<polygon fill="black" stroke="black" points="392.93,-230.22 382.83,-227.01 388.72,-235.81 392.93,-230.22"/>
</g>
<!-- b_mouse&#45;&gt;y -->
<g id="edge5" class="edge">
<title>b_mouse&#45;&gt;y</title>
<path fill="none" stroke="black" d="M317.42,-166.11C306.36,-154.46 293.44,-141.32 281.12,-129.95 274.15,-123.51 266.51,-116.9 259.01,-110.63"/>
<polygon fill="black" stroke="black" points="260.91,-107.66 250.97,-103.99 256.45,-113.06 260.91,-107.66"/>
</g>
<!-- a_mouse&#45;&gt;y -->
<g id="edge6" class="edge">
<title>a_mouse&#45;&gt;y</title>
<path fill="none" stroke="black" d="M217.12,-160.79C217.12,-149.38 217.12,-136.65 217.12,-124.63"/>
<polygon fill="black" stroke="black" points="220.62,-124.31 217.12,-114.31 213.62,-124.31 220.62,-124.31"/>
</g>
</g>
</svg>
