<?xml version="1.0" encoding="UTF-8" standalone="no"?>
<!DOCTYPE svg PUBLIC "-//W3C//DTD SVG 1.1//EN"
 "http://www.w3.org/Graphics/SVG/1.1/DTD/svg11.dtd">
<!-- Generated by graphviz version 2.43.0 (0)
 -->
<!-- Title: %3 Pages: 1 -->
<svg width="530pt" height="382pt"
 viewBox="0.00 0.00 530.12 381.86" xmlns="http://www.w3.org/2000/svg" xmlns:xlink="http://www.w3.org/1999/xlink">
<g id="graph0" class="graph" transform="scale(1 1) rotate(0) translate(4 377.86)">
<title>%3</title>
<polygon fill="white" stroke="transparent" points="-4,4 -4,-377.86 526.12,-377.86 526.12,4 -4,4"/>
<g id="clust1" class="cluster">
<title>cluster3</title>
<path fill="none" stroke="black" d="M34,-251.91C34,-251.91 224,-251.91 224,-251.91 230,-251.91 236,-257.91 236,-263.91 236,-263.91 236,-353.86 236,-353.86 236,-359.86 230,-365.86 224,-365.86 224,-365.86 34,-365.86 34,-365.86 28,-365.86 22,-359.86 22,-353.86 22,-353.86 22,-263.91 22,-263.91 22,-257.91 28,-251.91 34,-251.91"/>
<text text-anchor="middle" x="223" y="-259.71" font-family="Times,serif" font-size="14.00">3</text>
</g>
<g id="clust2" class="cluster">
<title>cluster2</title>
<path fill="none" stroke="black" d="M20,-140.93C20,-140.93 126,-140.93 126,-140.93 132,-140.93 138,-146.93 138,-152.93 138,-152.93 138,-220.93 138,-220.93 138,-226.93 132,-232.93 126,-232.93 126,-232.93 20,-232.93 20,-232.93 14,-232.93 8,-226.93 8,-220.93 8,-220.93 8,-152.93 8,-152.93 8,-146.93 14,-140.93 20,-140.93"/>
<text text-anchor="middle" x="125" y="-148.73" font-family="Times,serif" font-size="14.00">2</text>
</g>
<g id="clust3" class="cluster">
<title>cluster85 x 2</title>
<path fill="none" stroke="black" d="M234,-129.95C234,-129.95 356,-129.95 356,-129.95 362,-129.95 368,-135.95 368,-141.95 368,-141.95 368,-231.91 368,-231.91 368,-237.91 362,-243.91 356,-243.91 356,-243.91 234,-243.91 234,-243.91 228,-243.91 222,-237.91 222,-231.91 222,-231.91 222,-141.95 222,-141.95 222,-135.95 228,-129.95 234,-129.95"/>
<text text-anchor="middle" x="337.5" y="-137.75" font-family="Times,serif" font-size="14.00">85 x 2</text>
</g>
<g id="clust4" class="cluster">
<title>cluster919</title>
<path fill="none" stroke="black" d="M258,-8C258,-8 348,-8 348,-8 354,-8 360,-14 360,-20 360,-20 360,-109.95 360,-109.95 360,-115.95 354,-121.95 348,-121.95 348,-121.95 258,-121.95 258,-121.95 252,-121.95 246,-115.95 246,-109.95 246,-109.95 246,-20 246,-20 246,-14 252,-8 258,-8"/>
<text text-anchor="middle" x="338" y="-15.8" font-family="Times,serif" font-size="14.00">919</text>
</g>
<!-- packed_chol -->
<g id="node1" class="node">
<title>packed_chol</title>
<ellipse fill="none" stroke="black" cx="129" cy="-320.38" rx="98.99" ry="37.45"/>
<text text-anchor="middle" x="129" y="-331.68" font-family="Times,serif" font-size="14.00">packed_chol</text>
<text text-anchor="middle" x="129" y="-316.68" font-family="Times,serif" font-size="14.00">~</text>
<text text-anchor="middle" x="129" y="-301.68" font-family="Times,serif" font-size="14.00">_LKJCholeskyCov</text>
</g>
<!-- sigma_ab -->
<g id="node2" class="node">
<title>sigma_ab</title>
<polygon fill="none" stroke="black" points="130,-224.93 16,-224.93 16,-171.93 130,-171.93 130,-224.93"/>
<text text-anchor="middle" x="73" y="-209.73" font-family="Times,serif" font-size="14.00">sigma_ab</text>
<text text-anchor="middle" x="73" y="-194.73" font-family="Times,serif" font-size="14.00">~</text>
<text text-anchor="middle" x="73" y="-179.73" font-family="Times,serif" font-size="14.00">Deterministic</text>
</g>
<!-- packed_chol&#45;&gt;sigma_ab -->
<g id="edge1" class="edge">
<title>packed_chol&#45;&gt;sigma_ab</title>
<path fill="none" stroke="black" d="M112.2,-283.39C104.94,-267.85 96.48,-249.73 89.28,-234.31"/>
<polygon fill="black" stroke="black" points="92.39,-232.69 84.99,-225.11 86.05,-235.65 92.39,-232.69"/>
</g>
<!-- Rho -->
<g id="node6" class="node">
<title>Rho</title>
<polygon fill="none" stroke="black" points="172,-102.98 58,-102.98 58,-49.98 172,-49.98 172,-102.98"/>
<text text-anchor="middle" x="115" y="-87.78" font-family="Times,serif" font-size="14.00">Rho</text>
<text text-anchor="middle" x="115" y="-72.78" font-family="Times,serif" font-size="14.00">~</text>
<text text-anchor="middle" x="115" y="-57.78" font-family="Times,serif" font-size="14.00">Deterministic</text>
</g>
<!-- packed_chol&#45;&gt;Rho -->
<g id="edge2" class="edge">
<title>packed_chol&#45;&gt;Rho</title>
<path fill="none" stroke="black" d="M137.98,-282.87C145.97,-244.31 154.61,-182.02 142,-129.95 140.58,-124.08 138.38,-118.14 135.84,-112.46"/>
<polygon fill="black" stroke="black" points="138.85,-110.66 131.31,-103.21 132.57,-113.73 138.85,-110.66"/>
</g>
<!-- ab_mouse -->
<g id="node7" class="node">
<title>ab_mouse</title>
<ellipse fill="none" stroke="black" cx="295" cy="-198.43" rx="65.11" ry="37.45"/>
<text text-anchor="middle" x="295" y="-209.73" font-family="Times,serif" font-size="14.00">ab_mouse</text>
<text text-anchor="middle" x="295" y="-194.73" font-family="Times,serif" font-size="14.00">~</text>
<text text-anchor="middle" x="295" y="-179.73" font-family="Times,serif" font-size="14.00">MvNormal</text>
</g>
<!-- packed_chol&#45;&gt;ab_mouse -->
<g id="edge5" class="edge">
<title>packed_chol&#45;&gt;ab_mouse</title>
<path fill="none" stroke="black" d="M173.92,-286.92C196.5,-270.61 223.87,-250.83 246.88,-234.2"/>
<polygon fill="black" stroke="black" points="249.08,-236.93 255.14,-228.23 244.98,-231.25 249.08,-236.93"/>
</g>
<!-- sigma_ab&#45;&gt;Rho -->
<g id="edge3" class="edge">
<title>sigma_ab&#45;&gt;Rho</title>
<path fill="none" stroke="black" d="M82.01,-171.7C88.04,-154.46 96.07,-131.55 102.69,-112.64"/>
<polygon fill="black" stroke="black" points="106,-113.76 106,-103.17 99.4,-111.45 106,-113.76"/>
</g>
<!-- b -->
<g id="node3" class="node">
<title>b</title>
<ellipse fill="none" stroke="black" cx="295" cy="-320.38" rx="49.49" ry="37.45"/>
<text text-anchor="middle" x="295" y="-331.68" font-family="Times,serif" font-size="14.00">b</text>
<text text-anchor="middle" x="295" y="-316.68" font-family="Times,serif" font-size="14.00">~</text>
<text text-anchor="middle" x="295" y="-301.68" font-family="Times,serif" font-size="14.00">Normal</text>
</g>
<!-- b&#45;&gt;ab_mouse -->
<g id="edge4" class="edge">
<title>b&#45;&gt;ab_mouse</title>
<path fill="none" stroke="black" d="M295,-282.74C295,-271.34 295,-258.6 295,-246.58"/>
<polygon fill="black" stroke="black" points="298.5,-246.26 295,-236.26 291.5,-246.26 298.5,-246.26"/>
</g>
<!-- sigma -->
<g id="node4" class="node">
<title>sigma</title>
<ellipse fill="none" stroke="black" cx="450" cy="-198.43" rx="72.25" ry="37.45"/>
<text text-anchor="middle" x="450" y="-209.73" font-family="Times,serif" font-size="14.00">sigma</text>
<text text-anchor="middle" x="450" y="-194.73" font-family="Times,serif" font-size="14.00">~</text>
<text text-anchor="middle" x="450" y="-179.73" font-family="Times,serif" font-size="14.00">Exponential</text>
</g>
<!-- y -->
<g id="node8" class="node">
<title>y</title>
<ellipse fill="lightgrey" stroke="black" cx="303" cy="-76.48" rx="49.49" ry="37.45"/>
<text text-anchor="middle" x="303" y="-87.78" font-family="Times,serif" font-size="14.00">y</text>
<text text-anchor="middle" x="303" y="-72.78" font-family="Times,serif" font-size="14.00">~</text>
<text text-anchor="middle" x="303" y="-57.78" font-family="Times,serif" font-size="14.00">Normal</text>
</g>
<!-- sigma&#45;&gt;y -->
<g id="edge8" class="edge">
<title>sigma&#45;&gt;y</title>
<path fill="none" stroke="black" d="M414.29,-165.71C401.15,-154.26 386.04,-141.35 372,-129.95 363.68,-123.2 354.64,-116.14 345.94,-109.47"/>
<polygon fill="black" stroke="black" points="347.8,-106.49 337.73,-103.21 343.56,-112.06 347.8,-106.49"/>
</g>
<!-- a -->
<g id="node5" class="node">
<title>a</title>
<ellipse fill="none" stroke="black" cx="412" cy="-320.38" rx="49.49" ry="37.45"/>
<text text-anchor="middle" x="412" y="-331.68" font-family="Times,serif" font-size="14.00">a</text>
<text text-anchor="middle" x="412" y="-316.68" font-family="Times,serif" font-size="14.00">~</text>
<text text-anchor="middle" x="412" y="-301.68" font-family="Times,serif" font-size="14.00">Normal</text>
</g>
<!-- a&#45;&gt;ab_mouse -->
<g id="edge6" class="edge">
<title>a&#45;&gt;ab_mouse</title>
<path fill="none" stroke="black" d="M386.01,-288.13C375.98,-276.49 364.24,-263.34 353,-251.91 348.2,-247.03 343.05,-242.04 337.86,-237.16"/>
<polygon fill="black" stroke="black" points="339.99,-234.37 330.27,-230.14 335.23,-239.5 339.99,-234.37"/>
</g>
<!-- ab_mouse&#45;&gt;y -->
<g id="edge7" class="edge">
<title>ab_mouse&#45;&gt;y</title>
<path fill="none" stroke="black" d="M297.44,-160.79C298.2,-149.38 299.05,-136.65 299.86,-124.63"/>
<polygon fill="black" stroke="black" points="303.37,-124.52 300.54,-114.31 296.39,-124.05 303.37,-124.52"/>
</g>
</g>
</svg>
