<?xml version="1.0" encoding="UTF-8" standalone="no"?>
<!DOCTYPE svg PUBLIC "-//W3C//DTD SVG 1.1//EN"
 "http://www.w3.org/Graphics/SVG/1.1/DTD/svg11.dtd">
<!-- Generated by graphviz version 2.43.0 (0)
 -->
<!-- Title: %3 Pages: 1 -->
<svg width="463pt" height="355pt"
 viewBox="0.00 0.00 462.62 354.86" xmlns="http://www.w3.org/2000/svg" xmlns:xlink="http://www.w3.org/1999/xlink">
<g id="graph0" class="graph" transform="scale(1 1) rotate(0) translate(4 350.86)">
<title>%3</title>
<polygon fill="white" stroke="transparent" points="-4,4 -4,-350.86 458.62,-350.86 458.62,4 -4,4"/>
<g id="clust1" class="cluster">
<title>cluster85</title>
<path fill="none" stroke="black" d="M284.12,-129.95C284.12,-129.95 386.12,-129.95 386.12,-129.95 392.12,-129.95 398.12,-135.95 398.12,-141.95 398.12,-141.95 398.12,-231.91 398.12,-231.91 398.12,-237.91 392.12,-243.91 386.12,-243.91 386.12,-243.91 284.12,-243.91 284.12,-243.91 278.12,-243.91 272.12,-237.91 272.12,-231.91 272.12,-231.91 272.12,-141.95 272.12,-141.95 272.12,-135.95 278.12,-129.95 284.12,-129.95"/>
<text text-anchor="middle" x="380.62" y="-137.75" font-family="Times,serif" font-size="14.00">85</text>
</g>
<g id="clust2" class="cluster">
<title>cluster919</title>
<path fill="none" stroke="black" d="M167.12,-8C167.12,-8 257.12,-8 257.12,-8 263.12,-8 269.12,-14 269.12,-20 269.12,-20 269.12,-109.95 269.12,-109.95 269.12,-115.95 263.12,-121.95 257.12,-121.95 257.12,-121.95 167.12,-121.95 167.12,-121.95 161.12,-121.95 155.12,-115.95 155.12,-109.95 155.12,-109.95 155.12,-20 155.12,-20 155.12,-14 161.12,-8 167.12,-8"/>
<text text-anchor="middle" x="247.12" y="-15.8" font-family="Times,serif" font-size="14.00">919</text>
</g>
<!-- sigma -->
<g id="node1" class="node">
<title>sigma</title>
<ellipse fill="none" stroke="black" cx="72.12" cy="-198.43" rx="72.25" ry="37.45"/>
<text text-anchor="middle" x="72.12" y="-209.73" font-family="Times,serif" font-size="14.00">sigma</text>
<text text-anchor="middle" x="72.12" y="-194.73" font-family="Times,serif" font-size="14.00">~</text>
<text text-anchor="middle" x="72.12" y="-179.73" font-family="Times,serif" font-size="14.00">Exponential</text>
</g>
<!-- y -->
<g id="node6" class="node">
<title>y</title>
<ellipse fill="lightgrey" stroke="black" cx="212.12" cy="-76.48" rx="49.49" ry="37.45"/>
<text text-anchor="middle" x="212.12" y="-87.78" font-family="Times,serif" font-size="14.00">y</text>
<text text-anchor="middle" x="212.12" y="-72.78" font-family="Times,serif" font-size="14.00">~</text>
<text text-anchor="middle" x="212.12" y="-57.78" font-family="Times,serif" font-size="14.00">Normal</text>
</g>
<!-- sigma&#45;&gt;y -->
<g id="edge3" class="edge">
<title>sigma&#45;&gt;y</title>
<path fill="none" stroke="black" d="M108.91,-165.91C128.36,-149.25 152.27,-128.76 172.18,-111.7"/>
<polygon fill="black" stroke="black" points="174.56,-114.27 179.87,-105.11 170,-108.96 174.56,-114.27"/>
</g>
<!-- sigma_a -->
<g id="node2" class="node">
<title>sigma_a</title>
<ellipse fill="none" stroke="black" cx="265.12" cy="-309.38" rx="72.25" ry="37.45"/>
<text text-anchor="middle" x="265.12" y="-320.68" font-family="Times,serif" font-size="14.00">sigma_a</text>
<text text-anchor="middle" x="265.12" y="-305.68" font-family="Times,serif" font-size="14.00">~</text>
<text text-anchor="middle" x="265.12" y="-290.68" font-family="Times,serif" font-size="14.00">Exponential</text>
</g>
<!-- a_mouse -->
<g id="node5" class="node">
<title>a_mouse</title>
<ellipse fill="none" stroke="black" cx="335.12" cy="-198.43" rx="55.31" ry="37.45"/>
<text text-anchor="middle" x="335.12" y="-209.73" font-family="Times,serif" font-size="14.00">a_mouse</text>
<text text-anchor="middle" x="335.12" y="-194.73" font-family="Times,serif" font-size="14.00">~</text>
<text text-anchor="middle" x="335.12" y="-179.73" font-family="Times,serif" font-size="14.00">Normal</text>
</g>
<!-- sigma_a&#45;&gt;a_mouse -->
<g id="edge1" class="edge">
<title>sigma_a&#45;&gt;a_mouse</title>
<path fill="none" stroke="black" d="M287.47,-273.61C293.97,-263.49 301.14,-252.32 307.91,-241.79"/>
<polygon fill="black" stroke="black" points="311.01,-243.43 313.47,-233.13 305.12,-239.65 311.01,-243.43"/>
</g>
<!-- a -->
<g id="node3" class="node">
<title>a</title>
<ellipse fill="none" stroke="black" cx="405.12" cy="-309.38" rx="49.49" ry="37.45"/>
<text text-anchor="middle" x="405.12" y="-320.68" font-family="Times,serif" font-size="14.00">a</text>
<text text-anchor="middle" x="405.12" y="-305.68" font-family="Times,serif" font-size="14.00">~</text>
<text text-anchor="middle" x="405.12" y="-290.68" font-family="Times,serif" font-size="14.00">Normal</text>
</g>
<!-- a&#45;&gt;a_mouse -->
<g id="edge2" class="edge">
<title>a&#45;&gt;a_mouse</title>
<path fill="none" stroke="black" d="M383.93,-275.4C377.07,-264.72 369.36,-252.72 362.14,-241.48"/>
<polygon fill="black" stroke="black" points="365.08,-239.58 356.73,-233.06 359.19,-243.36 365.08,-239.58"/>
</g>
<!-- b -->
<g id="node4" class="node">
<title>b</title>
<ellipse fill="none" stroke="black" cx="212.12" cy="-198.43" rx="49.49" ry="37.45"/>
<text text-anchor="middle" x="212.12" y="-209.73" font-family="Times,serif" font-size="14.00">b</text>
<text text-anchor="middle" x="212.12" y="-194.73" font-family="Times,serif" font-size="14.00">~</text>
<text text-anchor="middle" x="212.12" y="-179.73" font-family="Times,serif" font-size="14.00">Normal</text>
</g>
<!-- b&#45;&gt;y -->
<g id="edge5" class="edge">
<title>b&#45;&gt;y</title>
<path fill="none" stroke="black" d="M212.12,-160.79C212.12,-149.38 212.12,-136.65 212.12,-124.63"/>
<polygon fill="black" stroke="black" points="215.62,-124.31 212.12,-114.31 208.62,-124.31 215.62,-124.31"/>
</g>
<!-- a_mouse&#45;&gt;y -->
<g id="edge4" class="edge">
<title>a_mouse&#45;&gt;y</title>
<path fill="none" stroke="black" d="M306.12,-166.43C295.03,-154.81 282.16,-141.61 270.12,-129.95 264.1,-124.11 257.6,-118.03 251.21,-112.17"/>
<polygon fill="black" stroke="black" points="253.54,-109.56 243.79,-105.41 248.83,-114.73 253.54,-109.56"/>
</g>
</g>
</svg>
