<?xml version="1.0" encoding="UTF-8" standalone="no"?>
<!DOCTYPE svg PUBLIC "-//W3C//DTD SVG 1.1//EN"
 "http://www.w3.org/Graphics/SVG/1.1/DTD/svg11.dtd">
<!-- Generated by graphviz version 2.43.0 (0)
 -->
<!-- Title: %3 Pages: 1 -->
<svg width="678pt" height="482pt"
 viewBox="0.00 0.00 677.98 481.81" xmlns="http://www.w3.org/2000/svg" xmlns:xlink="http://www.w3.org/1999/xlink">
<g id="graph0" class="graph" transform="scale(1 1) rotate(0) translate(4 477.81)">
<title>%3</title>
<polygon fill="white" stroke="transparent" points="-4,4 -4,-477.81 673.98,-477.81 673.98,4 -4,4"/>
<g id="clust1" class="cluster">
<title>cluster3</title>
<path fill="none" stroke="black" d="M142,-351.86C142,-351.86 218,-351.86 218,-351.86 224,-351.86 230,-357.86 230,-363.86 230,-363.86 230,-453.81 230,-453.81 230,-459.81 224,-465.81 218,-465.81 218,-465.81 142,-465.81 142,-465.81 136,-465.81 130,-459.81 130,-453.81 130,-453.81 130,-363.86 130,-363.86 130,-357.86 136,-351.86 142,-351.86"/>
<text text-anchor="middle" x="218.5" y="-359.66" font-family="Times,serif" font-size="14.00">3</text>
</g>
<g id="clust2" class="cluster">
<title>cluster85</title>
<path fill="none" stroke="black" d="M20,-129.93C20,-129.93 222,-129.93 222,-129.93 228,-129.93 234,-135.93 234,-141.93 234,-141.93 234,-331.86 234,-331.86 234,-337.86 228,-343.86 222,-343.86 222,-343.86 20,-343.86 20,-343.86 14,-343.86 8,-337.86 8,-331.86 8,-331.86 8,-141.93 8,-141.93 8,-135.93 14,-129.93 20,-129.93"/>
<text text-anchor="middle" x="219" y="-137.73" font-family="Times,serif" font-size="14.00">85</text>
</g>
<g id="clust3" class="cluster">
<title>cluster919</title>
<path fill="none" stroke="black" d="M254,-8C254,-8 430,-8 430,-8 436,-8 442,-14 442,-20 442,-20 442,-209.93 442,-209.93 442,-215.93 436,-221.93 430,-221.93 430,-221.93 254,-221.93 254,-221.93 248,-221.93 242,-215.93 242,-209.93 242,-209.93 242,-20 242,-20 242,-14 248,-8 254,-8"/>
<text text-anchor="middle" x="423.5" y="-15.8" font-family="Times,serif" font-size="14.00">919</text>
</g>
<!-- g -->
<g id="node1" class="node">
<title>g</title>
<ellipse fill="none" stroke="black" cx="180" cy="-420.34" rx="41.94" ry="37.45"/>
<text text-anchor="middle" x="180" y="-431.64" font-family="Times,serif" font-size="14.00">g</text>
<text text-anchor="middle" x="180" y="-416.64" font-family="Times,serif" font-size="14.00">~</text>
<text text-anchor="middle" x="180" y="-401.64" font-family="Times,serif" font-size="14.00">Normal</text>
</g>
<!-- a -->
<g id="node5" class="node">
<title>a</title>
<polygon fill="none" stroke="black" points="225.5,-324.88 134.5,-324.88 134.5,-271.88 225.5,-271.88 225.5,-324.88"/>
<text text-anchor="middle" x="180" y="-309.68" font-family="Times,serif" font-size="14.00">a</text>
<text text-anchor="middle" x="180" y="-294.68" font-family="Times,serif" font-size="14.00">~</text>
<text text-anchor="middle" x="180" y="-279.68" font-family="Times,serif" font-size="14.00">Deterministic</text>
</g>
<!-- g&#45;&gt;a -->
<g id="edge1" class="edge">
<title>g&#45;&gt;a</title>
<path fill="none" stroke="black" d="M180,-382.69C180,-367.73 180,-350.46 180,-335.54"/>
<polygon fill="black" stroke="black" points="183.5,-335.16 180,-325.16 176.5,-335.16 183.5,-335.16"/>
</g>
<!-- b -->
<g id="node2" class="node">
<title>b</title>
<ellipse fill="none" stroke="black" cx="494" cy="-187.43" rx="41.94" ry="37.45"/>
<text text-anchor="middle" x="494" y="-198.73" font-family="Times,serif" font-size="14.00">b</text>
<text text-anchor="middle" x="494" y="-183.73" font-family="Times,serif" font-size="14.00">~</text>
<text text-anchor="middle" x="494" y="-168.73" font-family="Times,serif" font-size="14.00">Normal</text>
</g>
<!-- y -->
<g id="node8" class="node">
<title>y</title>
<ellipse fill="lightgrey" stroke="black" cx="390" cy="-76.48" rx="41.94" ry="37.45"/>
<text text-anchor="middle" x="390" y="-87.78" font-family="Times,serif" font-size="14.00">y</text>
<text text-anchor="middle" x="390" y="-72.78" font-family="Times,serif" font-size="14.00">~</text>
<text text-anchor="middle" x="390" y="-57.78" font-family="Times,serif" font-size="14.00">Normal</text>
</g>
<!-- b&#45;&gt;y -->
<g id="edge9" class="edge">
<title>b&#45;&gt;y</title>
<path fill="none" stroke="black" d="M469.71,-156.55C462.29,-147.79 453.99,-138.32 446,-129.93 439.92,-123.55 433.25,-116.97 426.69,-110.71"/>
<polygon fill="black" stroke="black" points="428.77,-107.86 419.09,-103.55 423.97,-112.96 428.77,-107.86"/>
</g>
<!-- sigma_a -->
<g id="node3" class="node">
<title>sigma_a</title>
<ellipse fill="none" stroke="black" cx="301" cy="-298.38" rx="57.97" ry="37.45"/>
<text text-anchor="middle" x="301" y="-309.68" font-family="Times,serif" font-size="14.00">sigma_a</text>
<text text-anchor="middle" x="301" y="-294.68" font-family="Times,serif" font-size="14.00">~</text>
<text text-anchor="middle" x="301" y="-279.68" font-family="Times,serif" font-size="14.00">Exponential</text>
</g>
<!-- a_mouse -->
<g id="node6" class="node">
<title>a_mouse</title>
<polygon fill="none" stroke="black" points="225.5,-213.93 134.5,-213.93 134.5,-160.93 225.5,-160.93 225.5,-213.93"/>
<text text-anchor="middle" x="180" y="-198.73" font-family="Times,serif" font-size="14.00">a_mouse</text>
<text text-anchor="middle" x="180" y="-183.73" font-family="Times,serif" font-size="14.00">~</text>
<text text-anchor="middle" x="180" y="-168.73" font-family="Times,serif" font-size="14.00">Deterministic</text>
</g>
<!-- sigma_a&#45;&gt;a_mouse -->
<g id="edge3" class="edge">
<title>sigma_a&#45;&gt;a_mouse</title>
<path fill="none" stroke="black" d="M267.62,-267.32C251.63,-252.92 232.45,-235.66 216.12,-220.95"/>
<polygon fill="black" stroke="black" points="218.13,-218.05 208.36,-213.96 213.45,-223.26 218.13,-218.05"/>
</g>
<!-- sigma -->
<g id="node4" class="node">
<title>sigma</title>
<ellipse fill="none" stroke="black" cx="612" cy="-187.43" rx="57.97" ry="37.45"/>
<text text-anchor="middle" x="612" y="-198.73" font-family="Times,serif" font-size="14.00">sigma</text>
<text text-anchor="middle" x="612" y="-183.73" font-family="Times,serif" font-size="14.00">~</text>
<text text-anchor="middle" x="612" y="-168.73" font-family="Times,serif" font-size="14.00">Exponential</text>
</g>
<!-- sigma&#45;&gt;y -->
<g id="edge8" class="edge">
<title>sigma&#45;&gt;y</title>
<path fill="none" stroke="black" d="M580.43,-155.63C569.8,-146.44 557.46,-136.96 545,-129.93 512.06,-111.36 471.48,-97.92 440.1,-89.3"/>
<polygon fill="black" stroke="black" points="440.82,-85.87 430.26,-86.67 439.01,-92.63 440.82,-85.87"/>
</g>
<!-- a&#45;&gt;a_mouse -->
<g id="edge2" class="edge">
<title>a&#45;&gt;a_mouse</title>
<path fill="none" stroke="black" d="M180,-271.84C180,-257.73 180,-239.98 180,-224.49"/>
<polygon fill="black" stroke="black" points="183.5,-224.19 180,-214.19 176.5,-224.19 183.5,-224.19"/>
</g>
<!-- a_mouse&#45;&gt;y -->
<g id="edge5" class="edge">
<title>a_mouse&#45;&gt;y</title>
<path fill="none" stroke="black" d="M201.69,-160.75C211.82,-150.04 224.6,-138.19 238,-129.93 269.42,-110.57 308.92,-97.22 339.78,-88.83"/>
<polygon fill="black" stroke="black" points="340.69,-92.21 349.47,-86.28 338.91,-85.44 340.69,-92.21"/>
</g>
<!-- za_mouse -->
<g id="node7" class="node">
<title>za_mouse</title>
<ellipse fill="none" stroke="black" cx="66" cy="-298.38" rx="50.41" ry="37.45"/>
<text text-anchor="middle" x="66" y="-309.68" font-family="Times,serif" font-size="14.00">za_mouse</text>
<text text-anchor="middle" x="66" y="-294.68" font-family="Times,serif" font-size="14.00">~</text>
<text text-anchor="middle" x="66" y="-279.68" font-family="Times,serif" font-size="14.00">Normal</text>
</g>
<!-- za_mouse&#45;&gt;a_mouse -->
<g id="edge4" class="edge">
<title>za_mouse&#45;&gt;a_mouse</title>
<path fill="none" stroke="black" d="M96.25,-268.47C111.44,-253.95 129.91,-236.3 145.64,-221.27"/>
<polygon fill="black" stroke="black" points="148.3,-223.57 153.11,-214.13 143.46,-218.51 148.3,-223.57"/>
</g>
<!-- no_stim_vals -->
<g id="node9" class="node">
<title>no_stim_vals</title>
<path fill="lightgrey" stroke="black" d="M422.5,-213.93C422.5,-213.93 357.5,-213.93 357.5,-213.93 351.5,-213.93 345.5,-207.93 345.5,-201.93 345.5,-201.93 345.5,-172.93 345.5,-172.93 345.5,-166.93 351.5,-160.93 357.5,-160.93 357.5,-160.93 422.5,-160.93 422.5,-160.93 428.5,-160.93 434.5,-166.93 434.5,-172.93 434.5,-172.93 434.5,-201.93 434.5,-201.93 434.5,-207.93 428.5,-213.93 422.5,-213.93"/>
<text text-anchor="middle" x="390" y="-198.73" font-family="Times,serif" font-size="14.00">no_stim_vals</text>
<text text-anchor="middle" x="390" y="-183.73" font-family="Times,serif" font-size="14.00">~</text>
<text text-anchor="middle" x="390" y="-168.73" font-family="Times,serif" font-size="14.00">Data</text>
</g>
<!-- no_stim_vals&#45;&gt;y -->
<g id="edge6" class="edge">
<title>no_stim_vals&#45;&gt;y</title>
<path fill="none" stroke="black" d="M390,-160.89C390,-149.98 390,-136.89 390,-124.35"/>
<polygon fill="black" stroke="black" points="393.5,-124 390,-114 386.5,-124 393.5,-124"/>
</g>
<!-- mouse_idx -->
<g id="node10" class="node">
<title>mouse_idx</title>
<path fill="lightgrey" stroke="black" d="M315.5,-213.93C315.5,-213.93 262.5,-213.93 262.5,-213.93 256.5,-213.93 250.5,-207.93 250.5,-201.93 250.5,-201.93 250.5,-172.93 250.5,-172.93 250.5,-166.93 256.5,-160.93 262.5,-160.93 262.5,-160.93 315.5,-160.93 315.5,-160.93 321.5,-160.93 327.5,-166.93 327.5,-172.93 327.5,-172.93 327.5,-201.93 327.5,-201.93 327.5,-207.93 321.5,-213.93 315.5,-213.93"/>
<text text-anchor="middle" x="289" y="-198.73" font-family="Times,serif" font-size="14.00">mouse_idx</text>
<text text-anchor="middle" x="289" y="-183.73" font-family="Times,serif" font-size="14.00">~</text>
<text text-anchor="middle" x="289" y="-168.73" font-family="Times,serif" font-size="14.00">Data</text>
</g>
<!-- mouse_idx&#45;&gt;y -->
<g id="edge7" class="edge">
<title>mouse_idx&#45;&gt;y</title>
<path fill="none" stroke="black" d="M310.05,-160.71C318.27,-150.91 327.9,-139.75 337,-129.93 342.51,-123.99 348.49,-117.82 354.38,-111.88"/>
<polygon fill="black" stroke="black" points="357.15,-114.07 361.76,-104.53 352.21,-109.11 357.15,-114.07"/>
</g>
</g>
</svg>
