<?xml version="1.0" encoding="UTF-8" standalone="no"?>
<!DOCTYPE svg PUBLIC "-//W3C//DTD SVG 1.1//EN"
 "http://www.w3.org/Graphics/SVG/1.1/DTD/svg11.dtd">
<!-- Generated by graphviz version 2.43.0 (0)
 -->
<!-- Title: %3 Pages: 1 -->
<svg width="799pt" height="482pt"
 viewBox="0.00 0.00 799.12 481.81" xmlns="http://www.w3.org/2000/svg" xmlns:xlink="http://www.w3.org/1999/xlink">
<g id="graph0" class="graph" transform="scale(1 1) rotate(0) translate(4 477.81)">
<title>%3</title>
<polygon fill="white" stroke="transparent" points="-4,4 -4,-477.81 795.12,-477.81 795.12,4 -4,4"/>
<g id="clust1" class="cluster">
<title>cluster3</title>
<path fill="none" stroke="black" d="M28,-351.86C28,-351.86 118,-351.86 118,-351.86 124,-351.86 130,-357.86 130,-363.86 130,-363.86 130,-453.81 130,-453.81 130,-459.81 124,-465.81 118,-465.81 118,-465.81 28,-465.81 28,-465.81 22,-465.81 16,-459.81 16,-453.81 16,-453.81 16,-363.86 16,-363.86 16,-357.86 22,-351.86 28,-351.86"/>
<text text-anchor="middle" x="117" y="-359.66" font-family="Times,serif" font-size="14.00">3</text>
</g>
<g id="clust2" class="cluster">
<title>cluster85</title>
<path fill="none" stroke="black" d="M20,-129.93C20,-129.93 266,-129.93 266,-129.93 272,-129.93 278,-135.93 278,-141.93 278,-141.93 278,-331.86 278,-331.86 278,-337.86 272,-343.86 266,-343.86 266,-343.86 20,-343.86 20,-343.86 14,-343.86 8,-337.86 8,-331.86 8,-331.86 8,-141.93 8,-141.93 8,-135.93 14,-129.93 20,-129.93"/>
<text text-anchor="middle" x="260.5" y="-137.73" font-family="Times,serif" font-size="14.00">85</text>
</g>
<g id="clust3" class="cluster">
<title>cluster919</title>
<path fill="none" stroke="black" d="M298,-8C298,-8 507,-8 507,-8 513,-8 519,-14 519,-20 519,-20 519,-209.93 519,-209.93 519,-215.93 513,-221.93 507,-221.93 507,-221.93 298,-221.93 298,-221.93 292,-221.93 286,-215.93 286,-209.93 286,-209.93 286,-20 286,-20 286,-14 292,-8 298,-8"/>
<text text-anchor="middle" x="497" y="-15.8" font-family="Times,serif" font-size="14.00">919</text>
</g>
<!-- g -->
<g id="node1" class="node">
<title>g</title>
<ellipse fill="none" stroke="black" cx="73" cy="-420.34" rx="49.49" ry="37.45"/>
<text text-anchor="middle" x="73" y="-431.64" font-family="Times,serif" font-size="14.00">g</text>
<text text-anchor="middle" x="73" y="-416.64" font-family="Times,serif" font-size="14.00">~</text>
<text text-anchor="middle" x="73" y="-401.64" font-family="Times,serif" font-size="14.00">Normal</text>
</g>
<!-- a -->
<g id="node7" class="node">
<title>a</title>
<polygon fill="none" stroke="black" points="130,-324.88 16,-324.88 16,-271.88 130,-271.88 130,-324.88"/>
<text text-anchor="middle" x="73" y="-309.68" font-family="Times,serif" font-size="14.00">a</text>
<text text-anchor="middle" x="73" y="-294.68" font-family="Times,serif" font-size="14.00">~</text>
<text text-anchor="middle" x="73" y="-279.68" font-family="Times,serif" font-size="14.00">Deterministic</text>
</g>
<!-- g&#45;&gt;a -->
<g id="edge1" class="edge">
<title>g&#45;&gt;a</title>
<path fill="none" stroke="black" d="M73,-382.69C73,-367.73 73,-350.46 73,-335.54"/>
<polygon fill="black" stroke="black" points="76.5,-335.16 73,-325.16 69.5,-335.16 76.5,-335.16"/>
</g>
<!-- b -->
<g id="node2" class="node">
<title>b</title>
<ellipse fill="none" stroke="black" cx="579" cy="-187.43" rx="49.49" ry="37.45"/>
<text text-anchor="middle" x="579" y="-198.73" font-family="Times,serif" font-size="14.00">b</text>
<text text-anchor="middle" x="579" y="-183.73" font-family="Times,serif" font-size="14.00">~</text>
<text text-anchor="middle" x="579" y="-168.73" font-family="Times,serif" font-size="14.00">Normal</text>
</g>
<!-- y -->
<g id="node9" class="node">
<title>y</title>
<ellipse fill="lightgrey" stroke="black" cx="458" cy="-76.48" rx="49.49" ry="37.45"/>
<text text-anchor="middle" x="458" y="-87.78" font-family="Times,serif" font-size="14.00">y</text>
<text text-anchor="middle" x="458" y="-72.78" font-family="Times,serif" font-size="14.00">~</text>
<text text-anchor="middle" x="458" y="-57.78" font-family="Times,serif" font-size="14.00">Normal</text>
</g>
<!-- b&#45;&gt;y -->
<g id="edge8" class="edge">
<title>b&#45;&gt;y</title>
<path fill="none" stroke="black" d="M550.53,-156.48C541.89,-147.72 532.23,-138.26 523,-129.93 515.81,-123.44 507.94,-116.76 500.24,-110.43"/>
<polygon fill="black" stroke="black" points="501.96,-107.32 491.99,-103.74 497.55,-112.76 501.96,-107.32"/>
</g>
<!-- sigma_a -->
<g id="node3" class="node">
<title>sigma_a</title>
<ellipse fill="none" stroke="black" cx="360" cy="-298.38" rx="72.25" ry="37.45"/>
<text text-anchor="middle" x="360" y="-309.68" font-family="Times,serif" font-size="14.00">sigma_a</text>
<text text-anchor="middle" x="360" y="-294.68" font-family="Times,serif" font-size="14.00">~</text>
<text text-anchor="middle" x="360" y="-279.68" font-family="Times,serif" font-size="14.00">Exponential</text>
</g>
<!-- a_mouse -->
<g id="node5" class="node">
<title>a_mouse</title>
<polygon fill="none" stroke="black" points="268,-213.93 154,-213.93 154,-160.93 268,-160.93 268,-213.93"/>
<text text-anchor="middle" x="211" y="-198.73" font-family="Times,serif" font-size="14.00">a_mouse</text>
<text text-anchor="middle" x="211" y="-183.73" font-family="Times,serif" font-size="14.00">~</text>
<text text-anchor="middle" x="211" y="-168.73" font-family="Times,serif" font-size="14.00">Deterministic</text>
</g>
<!-- sigma_a&#45;&gt;a_mouse -->
<g id="edge2" class="edge">
<title>sigma_a&#45;&gt;a_mouse</title>
<path fill="none" stroke="black" d="M318.89,-267.32C298.75,-252.6 274.51,-234.87 254.11,-219.95"/>
<polygon fill="black" stroke="black" points="256.06,-217.04 245.92,-213.96 251.92,-222.69 256.06,-217.04"/>
</g>
<!-- sigma -->
<g id="node4" class="node">
<title>sigma</title>
<ellipse fill="none" stroke="black" cx="719" cy="-187.43" rx="72.25" ry="37.45"/>
<text text-anchor="middle" x="719" y="-198.73" font-family="Times,serif" font-size="14.00">sigma</text>
<text text-anchor="middle" x="719" y="-183.73" font-family="Times,serif" font-size="14.00">~</text>
<text text-anchor="middle" x="719" y="-168.73" font-family="Times,serif" font-size="14.00">Exponential</text>
</g>
<!-- sigma&#45;&gt;y -->
<g id="edge7" class="edge">
<title>sigma&#45;&gt;y</title>
<path fill="none" stroke="black" d="M680.09,-155.87C666.95,-146.59 651.83,-136.99 637,-129.93 598.24,-111.49 551.64,-98.08 515.7,-89.44"/>
<polygon fill="black" stroke="black" points="516.4,-86.01 505.86,-87.13 514.8,-92.82 516.4,-86.01"/>
</g>
<!-- a_mouse&#45;&gt;y -->
<g id="edge5" class="edge">
<title>a_mouse&#45;&gt;y</title>
<path fill="none" stroke="black" d="M238.27,-160.66C250.81,-149.93 266.36,-138.09 282,-129.93 319.18,-110.53 364.61,-97.22 400,-88.86"/>
<polygon fill="black" stroke="black" points="401.2,-92.18 410.17,-86.53 399.64,-85.35 401.2,-92.18"/>
</g>
<!-- za_mouse -->
<g id="node6" class="node">
<title>za_mouse</title>
<ellipse fill="none" stroke="black" cx="209" cy="-298.38" rx="60.62" ry="37.45"/>
<text text-anchor="middle" x="209" y="-309.68" font-family="Times,serif" font-size="14.00">za_mouse</text>
<text text-anchor="middle" x="209" y="-294.68" font-family="Times,serif" font-size="14.00">~</text>
<text text-anchor="middle" x="209" y="-279.68" font-family="Times,serif" font-size="14.00">Normal</text>
</g>
<!-- za_mouse&#45;&gt;a_mouse -->
<g id="edge3" class="edge">
<title>za_mouse&#45;&gt;a_mouse</title>
<path fill="none" stroke="black" d="M209.67,-260.8C209.89,-249.06 210.13,-236.08 210.34,-224.38"/>
<polygon fill="black" stroke="black" points="213.84,-224.14 210.53,-214.08 206.85,-224.02 213.84,-224.14"/>
</g>
<!-- a&#45;&gt;a_mouse -->
<g id="edge4" class="edge">
<title>a&#45;&gt;a_mouse</title>
<path fill="none" stroke="black" d="M105.35,-271.84C124.77,-256.51 149.63,-236.88 170.36,-220.52"/>
<polygon fill="black" stroke="black" points="172.69,-223.14 178.37,-214.19 168.35,-217.64 172.69,-223.14"/>
</g>
<!-- no_stim_vals -->
<g id="node8" class="node">
<title>no_stim_vals</title>
<path fill="lightgrey" stroke="black" d="M499.5,-213.93C499.5,-213.93 416.5,-213.93 416.5,-213.93 410.5,-213.93 404.5,-207.93 404.5,-201.93 404.5,-201.93 404.5,-172.93 404.5,-172.93 404.5,-166.93 410.5,-160.93 416.5,-160.93 416.5,-160.93 499.5,-160.93 499.5,-160.93 505.5,-160.93 511.5,-166.93 511.5,-172.93 511.5,-172.93 511.5,-201.93 511.5,-201.93 511.5,-207.93 505.5,-213.93 499.5,-213.93"/>
<text text-anchor="middle" x="458" y="-198.73" font-family="Times,serif" font-size="14.00">no_stim_vals</text>
<text text-anchor="middle" x="458" y="-183.73" font-family="Times,serif" font-size="14.00">~</text>
<text text-anchor="middle" x="458" y="-168.73" font-family="Times,serif" font-size="14.00">Data</text>
</g>
<!-- no_stim_vals&#45;&gt;y -->
<g id="edge6" class="edge">
<title>no_stim_vals&#45;&gt;y</title>
<path fill="none" stroke="black" d="M458,-160.89C458,-149.98 458,-136.89 458,-124.35"/>
<polygon fill="black" stroke="black" points="461.5,-124 458,-114 454.5,-124 461.5,-124"/>
</g>
<!-- mouse_idx -->
<g id="node10" class="node">
<title>mouse_idx</title>
<path fill="lightgrey" stroke="black" d="M374,-213.93C374,-213.93 306,-213.93 306,-213.93 300,-213.93 294,-207.93 294,-201.93 294,-201.93 294,-172.93 294,-172.93 294,-166.93 300,-160.93 306,-160.93 306,-160.93 374,-160.93 374,-160.93 380,-160.93 386,-166.93 386,-172.93 386,-172.93 386,-201.93 386,-201.93 386,-207.93 380,-213.93 374,-213.93"/>
<text text-anchor="middle" x="340" y="-198.73" font-family="Times,serif" font-size="14.00">mouse_idx</text>
<text text-anchor="middle" x="340" y="-183.73" font-family="Times,serif" font-size="14.00">~</text>
<text text-anchor="middle" x="340" y="-168.73" font-family="Times,serif" font-size="14.00">Data</text>
</g>
<!-- mouse_idx&#45;&gt;y -->
<g id="edge9" class="edge">
<title>mouse_idx&#45;&gt;y</title>
<path fill="none" stroke="black" d="M364.35,-160.92C374.02,-151.05 385.35,-139.77 396,-129.93 402.77,-123.68 410.12,-117.2 417.32,-111.01"/>
<polygon fill="black" stroke="black" points="419.69,-113.59 425.04,-104.45 415.15,-108.26 419.69,-113.59"/>
</g>
</g>
</svg>
