<?xml version="1.0" encoding="UTF-8" standalone="no"?>
<!DOCTYPE svg PUBLIC "-//W3C//DTD SVG 1.1//EN"
 "http://www.w3.org/Graphics/SVG/1.1/DTD/svg11.dtd">
<!-- Generated by graphviz version 2.43.0 (0)
 -->
<!-- Title: %3 Pages: 1 -->
<svg width="345pt" height="355pt"
 viewBox="0.00 0.00 344.62 354.86" xmlns="http://www.w3.org/2000/svg" xmlns:xlink="http://www.w3.org/1999/xlink">
<g id="graph0" class="graph" transform="scale(1 1) rotate(0) translate(4 350.86)">
<title>%3</title>
<polygon fill="white" stroke="transparent" points="-4,4 -4,-350.86 340.62,-350.86 340.62,4 -4,4"/>
<g id="clust1" class="cluster">
<title>cluster85</title>
<path fill="none" stroke="black" d="M166.12,-129.95C166.12,-129.95 268.12,-129.95 268.12,-129.95 274.12,-129.95 280.12,-135.95 280.12,-141.95 280.12,-141.95 280.12,-231.91 280.12,-231.91 280.12,-237.91 274.12,-243.91 268.12,-243.91 268.12,-243.91 166.12,-243.91 166.12,-243.91 160.12,-243.91 154.12,-237.91 154.12,-231.91 154.12,-231.91 154.12,-141.95 154.12,-141.95 154.12,-135.95 160.12,-129.95 166.12,-129.95"/>
<text text-anchor="middle" x="262.62" y="-137.75" font-family="Times,serif" font-size="14.00">85</text>
</g>
<g id="clust2" class="cluster">
<title>cluster919</title>
<path fill="none" stroke="black" d="M96.12,-8C96.12,-8 186.12,-8 186.12,-8 192.12,-8 198.12,-14 198.12,-20 198.12,-20 198.12,-109.95 198.12,-109.95 198.12,-115.95 192.12,-121.95 186.12,-121.95 186.12,-121.95 96.12,-121.95 96.12,-121.95 90.12,-121.95 84.12,-115.95 84.12,-109.95 84.12,-109.95 84.12,-20 84.12,-20 84.12,-14 90.12,-8 96.12,-8"/>
<text text-anchor="middle" x="176.12" y="-15.8" font-family="Times,serif" font-size="14.00">919</text>
</g>
<!-- sigma -->
<g id="node1" class="node">
<title>sigma</title>
<ellipse fill="none" stroke="black" cx="72.12" cy="-198.43" rx="72.25" ry="37.45"/>
<text text-anchor="middle" x="72.12" y="-209.73" font-family="Times,serif" font-size="14.00">sigma</text>
<text text-anchor="middle" x="72.12" y="-194.73" font-family="Times,serif" font-size="14.00">~</text>
<text text-anchor="middle" x="72.12" y="-179.73" font-family="Times,serif" font-size="14.00">Exponential</text>
</g>
<!-- y -->
<g id="node5" class="node">
<title>y</title>
<ellipse fill="lightgrey" stroke="black" cx="141.12" cy="-76.48" rx="49.49" ry="37.45"/>
<text text-anchor="middle" x="141.12" y="-87.78" font-family="Times,serif" font-size="14.00">y</text>
<text text-anchor="middle" x="141.12" y="-72.78" font-family="Times,serif" font-size="14.00">~</text>
<text text-anchor="middle" x="141.12" y="-57.78" font-family="Times,serif" font-size="14.00">Normal</text>
</g>
<!-- sigma&#45;&gt;y -->
<g id="edge3" class="edge">
<title>sigma&#45;&gt;y</title>
<path fill="none" stroke="black" d="M92.27,-162.41C99.9,-149.14 108.68,-133.88 116.67,-119.99"/>
<polygon fill="black" stroke="black" points="119.84,-121.51 121.79,-111.09 113.77,-118.02 119.84,-121.51"/>
</g>
<!-- sigma_a -->
<g id="node2" class="node">
<title>sigma_a</title>
<ellipse fill="none" stroke="black" cx="147.12" cy="-309.38" rx="72.25" ry="37.45"/>
<text text-anchor="middle" x="147.12" y="-320.68" font-family="Times,serif" font-size="14.00">sigma_a</text>
<text text-anchor="middle" x="147.12" y="-305.68" font-family="Times,serif" font-size="14.00">~</text>
<text text-anchor="middle" x="147.12" y="-290.68" font-family="Times,serif" font-size="14.00">Exponential</text>
</g>
<!-- a_mouse -->
<g id="node4" class="node">
<title>a_mouse</title>
<ellipse fill="none" stroke="black" cx="217.12" cy="-198.43" rx="55.31" ry="37.45"/>
<text text-anchor="middle" x="217.12" y="-209.73" font-family="Times,serif" font-size="14.00">a_mouse</text>
<text text-anchor="middle" x="217.12" y="-194.73" font-family="Times,serif" font-size="14.00">~</text>
<text text-anchor="middle" x="217.12" y="-179.73" font-family="Times,serif" font-size="14.00">Normal</text>
</g>
<!-- sigma_a&#45;&gt;a_mouse -->
<g id="edge1" class="edge">
<title>sigma_a&#45;&gt;a_mouse</title>
<path fill="none" stroke="black" d="M169.47,-273.61C175.97,-263.49 183.14,-252.32 189.91,-241.79"/>
<polygon fill="black" stroke="black" points="193.01,-243.43 195.47,-233.13 187.12,-239.65 193.01,-243.43"/>
</g>
<!-- a -->
<g id="node3" class="node">
<title>a</title>
<ellipse fill="none" stroke="black" cx="287.12" cy="-309.38" rx="49.49" ry="37.45"/>
<text text-anchor="middle" x="287.12" y="-320.68" font-family="Times,serif" font-size="14.00">a</text>
<text text-anchor="middle" x="287.12" y="-305.68" font-family="Times,serif" font-size="14.00">~</text>
<text text-anchor="middle" x="287.12" y="-290.68" font-family="Times,serif" font-size="14.00">Normal</text>
</g>
<!-- a&#45;&gt;a_mouse -->
<g id="edge2" class="edge">
<title>a&#45;&gt;a_mouse</title>
<path fill="none" stroke="black" d="M265.93,-275.4C259.07,-264.72 251.36,-252.72 244.14,-241.48"/>
<polygon fill="black" stroke="black" points="247.08,-239.58 238.73,-233.06 241.19,-243.36 247.08,-239.58"/>
</g>
<!-- a_mouse&#45;&gt;y -->
<g id="edge4" class="edge">
<title>a_mouse&#45;&gt;y</title>
<path fill="none" stroke="black" d="M195.75,-163.7C187.03,-149.92 176.84,-133.85 167.65,-119.34"/>
<polygon fill="black" stroke="black" points="170.38,-117.12 162.07,-110.54 164.47,-120.86 170.38,-117.12"/>
</g>
</g>
</svg>
