<?xml version="1.0" encoding="UTF-8" standalone="no"?>
<!DOCTYPE svg PUBLIC "-//W3C//DTD SVG 1.1//EN"
 "http://www.w3.org/Graphics/SVG/1.1/DTD/svg11.dtd">
<!-- Generated by graphviz version 2.43.0 (0)
 -->
<!-- Title: %3 Pages: 1 -->
<svg width="731pt" height="363pt"
 viewBox="0.00 0.00 731.50 362.88" xmlns="http://www.w3.org/2000/svg" xmlns:xlink="http://www.w3.org/1999/xlink">
<g id="graph0" class="graph" transform="scale(1 1) rotate(0) translate(4 358.88)">
<title>%3</title>
<polygon fill="white" stroke="transparent" points="-4,4 -4,-358.88 727.5,-358.88 727.5,4 -4,4"/>
<g id="clust1" class="cluster">
<title>cluster3</title>
<path fill="none" stroke="black" d="M20,-232.93C20,-232.93 210,-232.93 210,-232.93 216,-232.93 222,-238.93 222,-244.93 222,-244.93 222,-334.88 222,-334.88 222,-340.88 216,-346.88 210,-346.88 210,-346.88 20,-346.88 20,-346.88 14,-346.88 8,-340.88 8,-334.88 8,-334.88 8,-244.93 8,-244.93 8,-238.93 14,-232.93 20,-232.93"/>
<text text-anchor="middle" x="209" y="-240.73" font-family="Times,serif" font-size="14.00">3</text>
</g>
<g id="clust2" class="cluster">
<title>cluster2</title>
<path fill="none" stroke="black" d="M30,-129.95C30,-129.95 136,-129.95 136,-129.95 142,-129.95 148,-135.95 148,-141.95 148,-141.95 148,-209.95 148,-209.95 148,-215.95 142,-221.95 136,-221.95 136,-221.95 30,-221.95 30,-221.95 24,-221.95 18,-215.95 18,-209.95 18,-209.95 18,-141.95 18,-141.95 18,-135.95 24,-129.95 30,-129.95"/>
<text text-anchor="middle" x="135" y="-137.75" font-family="Times,serif" font-size="14.00">2</text>
</g>
<g id="clust3" class="cluster">
<title>cluster2 x 85</title>
<path fill="none" stroke="black" d="M242,-232.93C242,-232.93 332,-232.93 332,-232.93 338,-232.93 344,-238.93 344,-244.93 344,-244.93 344,-334.88 344,-334.88 344,-340.88 338,-346.88 332,-346.88 332,-346.88 242,-346.88 242,-346.88 236,-346.88 230,-340.88 230,-334.88 230,-334.88 230,-244.93 230,-244.93 230,-238.93 236,-232.93 242,-232.93"/>
<text text-anchor="middle" x="313.5" y="-240.73" font-family="Times,serif" font-size="14.00">2 x 85</text>
</g>
<g id="clust4" class="cluster">
<title>cluster85 x 2</title>
<path fill="none" stroke="black" d="M217,-129.95C217,-129.95 323,-129.95 323,-129.95 329,-129.95 335,-135.95 335,-141.95 335,-141.95 335,-209.95 335,-209.95 335,-215.95 329,-221.95 323,-221.95 323,-221.95 217,-221.95 217,-221.95 211,-221.95 205,-215.95 205,-209.95 205,-209.95 205,-141.95 205,-141.95 205,-135.95 211,-129.95 217,-129.95"/>
<text text-anchor="middle" x="304.5" y="-137.75" font-family="Times,serif" font-size="14.00">85 x 2</text>
</g>
<g id="clust5" class="cluster">
<title>cluster919</title>
<path fill="none" stroke="black" d="M419,-8C419,-8 509,-8 509,-8 515,-8 521,-14 521,-20 521,-20 521,-109.95 521,-109.95 521,-115.95 515,-121.95 509,-121.95 509,-121.95 419,-121.95 419,-121.95 413,-121.95 407,-115.95 407,-109.95 407,-109.95 407,-20 407,-20 407,-14 413,-8 419,-8"/>
<text text-anchor="middle" x="499" y="-15.8" font-family="Times,serif" font-size="14.00">919</text>
</g>
<!-- packed_chol -->
<g id="node1" class="node">
<title>packed_chol</title>
<ellipse fill="none" stroke="black" cx="115" cy="-301.41" rx="98.99" ry="37.45"/>
<text text-anchor="middle" x="115" y="-312.71" font-family="Times,serif" font-size="14.00">packed_chol</text>
<text text-anchor="middle" x="115" y="-297.71" font-family="Times,serif" font-size="14.00">~</text>
<text text-anchor="middle" x="115" y="-282.71" font-family="Times,serif" font-size="14.00">_LKJCholeskyCov</text>
</g>
<!-- sigma_ab -->
<g id="node2" class="node">
<title>sigma_ab</title>
<polygon fill="none" stroke="black" points="140,-213.95 26,-213.95 26,-160.95 140,-160.95 140,-213.95"/>
<text text-anchor="middle" x="83" y="-198.75" font-family="Times,serif" font-size="14.00">sigma_ab</text>
<text text-anchor="middle" x="83" y="-183.75" font-family="Times,serif" font-size="14.00">~</text>
<text text-anchor="middle" x="83" y="-168.75" font-family="Times,serif" font-size="14.00">Deterministic</text>
</g>
<!-- packed_chol&#45;&gt;sigma_ab -->
<g id="edge1" class="edge">
<title>packed_chol&#45;&gt;sigma_ab</title>
<path fill="none" stroke="black" d="M104.61,-264.06C100.92,-251.16 96.78,-236.67 93.12,-223.86"/>
<polygon fill="black" stroke="black" points="96.41,-222.65 90.3,-214 89.68,-224.57 96.41,-222.65"/>
</g>
<!-- Rho -->
<g id="node6" class="node">
<title>Rho</title>
<polygon fill="none" stroke="black" points="182,-102.98 68,-102.98 68,-49.98 182,-49.98 182,-102.98"/>
<text text-anchor="middle" x="125" y="-87.78" font-family="Times,serif" font-size="14.00">Rho</text>
<text text-anchor="middle" x="125" y="-72.78" font-family="Times,serif" font-size="14.00">~</text>
<text text-anchor="middle" x="125" y="-57.78" font-family="Times,serif" font-size="14.00">Deterministic</text>
</g>
<!-- packed_chol&#45;&gt;Rho -->
<g id="edge2" class="edge">
<title>packed_chol&#45;&gt;Rho</title>
<path fill="none" stroke="black" d="M136.58,-264.8C142.84,-252.6 148.83,-238.58 152,-224.93 161.54,-183.81 161.94,-170.98 152,-129.95 150.58,-124.08 148.38,-118.14 145.84,-112.46"/>
<polygon fill="black" stroke="black" points="148.85,-110.66 141.31,-103.21 142.57,-113.73 148.85,-110.66"/>
</g>
<!-- ab_mouse -->
<g id="node8" class="node">
<title>ab_mouse</title>
<polygon fill="none" stroke="black" points="327,-213.95 213,-213.95 213,-160.95 327,-160.95 327,-213.95"/>
<text text-anchor="middle" x="270" y="-198.75" font-family="Times,serif" font-size="14.00">ab_mouse</text>
<text text-anchor="middle" x="270" y="-183.75" font-family="Times,serif" font-size="14.00">~</text>
<text text-anchor="middle" x="270" y="-168.75" font-family="Times,serif" font-size="14.00">Deterministic</text>
</g>
<!-- packed_chol&#45;&gt;ab_mouse -->
<g id="edge4" class="edge">
<title>packed_chol&#45;&gt;ab_mouse</title>
<path fill="none" stroke="black" d="M160.25,-267.72C180.98,-252.75 205.46,-235.07 226.04,-220.21"/>
<polygon fill="black" stroke="black" points="228.24,-222.93 234.3,-214.24 224.14,-217.26 228.24,-222.93"/>
</g>
<!-- sigma_ab&#45;&gt;Rho -->
<g id="edge3" class="edge">
<title>sigma_ab&#45;&gt;Rho</title>
<path fill="none" stroke="black" d="M92.85,-160.9C98.39,-146.52 105.39,-128.36 111.44,-112.65"/>
<polygon fill="black" stroke="black" points="114.74,-113.83 115.07,-103.24 108.21,-111.32 114.74,-113.83"/>
</g>
<!-- b -->
<g id="node3" class="node">
<title>b</title>
<ellipse fill="none" stroke="black" cx="394" cy="-187.45" rx="49.49" ry="37.45"/>
<text text-anchor="middle" x="394" y="-198.75" font-family="Times,serif" font-size="14.00">b</text>
<text text-anchor="middle" x="394" y="-183.75" font-family="Times,serif" font-size="14.00">~</text>
<text text-anchor="middle" x="394" y="-168.75" font-family="Times,serif" font-size="14.00">Normal</text>
</g>
<!-- y -->
<g id="node9" class="node">
<title>y</title>
<ellipse fill="lightgrey" stroke="black" cx="464" cy="-76.48" rx="49.49" ry="37.45"/>
<text text-anchor="middle" x="464" y="-87.78" font-family="Times,serif" font-size="14.00">y</text>
<text text-anchor="middle" x="464" y="-72.78" font-family="Times,serif" font-size="14.00">~</text>
<text text-anchor="middle" x="464" y="-57.78" font-family="Times,serif" font-size="14.00">Normal</text>
</g>
<!-- b&#45;&gt;y -->
<g id="edge6" class="edge">
<title>b&#45;&gt;y</title>
<path fill="none" stroke="black" d="M415.19,-153.46C422.12,-142.68 429.9,-130.56 437.19,-119.22"/>
<polygon fill="black" stroke="black" points="440.18,-121.04 442.64,-110.73 434.29,-117.26 440.18,-121.04"/>
</g>
<!-- sigma -->
<g id="node4" class="node">
<title>sigma</title>
<ellipse fill="none" stroke="black" cx="534" cy="-187.45" rx="72.25" ry="37.45"/>
<text text-anchor="middle" x="534" y="-198.75" font-family="Times,serif" font-size="14.00">sigma</text>
<text text-anchor="middle" x="534" y="-183.75" font-family="Times,serif" font-size="14.00">~</text>
<text text-anchor="middle" x="534" y="-168.75" font-family="Times,serif" font-size="14.00">Exponential</text>
</g>
<!-- sigma&#45;&gt;y -->
<g id="edge8" class="edge">
<title>sigma&#45;&gt;y</title>
<path fill="none" stroke="black" d="M511.66,-151.67C504.97,-141.25 497.56,-129.72 490.62,-118.92"/>
<polygon fill="black" stroke="black" points="493.53,-116.97 485.18,-110.44 487.64,-120.75 493.53,-116.97"/>
</g>
<!-- a -->
<g id="node5" class="node">
<title>a</title>
<ellipse fill="none" stroke="black" cx="674" cy="-187.45" rx="49.49" ry="37.45"/>
<text text-anchor="middle" x="674" y="-198.75" font-family="Times,serif" font-size="14.00">a</text>
<text text-anchor="middle" x="674" y="-183.75" font-family="Times,serif" font-size="14.00">~</text>
<text text-anchor="middle" x="674" y="-168.75" font-family="Times,serif" font-size="14.00">Normal</text>
</g>
<!-- a&#45;&gt;y -->
<g id="edge9" class="edge">
<title>a&#45;&gt;y</title>
<path fill="none" stroke="black" d="M646.98,-155.86C637.58,-146.58 626.49,-136.99 615,-129.95 586.07,-112.25 550.36,-99.5 520.93,-90.99"/>
<polygon fill="black" stroke="black" points="521.78,-87.6 511.21,-88.27 519.89,-94.34 521.78,-87.6"/>
</g>
<!-- z -->
<g id="node7" class="node">
<title>z</title>
<ellipse fill="none" stroke="black" cx="287" cy="-301.41" rx="49.49" ry="37.45"/>
<text text-anchor="middle" x="287" y="-312.71" font-family="Times,serif" font-size="14.00">z</text>
<text text-anchor="middle" x="287" y="-297.71" font-family="Times,serif" font-size="14.00">~</text>
<text text-anchor="middle" x="287" y="-282.71" font-family="Times,serif" font-size="14.00">Normal</text>
</g>
<!-- z&#45;&gt;ab_mouse -->
<g id="edge5" class="edge">
<title>z&#45;&gt;ab_mouse</title>
<path fill="none" stroke="black" d="M281.48,-264.06C279.54,-251.29 277.37,-236.96 275.43,-224.24"/>
<polygon fill="black" stroke="black" points="278.84,-223.36 273.88,-214 271.92,-224.41 278.84,-223.36"/>
</g>
<!-- ab_mouse&#45;&gt;y -->
<g id="edge7" class="edge">
<title>ab_mouse&#45;&gt;y</title>
<path fill="none" stroke="black" d="M296.1,-160.73C307.67,-150.25 321.84,-138.6 336,-129.95 358.79,-116.03 385.92,-104.3 409.33,-95.49"/>
<polygon fill="black" stroke="black" points="410.6,-98.75 418.78,-92.01 408.18,-92.18 410.6,-98.75"/>
</g>
</g>
</svg>
