<?xml version="1.0" encoding="UTF-8" standalone="no"?>
<!DOCTYPE svg PUBLIC "-//W3C//DTD SVG 1.1//EN"
 "http://www.w3.org/Graphics/SVG/1.1/DTD/svg11.dtd">
<!-- Generated by graphviz version 2.43.0 (0)
 -->
<!-- Title: %3 Pages: 1 -->
<svg width="845pt" height="363pt"
 viewBox="0.00 0.00 845.50 362.86" xmlns="http://www.w3.org/2000/svg" xmlns:xlink="http://www.w3.org/1999/xlink">
<g id="graph0" class="graph" transform="scale(1 1) rotate(0) translate(4 358.86)">
<title>%3</title>
<polygon fill="white" stroke="transparent" points="-4,4 -4,-358.86 841.5,-358.86 841.5,4 -4,4"/>
<g id="clust1" class="cluster">
<title>cluster85</title>
<path fill="none" stroke="black" d="M563.5,-232.91C563.5,-232.91 817.5,-232.91 817.5,-232.91 823.5,-232.91 829.5,-238.91 829.5,-244.91 829.5,-244.91 829.5,-334.86 829.5,-334.86 829.5,-340.86 823.5,-346.86 817.5,-346.86 817.5,-346.86 563.5,-346.86 563.5,-346.86 557.5,-346.86 551.5,-340.86 551.5,-334.86 551.5,-334.86 551.5,-244.91 551.5,-244.91 551.5,-238.91 557.5,-232.91 563.5,-232.91"/>
<text text-anchor="middle" x="812" y="-240.71" font-family="Times,serif" font-size="14.00">85</text>
</g>
<g id="clust2" class="cluster">
<title>cluster919</title>
<path fill="none" stroke="black" d="M214.5,-8C214.5,-8 452.5,-8 452.5,-8 458.5,-8 464.5,-14 464.5,-20 464.5,-20 464.5,-209.93 464.5,-209.93 464.5,-215.93 458.5,-221.93 452.5,-221.93 452.5,-221.93 214.5,-221.93 214.5,-221.93 208.5,-221.93 202.5,-215.93 202.5,-209.93 202.5,-209.93 202.5,-20 202.5,-20 202.5,-14 208.5,-8 214.5,-8"/>
<text text-anchor="middle" x="442.5" y="-15.8" font-family="Times,serif" font-size="14.00">919</text>
</g>
<!-- sigma -->
<g id="node1" class="node">
<title>sigma</title>
<ellipse fill="none" stroke="black" cx="120.5" cy="-187.43" rx="72.25" ry="37.45"/>
<text text-anchor="middle" x="120.5" y="-198.73" font-family="Times,serif" font-size="14.00">sigma</text>
<text text-anchor="middle" x="120.5" y="-183.73" font-family="Times,serif" font-size="14.00">~</text>
<text text-anchor="middle" x="120.5" y="-168.73" font-family="Times,serif" font-size="14.00">Exponential</text>
</g>
<!-- y -->
<g id="node10" class="node">
<title>y</title>
<ellipse fill="lightgrey" stroke="black" cx="267.5" cy="-76.48" rx="49.49" ry="37.45"/>
<text text-anchor="middle" x="267.5" y="-87.78" font-family="Times,serif" font-size="14.00">y</text>
<text text-anchor="middle" x="267.5" y="-72.78" font-family="Times,serif" font-size="14.00">~</text>
<text text-anchor="middle" x="267.5" y="-57.78" font-family="Times,serif" font-size="14.00">Normal</text>
</g>
<!-- sigma&#45;&gt;y -->
<g id="edge9" class="edge">
<title>sigma&#45;&gt;y</title>
<path fill="none" stroke="black" d="M161.06,-156.37C180.77,-141.75 204.48,-124.18 224.51,-109.34"/>
<polygon fill="black" stroke="black" points="226.61,-112.14 232.56,-103.37 222.44,-106.51 226.61,-112.14"/>
</g>
<!-- a -->
<g id="node2" class="node">
<title>a</title>
<ellipse fill="none" stroke="black" cx="49.5" cy="-301.38" rx="49.49" ry="37.45"/>
<text text-anchor="middle" x="49.5" y="-312.68" font-family="Times,serif" font-size="14.00">a</text>
<text text-anchor="middle" x="49.5" y="-297.68" font-family="Times,serif" font-size="14.00">~</text>
<text text-anchor="middle" x="49.5" y="-282.68" font-family="Times,serif" font-size="14.00">Normal</text>
</g>
<!-- aa -->
<g id="node9" class="node">
<title>aa</title>
<polygon fill="none" stroke="black" points="324.5,-213.93 210.5,-213.93 210.5,-160.93 324.5,-160.93 324.5,-213.93"/>
<text text-anchor="middle" x="267.5" y="-198.73" font-family="Times,serif" font-size="14.00">aa</text>
<text text-anchor="middle" x="267.5" y="-183.73" font-family="Times,serif" font-size="14.00">~</text>
<text text-anchor="middle" x="267.5" y="-168.73" font-family="Times,serif" font-size="14.00">Deterministic</text>
</g>
<!-- a&#45;&gt;aa -->
<g id="edge3" class="edge">
<title>a&#45;&gt;aa</title>
<path fill="none" stroke="black" d="M70.28,-267.13C80.19,-254.19 93.23,-240.64 108.5,-232.91 145.5,-214.15 161.81,-236.98 201.5,-224.91 207.11,-223.2 212.79,-220.97 218.33,-218.45"/>
<polygon fill="black" stroke="black" points="220.03,-221.52 227.49,-213.99 216.96,-215.22 220.03,-221.52"/>
</g>
<!-- b -->
<g id="node3" class="node">
<title>b</title>
<ellipse fill="none" stroke="black" cx="329.5" cy="-301.38" rx="49.49" ry="37.45"/>
<text text-anchor="middle" x="329.5" y="-312.68" font-family="Times,serif" font-size="14.00">b</text>
<text text-anchor="middle" x="329.5" y="-297.68" font-family="Times,serif" font-size="14.00">~</text>
<text text-anchor="middle" x="329.5" y="-282.68" font-family="Times,serif" font-size="14.00">Normal</text>
</g>
<!-- bb -->
<g id="node8" class="node">
<title>bb</title>
<polygon fill="none" stroke="black" points="456.5,-213.93 342.5,-213.93 342.5,-160.93 456.5,-160.93 456.5,-213.93"/>
<text text-anchor="middle" x="399.5" y="-198.73" font-family="Times,serif" font-size="14.00">bb</text>
<text text-anchor="middle" x="399.5" y="-183.73" font-family="Times,serif" font-size="14.00">~</text>
<text text-anchor="middle" x="399.5" y="-168.73" font-family="Times,serif" font-size="14.00">Deterministic</text>
</g>
<!-- b&#45;&gt;bb -->
<g id="edge4" class="edge">
<title>b&#45;&gt;bb</title>
<path fill="none" stroke="black" d="M350.31,-267.1C359.12,-253.01 369.38,-236.6 378.23,-222.44"/>
<polygon fill="black" stroke="black" points="381.21,-224.28 383.54,-213.94 375.28,-220.57 381.21,-224.28"/>
</g>
<!-- sigma_a -->
<g id="node4" class="node">
<title>sigma_a</title>
<ellipse fill="none" stroke="black" cx="189.5" cy="-301.38" rx="72.25" ry="37.45"/>
<text text-anchor="middle" x="189.5" y="-312.68" font-family="Times,serif" font-size="14.00">sigma_a</text>
<text text-anchor="middle" x="189.5" y="-297.68" font-family="Times,serif" font-size="14.00">~</text>
<text text-anchor="middle" x="189.5" y="-282.68" font-family="Times,serif" font-size="14.00">Exponential</text>
</g>
<!-- sigma_a&#45;&gt;aa -->
<g id="edge1" class="edge">
<title>sigma_a&#45;&gt;aa</title>
<path fill="none" stroke="black" d="M213.54,-265.88C223.17,-252.05 234.25,-236.15 243.85,-222.37"/>
<polygon fill="black" stroke="black" points="246.76,-224.31 249.61,-214.11 241.02,-220.31 246.76,-224.31"/>
</g>
<!-- sigma_b -->
<g id="node5" class="node">
<title>sigma_b</title>
<ellipse fill="none" stroke="black" cx="469.5" cy="-301.38" rx="72.25" ry="37.45"/>
<text text-anchor="middle" x="469.5" y="-312.68" font-family="Times,serif" font-size="14.00">sigma_b</text>
<text text-anchor="middle" x="469.5" y="-297.68" font-family="Times,serif" font-size="14.00">~</text>
<text text-anchor="middle" x="469.5" y="-282.68" font-family="Times,serif" font-size="14.00">Exponential</text>
</g>
<!-- sigma_b&#45;&gt;bb -->
<g id="edge6" class="edge">
<title>sigma_b&#45;&gt;bb</title>
<path fill="none" stroke="black" d="M447.73,-265.57C439.17,-251.88 429.37,-236.21 420.85,-222.59"/>
<polygon fill="black" stroke="black" points="423.74,-220.59 415.47,-213.97 417.8,-224.3 423.74,-220.59"/>
</g>
<!-- zb_mouse -->
<g id="node6" class="node">
<title>zb_mouse</title>
<ellipse fill="none" stroke="black" cx="760.5" cy="-301.38" rx="60.62" ry="37.45"/>
<text text-anchor="middle" x="760.5" y="-312.68" font-family="Times,serif" font-size="14.00">zb_mouse</text>
<text text-anchor="middle" x="760.5" y="-297.68" font-family="Times,serif" font-size="14.00">~</text>
<text text-anchor="middle" x="760.5" y="-282.68" font-family="Times,serif" font-size="14.00">Normal</text>
</g>
<!-- zb_mouse&#45;&gt;bb -->
<g id="edge5" class="edge">
<title>zb_mouse&#45;&gt;bb</title>
<path fill="none" stroke="black" d="M734.07,-267.26C722.13,-254.51 706.99,-241.06 690.5,-232.91 652.27,-214 540.2,-200.84 466.82,-193.97"/>
<polygon fill="black" stroke="black" points="467.01,-190.47 456.73,-193.04 466.37,-197.44 467.01,-190.47"/>
</g>
<!-- za_mouse -->
<g id="node7" class="node">
<title>za_mouse</title>
<ellipse fill="none" stroke="black" cx="620.5" cy="-301.38" rx="60.62" ry="37.45"/>
<text text-anchor="middle" x="620.5" y="-312.68" font-family="Times,serif" font-size="14.00">za_mouse</text>
<text text-anchor="middle" x="620.5" y="-297.68" font-family="Times,serif" font-size="14.00">~</text>
<text text-anchor="middle" x="620.5" y="-282.68" font-family="Times,serif" font-size="14.00">Normal</text>
</g>
<!-- za_mouse&#45;&gt;aa -->
<g id="edge2" class="edge">
<title>za_mouse&#45;&gt;aa</title>
<path fill="none" stroke="black" d="M595.16,-267.02C583.19,-253.9 567.74,-240.24 550.5,-232.91 506.09,-214.03 379.99,-237.82 333.5,-224.91 327.54,-223.25 321.53,-220.96 315.69,-218.34"/>
<polygon fill="black" stroke="black" points="317.22,-215.19 306.7,-213.96 314.16,-221.48 317.22,-215.19"/>
</g>
<!-- bb&#45;&gt;y -->
<g id="edge7" class="edge">
<title>bb&#45;&gt;y</title>
<path fill="none" stroke="black" d="M368.55,-160.89C350.6,-146.07 327.78,-127.23 308.37,-111.21"/>
<polygon fill="black" stroke="black" points="310.5,-108.43 300.56,-104.77 306.04,-113.83 310.5,-108.43"/>
</g>
<!-- aa&#45;&gt;y -->
<g id="edge8" class="edge">
<title>aa&#45;&gt;y</title>
<path fill="none" stroke="black" d="M267.5,-160.89C267.5,-149.98 267.5,-136.89 267.5,-124.35"/>
<polygon fill="black" stroke="black" points="271,-124 267.5,-114 264,-124 271,-124"/>
</g>
</g>
</svg>
