<?xml version="1.0" encoding="UTF-8" standalone="no"?>
<!DOCTYPE svg PUBLIC "-//W3C//DTD SVG 1.1//EN"
 "http://www.w3.org/Graphics/SVG/1.1/DTD/svg11.dtd">
<!-- Generated by graphviz version 2.43.0 (0)
 -->
<!-- Title: %3 Pages: 1 -->
<svg width="492pt" height="382pt"
 viewBox="0.00 0.00 492.12 381.86" xmlns="http://www.w3.org/2000/svg" xmlns:xlink="http://www.w3.org/1999/xlink">
<g id="graph0" class="graph" transform="scale(1 1) rotate(0) translate(4 377.86)">
<title>%3</title>
<polygon fill="white" stroke="transparent" points="-4,4 -4,-377.86 488.12,-377.86 488.12,4 -4,4"/>
<g id="clust1" class="cluster">
<title>cluster2</title>
<path fill="none" stroke="black" d="M20,-251.91C20,-251.91 130,-251.91 130,-251.91 136,-251.91 142,-257.91 142,-263.91 142,-263.91 142,-353.86 142,-353.86 142,-359.86 136,-365.86 130,-365.86 130,-365.86 20,-365.86 20,-365.86 14,-365.86 8,-359.86 8,-353.86 8,-353.86 8,-263.91 8,-263.91 8,-257.91 14,-251.91 20,-251.91"/>
<text text-anchor="middle" x="129" y="-259.71" font-family="Times,serif" font-size="14.00">2</text>
</g>
<g id="clust2" class="cluster">
<title>cluster85</title>
<path fill="none" stroke="black" d="M98,-129.95C98,-129.95 200,-129.95 200,-129.95 206,-129.95 212,-135.95 212,-141.95 212,-141.95 212,-231.91 212,-231.91 212,-237.91 206,-243.91 200,-243.91 200,-243.91 98,-243.91 98,-243.91 92,-243.91 86,-237.91 86,-231.91 86,-231.91 86,-141.95 86,-141.95 86,-135.95 92,-129.95 98,-129.95"/>
<text text-anchor="middle" x="194.5" y="-137.75" font-family="Times,serif" font-size="14.00">85</text>
</g>
<g id="clust3" class="cluster">
<title>cluster919</title>
<path fill="none" stroke="black" d="M227,-8C227,-8 317,-8 317,-8 323,-8 329,-14 329,-20 329,-20 329,-109.95 329,-109.95 329,-115.95 323,-121.95 317,-121.95 317,-121.95 227,-121.95 227,-121.95 221,-121.95 215,-115.95 215,-109.95 215,-109.95 215,-20 215,-20 215,-14 221,-8 227,-8"/>
<text text-anchor="middle" x="307" y="-15.8" font-family="Times,serif" font-size="14.00">919</text>
</g>
<!-- g_neuron -->
<g id="node1" class="node">
<title>g_neuron</title>
<ellipse fill="none" stroke="black" cx="75" cy="-320.38" rx="58.88" ry="37.45"/>
<text text-anchor="middle" x="75" y="-331.68" font-family="Times,serif" font-size="14.00">g_neuron</text>
<text text-anchor="middle" x="75" y="-316.68" font-family="Times,serif" font-size="14.00">~</text>
<text text-anchor="middle" x="75" y="-301.68" font-family="Times,serif" font-size="14.00">Normal</text>
</g>
<!-- a_mouse -->
<g id="node5" class="node">
<title>a_mouse</title>
<ellipse fill="none" stroke="black" cx="149" cy="-198.43" rx="55.31" ry="37.45"/>
<text text-anchor="middle" x="149" y="-209.73" font-family="Times,serif" font-size="14.00">a_mouse</text>
<text text-anchor="middle" x="149" y="-194.73" font-family="Times,serif" font-size="14.00">~</text>
<text text-anchor="middle" x="149" y="-179.73" font-family="Times,serif" font-size="14.00">Normal</text>
</g>
<!-- g_neuron&#45;&gt;a_mouse -->
<g id="edge2" class="edge">
<title>g_neuron&#45;&gt;a_mouse</title>
<path fill="none" stroke="black" d="M96.01,-285.33C104.36,-271.79 114.06,-256.07 122.85,-241.81"/>
<polygon fill="black" stroke="black" points="125.92,-243.5 128.2,-233.15 119.97,-239.83 125.92,-243.5"/>
</g>
<!-- b -->
<g id="node2" class="node">
<title>b</title>
<ellipse fill="none" stroke="black" cx="272" cy="-198.43" rx="49.49" ry="37.45"/>
<text text-anchor="middle" x="272" y="-209.73" font-family="Times,serif" font-size="14.00">b</text>
<text text-anchor="middle" x="272" y="-194.73" font-family="Times,serif" font-size="14.00">~</text>
<text text-anchor="middle" x="272" y="-179.73" font-family="Times,serif" font-size="14.00">Normal</text>
</g>
<!-- y -->
<g id="node6" class="node">
<title>y</title>
<ellipse fill="lightgrey" stroke="black" cx="272" cy="-76.48" rx="49.49" ry="37.45"/>
<text text-anchor="middle" x="272" y="-87.78" font-family="Times,serif" font-size="14.00">y</text>
<text text-anchor="middle" x="272" y="-72.78" font-family="Times,serif" font-size="14.00">~</text>
<text text-anchor="middle" x="272" y="-57.78" font-family="Times,serif" font-size="14.00">Normal</text>
</g>
<!-- b&#45;&gt;y -->
<g id="edge3" class="edge">
<title>b&#45;&gt;y</title>
<path fill="none" stroke="black" d="M272,-160.79C272,-149.38 272,-136.65 272,-124.63"/>
<polygon fill="black" stroke="black" points="275.5,-124.31 272,-114.31 268.5,-124.31 275.5,-124.31"/>
</g>
<!-- sigma_a -->
<g id="node3" class="node">
<title>sigma_a</title>
<ellipse fill="none" stroke="black" cx="224" cy="-320.38" rx="72.25" ry="37.45"/>
<text text-anchor="middle" x="224" y="-331.68" font-family="Times,serif" font-size="14.00">sigma_a</text>
<text text-anchor="middle" x="224" y="-316.68" font-family="Times,serif" font-size="14.00">~</text>
<text text-anchor="middle" x="224" y="-301.68" font-family="Times,serif" font-size="14.00">Exponential</text>
</g>
<!-- sigma_a&#45;&gt;a_mouse -->
<g id="edge1" class="edge">
<title>sigma_a&#45;&gt;a_mouse</title>
<path fill="none" stroke="black" d="M202.11,-284.37C193.88,-271.2 184.43,-256.09 175.8,-242.3"/>
<polygon fill="black" stroke="black" points="178.54,-240.08 170.28,-233.46 172.61,-243.79 178.54,-240.08"/>
</g>
<!-- sigma -->
<g id="node4" class="node">
<title>sigma</title>
<ellipse fill="none" stroke="black" cx="412" cy="-198.43" rx="72.25" ry="37.45"/>
<text text-anchor="middle" x="412" y="-209.73" font-family="Times,serif" font-size="14.00">sigma</text>
<text text-anchor="middle" x="412" y="-194.73" font-family="Times,serif" font-size="14.00">~</text>
<text text-anchor="middle" x="412" y="-179.73" font-family="Times,serif" font-size="14.00">Exponential</text>
</g>
<!-- sigma&#45;&gt;y -->
<g id="edge5" class="edge">
<title>sigma&#45;&gt;y</title>
<path fill="none" stroke="black" d="M375.22,-165.91C355.76,-149.25 331.85,-128.76 311.95,-111.7"/>
<polygon fill="black" stroke="black" points="314.12,-108.96 304.25,-105.11 309.57,-114.27 314.12,-108.96"/>
</g>
<!-- a_mouse&#45;&gt;y -->
<g id="edge4" class="edge">
<title>a_mouse&#45;&gt;y</title>
<path fill="none" stroke="black" d="M178.01,-166.43C189.1,-154.81 201.97,-141.61 214,-129.95 220.03,-124.11 226.53,-118.03 232.92,-112.17"/>
<polygon fill="black" stroke="black" points="235.3,-114.73 240.33,-105.41 230.58,-109.56 235.3,-114.73"/>
</g>
</g>
</svg>
