<?xml version="1.0" encoding="UTF-8" standalone="no"?>
<!DOCTYPE svg PUBLIC "-//W3C//DTD SVG 1.1//EN"
 "http://www.w3.org/Graphics/SVG/1.1/DTD/svg11.dtd">
<!-- Generated by graphviz version 2.43.0 (0)
 -->
<!-- Title: %3 Pages: 1 -->
<svg width="555pt" height="482pt"
 viewBox="0.00 0.00 555.12 481.84" xmlns="http://www.w3.org/2000/svg" xmlns:xlink="http://www.w3.org/1999/xlink">
<g id="graph0" class="graph" transform="scale(1 1) rotate(0) translate(4 477.84)">
<title>%3</title>
<polygon fill="white" stroke="transparent" points="-4,4 -4,-477.84 551.12,-477.84 551.12,4 -4,4"/>
<g id="clust1" class="cluster">
<title>cluster2</title>
<path fill="none" stroke="black" d="M28,-351.88C28,-351.88 118,-351.88 118,-351.88 124,-351.88 130,-357.88 130,-363.88 130,-363.88 130,-453.84 130,-453.84 130,-459.84 124,-465.84 118,-465.84 118,-465.84 28,-465.84 28,-465.84 22,-465.84 16,-459.84 16,-453.84 16,-453.84 16,-363.88 16,-363.88 16,-357.88 22,-351.88 28,-351.88"/>
<text text-anchor="middle" x="117" y="-359.68" font-family="Times,serif" font-size="14.00">2</text>
</g>
<g id="clust2" class="cluster">
<title>cluster85</title>
<path fill="none" stroke="black" d="M20,-129.95C20,-129.95 266,-129.95 266,-129.95 272,-129.95 278,-135.95 278,-141.95 278,-141.95 278,-331.88 278,-331.88 278,-337.88 272,-343.88 266,-343.88 266,-343.88 20,-343.88 20,-343.88 14,-343.88 8,-337.88 8,-331.88 8,-331.88 8,-141.95 8,-141.95 8,-135.95 14,-129.95 20,-129.95"/>
<text text-anchor="middle" x="260.5" y="-137.75" font-family="Times,serif" font-size="14.00">85</text>
</g>
<g id="clust3" class="cluster">
<title>cluster919</title>
<path fill="none" stroke="black" d="M290,-8C290,-8 380,-8 380,-8 386,-8 392,-14 392,-20 392,-20 392,-109.95 392,-109.95 392,-115.95 386,-121.95 380,-121.95 380,-121.95 290,-121.95 290,-121.95 284,-121.95 278,-115.95 278,-109.95 278,-109.95 278,-20 278,-20 278,-14 284,-8 290,-8"/>
<text text-anchor="middle" x="370" y="-15.8" font-family="Times,serif" font-size="14.00">919</text>
</g>
<!-- g -->
<g id="node1" class="node">
<title>g</title>
<ellipse fill="none" stroke="black" cx="73" cy="-420.36" rx="49.49" ry="37.45"/>
<text text-anchor="middle" x="73" y="-431.66" font-family="Times,serif" font-size="14.00">g</text>
<text text-anchor="middle" x="73" y="-416.66" font-family="Times,serif" font-size="14.00">~</text>
<text text-anchor="middle" x="73" y="-401.66" font-family="Times,serif" font-size="14.00">Normal</text>
</g>
<!-- a -->
<g id="node7" class="node">
<title>a</title>
<polygon fill="none" stroke="black" points="130,-324.91 16,-324.91 16,-271.91 130,-271.91 130,-324.91"/>
<text text-anchor="middle" x="73" y="-309.71" font-family="Times,serif" font-size="14.00">a</text>
<text text-anchor="middle" x="73" y="-294.71" font-family="Times,serif" font-size="14.00">~</text>
<text text-anchor="middle" x="73" y="-279.71" font-family="Times,serif" font-size="14.00">Deterministic</text>
</g>
<!-- g&#45;&gt;a -->
<g id="edge1" class="edge">
<title>g&#45;&gt;a</title>
<path fill="none" stroke="black" d="M73,-382.72C73,-367.75 73,-350.48 73,-335.56"/>
<polygon fill="black" stroke="black" points="76.5,-335.18 73,-325.18 69.5,-335.18 76.5,-335.18"/>
</g>
<!-- b -->
<g id="node2" class="node">
<title>b</title>
<ellipse fill="none" stroke="black" cx="335" cy="-187.45" rx="49.49" ry="37.45"/>
<text text-anchor="middle" x="335" y="-198.75" font-family="Times,serif" font-size="14.00">b</text>
<text text-anchor="middle" x="335" y="-183.75" font-family="Times,serif" font-size="14.00">~</text>
<text text-anchor="middle" x="335" y="-168.75" font-family="Times,serif" font-size="14.00">Normal</text>
</g>
<!-- y -->
<g id="node8" class="node">
<title>y</title>
<ellipse fill="lightgrey" stroke="black" cx="335" cy="-76.48" rx="49.49" ry="37.45"/>
<text text-anchor="middle" x="335" y="-87.78" font-family="Times,serif" font-size="14.00">y</text>
<text text-anchor="middle" x="335" y="-72.78" font-family="Times,serif" font-size="14.00">~</text>
<text text-anchor="middle" x="335" y="-57.78" font-family="Times,serif" font-size="14.00">Normal</text>
</g>
<!-- b&#45;&gt;y -->
<g id="edge5" class="edge">
<title>b&#45;&gt;y</title>
<path fill="none" stroke="black" d="M335,-149.86C335,-141.69 335,-132.9 335,-124.38"/>
<polygon fill="black" stroke="black" points="338.5,-124.16 335,-114.16 331.5,-124.16 338.5,-124.16"/>
</g>
<!-- sigma_a -->
<g id="node3" class="node">
<title>sigma_a</title>
<ellipse fill="none" stroke="black" cx="360" cy="-298.41" rx="72.25" ry="37.45"/>
<text text-anchor="middle" x="360" y="-309.71" font-family="Times,serif" font-size="14.00">sigma_a</text>
<text text-anchor="middle" x="360" y="-294.71" font-family="Times,serif" font-size="14.00">~</text>
<text text-anchor="middle" x="360" y="-279.71" font-family="Times,serif" font-size="14.00">Exponential</text>
</g>
<!-- a_mouse -->
<g id="node5" class="node">
<title>a_mouse</title>
<polygon fill="none" stroke="black" points="267,-213.95 153,-213.95 153,-160.95 267,-160.95 267,-213.95"/>
<text text-anchor="middle" x="210" y="-198.75" font-family="Times,serif" font-size="14.00">a_mouse</text>
<text text-anchor="middle" x="210" y="-183.75" font-family="Times,serif" font-size="14.00">~</text>
<text text-anchor="middle" x="210" y="-168.75" font-family="Times,serif" font-size="14.00">Deterministic</text>
</g>
<!-- sigma_a&#45;&gt;a_mouse -->
<g id="edge2" class="edge">
<title>sigma_a&#45;&gt;a_mouse</title>
<path fill="none" stroke="black" d="M318.61,-267.35C298.34,-252.62 273.94,-234.89 253.4,-219.98"/>
<polygon fill="black" stroke="black" points="255.3,-217.03 245.15,-213.99 251.19,-222.69 255.3,-217.03"/>
</g>
<!-- sigma -->
<g id="node4" class="node">
<title>sigma</title>
<ellipse fill="none" stroke="black" cx="475" cy="-187.45" rx="72.25" ry="37.45"/>
<text text-anchor="middle" x="475" y="-198.75" font-family="Times,serif" font-size="14.00">sigma</text>
<text text-anchor="middle" x="475" y="-183.75" font-family="Times,serif" font-size="14.00">~</text>
<text text-anchor="middle" x="475" y="-168.75" font-family="Times,serif" font-size="14.00">Exponential</text>
</g>
<!-- sigma&#45;&gt;y -->
<g id="edge7" class="edge">
<title>sigma&#45;&gt;y</title>
<path fill="none" stroke="black" d="M435.63,-155.81C417.31,-141.55 395.51,-124.58 376.89,-110.08"/>
<polygon fill="black" stroke="black" points="378.89,-107.21 368.85,-103.83 374.6,-112.73 378.89,-107.21"/>
</g>
<!-- a_mouse&#45;&gt;y -->
<g id="edge6" class="edge">
<title>a_mouse&#45;&gt;y</title>
<path fill="none" stroke="black" d="M239.31,-160.9C255.98,-146.37 277.08,-127.97 295.23,-112.15"/>
<polygon fill="black" stroke="black" points="297.57,-114.75 302.8,-105.55 292.97,-109.48 297.57,-114.75"/>
</g>
<!-- za_mouse -->
<g id="node6" class="node">
<title>za_mouse</title>
<ellipse fill="none" stroke="black" cx="209" cy="-298.41" rx="60.62" ry="37.45"/>
<text text-anchor="middle" x="209" y="-309.71" font-family="Times,serif" font-size="14.00">za_mouse</text>
<text text-anchor="middle" x="209" y="-294.71" font-family="Times,serif" font-size="14.00">~</text>
<text text-anchor="middle" x="209" y="-279.71" font-family="Times,serif" font-size="14.00">Normal</text>
</g>
<!-- za_mouse&#45;&gt;a_mouse -->
<g id="edge3" class="edge">
<title>za_mouse&#45;&gt;a_mouse</title>
<path fill="none" stroke="black" d="M209.34,-260.82C209.44,-249.09 209.56,-236.1 209.67,-224.41"/>
<polygon fill="black" stroke="black" points="213.17,-224.14 209.76,-214.11 206.17,-224.07 213.17,-224.14"/>
</g>
<!-- a&#45;&gt;a_mouse -->
<g id="edge4" class="edge">
<title>a&#45;&gt;a_mouse</title>
<path fill="none" stroke="black" d="M105.12,-271.86C124.39,-256.54 149.07,-236.91 169.65,-220.54"/>
<polygon fill="black" stroke="black" points="171.96,-223.18 177.61,-214.22 167.6,-217.7 171.96,-223.18"/>
</g>
</g>
</svg>
