<?xml version="1.0" encoding="UTF-8" standalone="no"?>
<!DOCTYPE svg PUBLIC "-//W3C//DTD SVG 1.1//EN"
 "http://www.w3.org/Graphics/SVG/1.1/DTD/svg11.dtd">
<!-- Generated by graphviz version 2.43.0 (0)
 -->
<!-- Title: %3 Pages: 1 -->
<svg width="367pt" height="355pt"
 viewBox="0.00 0.00 367.25 354.86" xmlns="http://www.w3.org/2000/svg" xmlns:xlink="http://www.w3.org/1999/xlink">
<g id="graph0" class="graph" transform="scale(1 1) rotate(0) translate(4 350.86)">
<title>%3</title>
<polygon fill="white" stroke="transparent" points="-4,4 -4,-350.86 363.25,-350.86 363.25,4 -4,4"/>
<g id="clust1" class="cluster">
<title>cluster85</title>
<path fill="none" stroke="black" d="M91.12,-129.95C91.12,-129.95 193.12,-129.95 193.12,-129.95 199.12,-129.95 205.12,-135.95 205.12,-141.95 205.12,-141.95 205.12,-231.91 205.12,-231.91 205.12,-237.91 199.12,-243.91 193.12,-243.91 193.12,-243.91 91.12,-243.91 91.12,-243.91 85.12,-243.91 79.12,-237.91 79.12,-231.91 79.12,-231.91 79.12,-141.95 79.12,-141.95 79.12,-135.95 85.12,-129.95 91.12,-129.95"/>
<text text-anchor="middle" x="187.62" y="-137.75" font-family="Times,serif" font-size="14.00">85</text>
</g>
<g id="clust2" class="cluster">
<title>cluster919</title>
<path fill="none" stroke="black" d="M100.12,-8C100.12,-8 190.12,-8 190.12,-8 196.12,-8 202.12,-14 202.12,-20 202.12,-20 202.12,-109.95 202.12,-109.95 202.12,-115.95 196.12,-121.95 190.12,-121.95 190.12,-121.95 100.12,-121.95 100.12,-121.95 94.12,-121.95 88.12,-115.95 88.12,-109.95 88.12,-109.95 88.12,-20 88.12,-20 88.12,-14 94.12,-8 100.12,-8"/>
<text text-anchor="middle" x="180.12" y="-15.8" font-family="Times,serif" font-size="14.00">919</text>
</g>
<!-- sigma_a -->
<g id="node1" class="node">
<title>sigma_a</title>
<ellipse fill="none" stroke="black" cx="72.12" cy="-309.38" rx="72.25" ry="37.45"/>
<text text-anchor="middle" x="72.12" y="-320.68" font-family="Times,serif" font-size="14.00">sigma_a</text>
<text text-anchor="middle" x="72.12" y="-305.68" font-family="Times,serif" font-size="14.00">~</text>
<text text-anchor="middle" x="72.12" y="-290.68" font-family="Times,serif" font-size="14.00">Exponential</text>
</g>
<!-- a_mouse -->
<g id="node4" class="node">
<title>a_mouse</title>
<ellipse fill="none" stroke="black" cx="142.12" cy="-198.43" rx="55.31" ry="37.45"/>
<text text-anchor="middle" x="142.12" y="-209.73" font-family="Times,serif" font-size="14.00">a_mouse</text>
<text text-anchor="middle" x="142.12" y="-194.73" font-family="Times,serif" font-size="14.00">~</text>
<text text-anchor="middle" x="142.12" y="-179.73" font-family="Times,serif" font-size="14.00">Normal</text>
</g>
<!-- sigma_a&#45;&gt;a_mouse -->
<g id="edge1" class="edge">
<title>sigma_a&#45;&gt;a_mouse</title>
<path fill="none" stroke="black" d="M94.47,-273.61C100.97,-263.49 108.14,-252.32 114.91,-241.79"/>
<polygon fill="black" stroke="black" points="118.01,-243.43 120.47,-233.13 112.12,-239.65 118.01,-243.43"/>
</g>
<!-- sigma -->
<g id="node2" class="node">
<title>sigma</title>
<ellipse fill="none" stroke="black" cx="287.12" cy="-198.43" rx="72.25" ry="37.45"/>
<text text-anchor="middle" x="287.12" y="-209.73" font-family="Times,serif" font-size="14.00">sigma</text>
<text text-anchor="middle" x="287.12" y="-194.73" font-family="Times,serif" font-size="14.00">~</text>
<text text-anchor="middle" x="287.12" y="-179.73" font-family="Times,serif" font-size="14.00">Exponential</text>
</g>
<!-- y -->
<g id="node5" class="node">
<title>y</title>
<ellipse fill="lightgrey" stroke="black" cx="145.12" cy="-76.48" rx="49.49" ry="37.45"/>
<text text-anchor="middle" x="145.12" y="-87.78" font-family="Times,serif" font-size="14.00">y</text>
<text text-anchor="middle" x="145.12" y="-72.78" font-family="Times,serif" font-size="14.00">~</text>
<text text-anchor="middle" x="145.12" y="-57.78" font-family="Times,serif" font-size="14.00">Normal</text>
</g>
<!-- sigma&#45;&gt;y -->
<g id="edge4" class="edge">
<title>sigma&#45;&gt;y</title>
<path fill="none" stroke="black" d="M250.79,-165.65C237.72,-154.31 222.82,-141.49 209.12,-129.95 201.86,-123.84 194.08,-117.38 186.54,-111.17"/>
<polygon fill="black" stroke="black" points="188.43,-108.19 178.48,-104.55 183.99,-113.6 188.43,-108.19"/>
</g>
<!-- a -->
<g id="node3" class="node">
<title>a</title>
<ellipse fill="none" stroke="black" cx="212.12" cy="-309.38" rx="49.49" ry="37.45"/>
<text text-anchor="middle" x="212.12" y="-320.68" font-family="Times,serif" font-size="14.00">a</text>
<text text-anchor="middle" x="212.12" y="-305.68" font-family="Times,serif" font-size="14.00">~</text>
<text text-anchor="middle" x="212.12" y="-290.68" font-family="Times,serif" font-size="14.00">Normal</text>
</g>
<!-- a&#45;&gt;a_mouse -->
<g id="edge2" class="edge">
<title>a&#45;&gt;a_mouse</title>
<path fill="none" stroke="black" d="M190.93,-275.4C184.07,-264.72 176.36,-252.72 169.14,-241.48"/>
<polygon fill="black" stroke="black" points="172.08,-239.58 163.73,-233.06 166.19,-243.36 172.08,-239.58"/>
</g>
<!-- a_mouse&#45;&gt;y -->
<g id="edge3" class="edge">
<title>a_mouse&#45;&gt;y</title>
<path fill="none" stroke="black" d="M143.04,-160.79C143.33,-149.38 143.65,-136.65 143.95,-124.63"/>
<polygon fill="black" stroke="black" points="147.45,-124.39 144.2,-114.31 140.45,-124.22 147.45,-124.39"/>
</g>
</g>
</svg>
