<?xml version="1.0" encoding="UTF-8" standalone="no"?>
<!DOCTYPE svg PUBLIC "-//W3C//DTD SVG 1.1//EN"
 "http://www.w3.org/Graphics/SVG/1.1/DTD/svg11.dtd">
<!-- Generated by graphviz version 2.43.0 (0)
 -->
<!-- Title: %3 Pages: 1 -->
<svg width="716pt" height="363pt"
 viewBox="0.00 0.00 715.72 362.86" xmlns="http://www.w3.org/2000/svg" xmlns:xlink="http://www.w3.org/1999/xlink">
<g id="graph0" class="graph" transform="scale(1 1) rotate(0) translate(4 358.86)">
<title>%3</title>
<polygon fill="white" stroke="transparent" points="-4,4 -4,-358.86 711.72,-358.86 711.72,4 -4,4"/>
<g id="clust1" class="cluster">
<title>cluster85</title>
<path fill="none" stroke="black" d="M475.72,-232.91C475.72,-232.91 687.72,-232.91 687.72,-232.91 693.72,-232.91 699.72,-238.91 699.72,-244.91 699.72,-244.91 699.72,-334.86 699.72,-334.86 699.72,-340.86 693.72,-346.86 687.72,-346.86 687.72,-346.86 475.72,-346.86 475.72,-346.86 469.72,-346.86 463.72,-340.86 463.72,-334.86 463.72,-334.86 463.72,-244.91 463.72,-244.91 463.72,-238.91 469.72,-232.91 475.72,-232.91"/>
<text text-anchor="middle" x="684.72" y="-240.71" font-family="Times,serif" font-size="14.00">85</text>
</g>
<g id="clust2" class="cluster">
<title>cluster919</title>
<path fill="none" stroke="black" d="M185.72,-8C185.72,-8 378.72,-8 378.72,-8 384.72,-8 390.72,-14 390.72,-20 390.72,-20 390.72,-209.93 390.72,-209.93 390.72,-215.93 384.72,-221.93 378.72,-221.93 378.72,-221.93 185.72,-221.93 185.72,-221.93 179.72,-221.93 173.72,-215.93 173.72,-209.93 173.72,-209.93 173.72,-20 173.72,-20 173.72,-14 179.72,-8 185.72,-8"/>
<text text-anchor="middle" x="372.22" y="-15.8" font-family="Times,serif" font-size="14.00">919</text>
</g>
<!-- a -->
<g id="node1" class="node">
<title>a</title>
<ellipse fill="none" stroke="black" cx="41.72" cy="-301.38" rx="41.94" ry="37.45"/>
<text text-anchor="middle" x="41.72" y="-312.68" font-family="Times,serif" font-size="14.00">a</text>
<text text-anchor="middle" x="41.72" y="-297.68" font-family="Times,serif" font-size="14.00">~</text>
<text text-anchor="middle" x="41.72" y="-282.68" font-family="Times,serif" font-size="14.00">Normal</text>
</g>
<!-- aa -->
<g id="node8" class="node">
<title>aa</title>
<polygon fill="none" stroke="black" points="273.22,-213.93 182.22,-213.93 182.22,-160.93 273.22,-160.93 273.22,-213.93"/>
<text text-anchor="middle" x="227.72" y="-198.73" font-family="Times,serif" font-size="14.00">aa</text>
<text text-anchor="middle" x="227.72" y="-183.73" font-family="Times,serif" font-size="14.00">~</text>
<text text-anchor="middle" x="227.72" y="-168.73" font-family="Times,serif" font-size="14.00">Deterministic</text>
</g>
<!-- a&#45;&gt;aa -->
<g id="edge1" class="edge">
<title>a&#45;&gt;aa</title>
<path fill="none" stroke="black" d="M60.45,-267.71C68.93,-255.34 79.94,-242.05 92.72,-232.91 116.11,-216.18 146.18,-205.46 172,-198.75"/>
<polygon fill="black" stroke="black" points="173.15,-202.07 182.03,-196.29 171.48,-195.27 173.15,-202.07"/>
</g>
<!-- sigma_a -->
<g id="node2" class="node">
<title>sigma_a</title>
<ellipse fill="none" stroke="black" cx="159.72" cy="-301.38" rx="57.97" ry="37.45"/>
<text text-anchor="middle" x="159.72" y="-312.68" font-family="Times,serif" font-size="14.00">sigma_a</text>
<text text-anchor="middle" x="159.72" y="-297.68" font-family="Times,serif" font-size="14.00">~</text>
<text text-anchor="middle" x="159.72" y="-282.68" font-family="Times,serif" font-size="14.00">Exponential</text>
</g>
<!-- sigma_a&#45;&gt;aa -->
<g id="edge2" class="edge">
<title>sigma_a&#45;&gt;aa</title>
<path fill="none" stroke="black" d="M180.49,-266.19C188.82,-252.47 198.41,-236.69 206.76,-222.94"/>
<polygon fill="black" stroke="black" points="209.84,-224.61 212.04,-214.25 203.86,-220.98 209.84,-224.61"/>
</g>
<!-- sigma -->
<g id="node3" class="node">
<title>sigma</title>
<ellipse fill="none" stroke="black" cx="457.72" cy="-187.43" rx="57.97" ry="37.45"/>
<text text-anchor="middle" x="457.72" y="-198.73" font-family="Times,serif" font-size="14.00">sigma</text>
<text text-anchor="middle" x="457.72" y="-183.73" font-family="Times,serif" font-size="14.00">~</text>
<text text-anchor="middle" x="457.72" y="-168.73" font-family="Times,serif" font-size="14.00">Exponential</text>
</g>
<!-- y -->
<g id="node10" class="node">
<title>y</title>
<ellipse fill="lightgrey" stroke="black" cx="336.72" cy="-76.48" rx="41.94" ry="37.45"/>
<text text-anchor="middle" x="336.72" y="-87.78" font-family="Times,serif" font-size="14.00">y</text>
<text text-anchor="middle" x="336.72" y="-72.78" font-family="Times,serif" font-size="14.00">~</text>
<text text-anchor="middle" x="336.72" y="-57.78" font-family="Times,serif" font-size="14.00">Normal</text>
</g>
<!-- sigma&#45;&gt;y -->
<g id="edge9" class="edge">
<title>sigma&#45;&gt;y</title>
<path fill="none" stroke="black" d="M424.34,-156.37C408.59,-142.19 389.74,-125.22 373.58,-110.66"/>
<polygon fill="black" stroke="black" points="375.65,-107.82 365.88,-103.73 370.97,-113.03 375.65,-107.82"/>
</g>
<!-- b -->
<g id="node4" class="node">
<title>b</title>
<ellipse fill="none" stroke="black" cx="277.72" cy="-301.38" rx="41.94" ry="37.45"/>
<text text-anchor="middle" x="277.72" y="-312.68" font-family="Times,serif" font-size="14.00">b</text>
<text text-anchor="middle" x="277.72" y="-297.68" font-family="Times,serif" font-size="14.00">~</text>
<text text-anchor="middle" x="277.72" y="-282.68" font-family="Times,serif" font-size="14.00">Normal</text>
</g>
<!-- bb -->
<g id="node9" class="node">
<title>bb</title>
<polygon fill="none" stroke="black" points="382.22,-213.93 291.22,-213.93 291.22,-160.93 382.22,-160.93 382.22,-213.93"/>
<text text-anchor="middle" x="336.72" y="-198.73" font-family="Times,serif" font-size="14.00">bb</text>
<text text-anchor="middle" x="336.72" y="-183.73" font-family="Times,serif" font-size="14.00">~</text>
<text text-anchor="middle" x="336.72" y="-168.73" font-family="Times,serif" font-size="14.00">Deterministic</text>
</g>
<!-- b&#45;&gt;bb -->
<g id="edge4" class="edge">
<title>b&#45;&gt;bb</title>
<path fill="none" stroke="black" d="M295.26,-267.1C302.62,-253.14 311.17,-236.91 318.59,-222.84"/>
<polygon fill="black" stroke="black" points="321.71,-224.42 323.27,-213.94 315.51,-221.16 321.71,-224.42"/>
</g>
<!-- sigma_b -->
<g id="node5" class="node">
<title>sigma_b</title>
<ellipse fill="none" stroke="black" cx="395.72" cy="-301.38" rx="57.97" ry="37.45"/>
<text text-anchor="middle" x="395.72" y="-312.68" font-family="Times,serif" font-size="14.00">sigma_b</text>
<text text-anchor="middle" x="395.72" y="-297.68" font-family="Times,serif" font-size="14.00">~</text>
<text text-anchor="middle" x="395.72" y="-282.68" font-family="Times,serif" font-size="14.00">Exponential</text>
</g>
<!-- sigma_b&#45;&gt;bb -->
<g id="edge5" class="edge">
<title>sigma_b&#45;&gt;bb</title>
<path fill="none" stroke="black" d="M377.37,-265.57C370.23,-252.01 362.06,-236.51 354.93,-222.98"/>
<polygon fill="black" stroke="black" points="357.94,-221.18 350.18,-213.97 351.74,-224.45 357.94,-221.18"/>
</g>
<!-- zb_mouse -->
<g id="node6" class="node">
<title>zb_mouse</title>
<ellipse fill="none" stroke="black" cx="640.72" cy="-301.38" rx="50.82" ry="37.45"/>
<text text-anchor="middle" x="640.72" y="-312.68" font-family="Times,serif" font-size="14.00">zb_mouse</text>
<text text-anchor="middle" x="640.72" y="-297.68" font-family="Times,serif" font-size="14.00">~</text>
<text text-anchor="middle" x="640.72" y="-282.68" font-family="Times,serif" font-size="14.00">Normal</text>
</g>
<!-- zb_mouse&#45;&gt;bb -->
<g id="edge6" class="edge">
<title>zb_mouse&#45;&gt;bb</title>
<path fill="none" stroke="black" d="M619.91,-267.14C609.81,-254.04 596.44,-240.37 580.72,-232.91 542.54,-214.79 430.86,-238.12 390.72,-224.91 386.19,-223.42 381.69,-221.43 377.33,-219.14"/>
<polygon fill="black" stroke="black" points="379.02,-216.08 368.61,-214.11 375.52,-222.14 379.02,-216.08"/>
</g>
<!-- za_mouse -->
<g id="node7" class="node">
<title>za_mouse</title>
<ellipse fill="none" stroke="black" cx="521.72" cy="-301.38" rx="50.41" ry="37.45"/>
<text text-anchor="middle" x="521.72" y="-312.68" font-family="Times,serif" font-size="14.00">za_mouse</text>
<text text-anchor="middle" x="521.72" y="-297.68" font-family="Times,serif" font-size="14.00">~</text>
<text text-anchor="middle" x="521.72" y="-282.68" font-family="Times,serif" font-size="14.00">Normal</text>
</g>
<!-- za_mouse&#45;&gt;aa -->
<g id="edge3" class="edge">
<title>za_mouse&#45;&gt;aa</title>
<path fill="none" stroke="black" d="M501.09,-266.82C491.21,-253.83 478.14,-240.33 462.72,-232.91 426.64,-215.55 320.79,-237.31 282.72,-224.91 278.13,-223.41 273.56,-221.42 269.12,-219.13"/>
<polygon fill="black" stroke="black" points="270.68,-215.99 260.26,-214.1 267.22,-222.08 270.68,-215.99"/>
</g>
<!-- aa&#45;&gt;y -->
<g id="edge7" class="edge">
<title>aa&#45;&gt;y</title>
<path fill="none" stroke="black" d="M253.27,-160.89C267.66,-146.51 285.83,-128.34 301.54,-112.64"/>
<polygon fill="black" stroke="black" points="304.43,-114.7 309.03,-105.15 299.49,-109.75 304.43,-114.7"/>
</g>
<!-- bb&#45;&gt;y -->
<g id="edge8" class="edge">
<title>bb&#45;&gt;y</title>
<path fill="none" stroke="black" d="M336.72,-160.89C336.72,-149.98 336.72,-136.89 336.72,-124.35"/>
<polygon fill="black" stroke="black" points="340.22,-124 336.72,-114 333.22,-124 340.22,-124"/>
</g>
</g>
</svg>
