<?xml version="1.0" encoding="UTF-8" standalone="no"?>
<!DOCTYPE svg PUBLIC "-//W3C//DTD SVG 1.1//EN"
 "http://www.w3.org/Graphics/SVG/1.1/DTD/svg11.dtd">
<!-- Generated by graphviz version 2.43.0 (0)
 -->
<!-- Title: %3 Pages: 1 -->
<svg width="463pt" height="355pt"
 viewBox="0.00 0.00 462.70 354.86" xmlns="http://www.w3.org/2000/svg" xmlns:xlink="http://www.w3.org/1999/xlink">
<g id="graph0" class="graph" transform="scale(1 1) rotate(0) translate(4 350.86)">
<title>%3</title>
<polygon fill="white" stroke="transparent" points="-4,4 -4,-350.86 458.7,-350.86 458.7,4 -4,4"/>
<g id="clust1" class="cluster">
<title>cluster85</title>
<path fill="none" stroke="black" d="M120.72,-129.95C120.72,-129.95 316.72,-129.95 316.72,-129.95 322.72,-129.95 328.72,-135.95 328.72,-141.95 328.72,-141.95 328.72,-231.91 328.72,-231.91 328.72,-237.91 322.72,-243.91 316.72,-243.91 316.72,-243.91 120.72,-243.91 120.72,-243.91 114.72,-243.91 108.72,-237.91 108.72,-231.91 108.72,-231.91 108.72,-141.95 108.72,-141.95 108.72,-135.95 114.72,-129.95 120.72,-129.95"/>
<text text-anchor="middle" x="313.72" y="-137.75" font-family="Times,serif" font-size="14.00">85</text>
</g>
<g id="clust2" class="cluster">
<title>cluster919</title>
<path fill="none" stroke="black" d="M235.72,-8C235.72,-8 311.72,-8 311.72,-8 317.72,-8 323.72,-14 323.72,-20 323.72,-20 323.72,-109.95 323.72,-109.95 323.72,-115.95 317.72,-121.95 311.72,-121.95 311.72,-121.95 235.72,-121.95 235.72,-121.95 229.72,-121.95 223.72,-115.95 223.72,-109.95 223.72,-109.95 223.72,-20 223.72,-20 223.72,-14 229.72,-8 235.72,-8"/>
<text text-anchor="middle" x="305.22" y="-15.8" font-family="Times,serif" font-size="14.00">919</text>
</g>
<!-- a -->
<g id="node1" class="node">
<title>a</title>
<ellipse fill="none" stroke="black" cx="41.72" cy="-309.38" rx="41.94" ry="37.45"/>
<text text-anchor="middle" x="41.72" y="-320.68" font-family="Times,serif" font-size="14.00">a</text>
<text text-anchor="middle" x="41.72" y="-305.68" font-family="Times,serif" font-size="14.00">~</text>
<text text-anchor="middle" x="41.72" y="-290.68" font-family="Times,serif" font-size="14.00">Normal</text>
</g>
<!-- a_mouse -->
<g id="node6" class="node">
<title>a_mouse</title>
<ellipse fill="none" stroke="black" cx="162.72" cy="-198.43" rx="45.92" ry="37.45"/>
<text text-anchor="middle" x="162.72" y="-209.73" font-family="Times,serif" font-size="14.00">a_mouse</text>
<text text-anchor="middle" x="162.72" y="-194.73" font-family="Times,serif" font-size="14.00">~</text>
<text text-anchor="middle" x="162.72" y="-179.73" font-family="Times,serif" font-size="14.00">Normal</text>
</g>
<!-- a&#45;&gt;a_mouse -->
<g id="edge1" class="edge">
<title>a&#45;&gt;a_mouse</title>
<path fill="none" stroke="black" d="M70.7,-282.29C86.83,-267.76 107.1,-249.51 124.51,-233.83"/>
<polygon fill="black" stroke="black" points="127.2,-236.13 132.28,-226.83 122.51,-230.93 127.2,-236.13"/>
</g>
<!-- sigma_a -->
<g id="node2" class="node">
<title>sigma_a</title>
<ellipse fill="none" stroke="black" cx="159.72" cy="-309.38" rx="57.97" ry="37.45"/>
<text text-anchor="middle" x="159.72" y="-320.68" font-family="Times,serif" font-size="14.00">sigma_a</text>
<text text-anchor="middle" x="159.72" y="-305.68" font-family="Times,serif" font-size="14.00">~</text>
<text text-anchor="middle" x="159.72" y="-290.68" font-family="Times,serif" font-size="14.00">Exponential</text>
</g>
<!-- sigma_a&#45;&gt;a_mouse -->
<g id="edge2" class="edge">
<title>sigma_a&#45;&gt;a_mouse</title>
<path fill="none" stroke="black" d="M160.73,-271.8C160.95,-263.63 161.19,-254.85 161.43,-246.32"/>
<polygon fill="black" stroke="black" points="164.93,-246.19 161.71,-236.1 157.94,-246 164.93,-246.19"/>
</g>
<!-- sigma -->
<g id="node3" class="node">
<title>sigma</title>
<ellipse fill="none" stroke="black" cx="396.72" cy="-198.43" rx="57.97" ry="37.45"/>
<text text-anchor="middle" x="396.72" y="-209.73" font-family="Times,serif" font-size="14.00">sigma</text>
<text text-anchor="middle" x="396.72" y="-194.73" font-family="Times,serif" font-size="14.00">~</text>
<text text-anchor="middle" x="396.72" y="-179.73" font-family="Times,serif" font-size="14.00">Exponential</text>
</g>
<!-- y -->
<g id="node8" class="node">
<title>y</title>
<ellipse fill="lightgrey" stroke="black" cx="273.72" cy="-76.48" rx="41.94" ry="37.45"/>
<text text-anchor="middle" x="273.72" y="-87.78" font-family="Times,serif" font-size="14.00">y</text>
<text text-anchor="middle" x="273.72" y="-72.78" font-family="Times,serif" font-size="14.00">~</text>
<text text-anchor="middle" x="273.72" y="-57.78" font-family="Times,serif" font-size="14.00">Normal</text>
</g>
<!-- sigma&#45;&gt;y -->
<g id="edge7" class="edge">
<title>sigma&#45;&gt;y</title>
<path fill="none" stroke="black" d="M367.63,-165.65C356.87,-154.19 344.43,-141.3 332.72,-129.95 325.92,-123.37 318.5,-116.52 311.28,-110.03"/>
<polygon fill="black" stroke="black" points="313.37,-107.2 303.58,-103.15 308.71,-112.42 313.37,-107.2"/>
</g>
<!-- b -->
<g id="node4" class="node">
<title>b</title>
<ellipse fill="none" stroke="black" cx="277.72" cy="-309.38" rx="41.94" ry="37.45"/>
<text text-anchor="middle" x="277.72" y="-320.68" font-family="Times,serif" font-size="14.00">b</text>
<text text-anchor="middle" x="277.72" y="-305.68" font-family="Times,serif" font-size="14.00">~</text>
<text text-anchor="middle" x="277.72" y="-290.68" font-family="Times,serif" font-size="14.00">Normal</text>
</g>
<!-- b_mouse -->
<g id="node7" class="node">
<title>b_mouse</title>
<ellipse fill="none" stroke="black" cx="273.72" cy="-198.43" rx="46.84" ry="37.45"/>
<text text-anchor="middle" x="273.72" y="-209.73" font-family="Times,serif" font-size="14.00">b_mouse</text>
<text text-anchor="middle" x="273.72" y="-194.73" font-family="Times,serif" font-size="14.00">~</text>
<text text-anchor="middle" x="273.72" y="-179.73" font-family="Times,serif" font-size="14.00">Normal</text>
</g>
<!-- b&#45;&gt;b_mouse -->
<g id="edge3" class="edge">
<title>b&#45;&gt;b_mouse</title>
<path fill="none" stroke="black" d="M276.38,-271.8C276.08,-263.63 275.75,-254.85 275.44,-246.32"/>
<polygon fill="black" stroke="black" points="278.93,-245.97 275.07,-236.1 271.93,-246.22 278.93,-245.97"/>
</g>
<!-- sigma_b -->
<g id="node5" class="node">
<title>sigma_b</title>
<ellipse fill="none" stroke="black" cx="395.72" cy="-309.38" rx="57.97" ry="37.45"/>
<text text-anchor="middle" x="395.72" y="-320.68" font-family="Times,serif" font-size="14.00">sigma_b</text>
<text text-anchor="middle" x="395.72" y="-305.68" font-family="Times,serif" font-size="14.00">~</text>
<text text-anchor="middle" x="395.72" y="-290.68" font-family="Times,serif" font-size="14.00">Exponential</text>
</g>
<!-- sigma_b&#45;&gt;b_mouse -->
<g id="edge4" class="edge">
<title>sigma_b&#45;&gt;b_mouse</title>
<path fill="none" stroke="black" d="M362.38,-278.61C346.86,-264.75 328.31,-248.18 312.2,-233.79"/>
<polygon fill="black" stroke="black" points="314.3,-230.97 304.51,-226.92 309.63,-236.2 314.3,-230.97"/>
</g>
<!-- a_mouse&#45;&gt;y -->
<g id="edge5" class="edge">
<title>a_mouse&#45;&gt;y</title>
<path fill="none" stroke="black" d="M186.79,-166.13C196.12,-154.48 207.1,-141.33 217.72,-129.95 223.73,-123.51 230.37,-116.9 236.92,-110.63"/>
<polygon fill="black" stroke="black" points="239.64,-112.87 244.52,-103.46 234.84,-107.78 239.64,-112.87"/>
</g>
<!-- b_mouse&#45;&gt;y -->
<g id="edge6" class="edge">
<title>b_mouse&#45;&gt;y</title>
<path fill="none" stroke="black" d="M273.72,-160.79C273.72,-149.38 273.72,-136.65 273.72,-124.63"/>
<polygon fill="black" stroke="black" points="277.22,-124.31 273.72,-114.31 270.22,-124.31 277.22,-124.31"/>
</g>
</g>
</svg>
