<?xml version="1.0" encoding="UTF-8" standalone="no"?>
<!DOCTYPE svg PUBLIC "-//W3C//DTD SVG 1.1//EN"
 "http://www.w3.org/Graphics/SVG/1.1/DTD/svg11.dtd">
<!-- Generated by graphviz version 2.43.0 (0)
 -->
<!-- Title: %3 Pages: 1 -->
<svg width="462pt" height="355pt"
 viewBox="0.00 0.00 461.99 354.86" xmlns="http://www.w3.org/2000/svg" xmlns:xlink="http://www.w3.org/1999/xlink">
<g id="graph0" class="graph" transform="scale(1 1) rotate(0) translate(4 350.86)">
<title>%3</title>
<polygon fill="white" stroke="transparent" points="-4,4 -4,-350.86 457.99,-350.86 457.99,4 -4,4"/>
<g id="clust1" class="cluster">
<title>cluster85</title>
<path fill="none" stroke="black" d="M283.5,-129.95C283.5,-129.95 385.5,-129.95 385.5,-129.95 391.5,-129.95 397.5,-135.95 397.5,-141.95 397.5,-141.95 397.5,-231.91 397.5,-231.91 397.5,-237.91 391.5,-243.91 385.5,-243.91 385.5,-243.91 283.5,-243.91 283.5,-243.91 277.5,-243.91 271.5,-237.91 271.5,-231.91 271.5,-231.91 271.5,-141.95 271.5,-141.95 271.5,-135.95 277.5,-129.95 283.5,-129.95"/>
<text text-anchor="middle" x="380" y="-137.75" font-family="Times,serif" font-size="14.00">85</text>
</g>
<g id="clust2" class="cluster">
<title>cluster919</title>
<path fill="none" stroke="black" d="M144.5,-8C144.5,-8 234.5,-8 234.5,-8 240.5,-8 246.5,-14 246.5,-20 246.5,-20 246.5,-109.95 246.5,-109.95 246.5,-115.95 240.5,-121.95 234.5,-121.95 234.5,-121.95 144.5,-121.95 144.5,-121.95 138.5,-121.95 132.5,-115.95 132.5,-109.95 132.5,-109.95 132.5,-20 132.5,-20 132.5,-14 138.5,-8 144.5,-8"/>
<text text-anchor="middle" x="224.5" y="-15.8" font-family="Times,serif" font-size="14.00">919</text>
</g>
<!-- b -->
<g id="node1" class="node">
<title>b</title>
<ellipse fill="none" stroke="black" cx="49.5" cy="-198.43" rx="49.49" ry="37.45"/>
<text text-anchor="middle" x="49.5" y="-209.73" font-family="Times,serif" font-size="14.00">b</text>
<text text-anchor="middle" x="49.5" y="-194.73" font-family="Times,serif" font-size="14.00">~</text>
<text text-anchor="middle" x="49.5" y="-179.73" font-family="Times,serif" font-size="14.00">Normal</text>
</g>
<!-- y -->
<g id="node6" class="node">
<title>y</title>
<ellipse fill="lightgrey" stroke="black" cx="189.5" cy="-76.48" rx="49.49" ry="37.45"/>
<text text-anchor="middle" x="189.5" y="-87.78" font-family="Times,serif" font-size="14.00">y</text>
<text text-anchor="middle" x="189.5" y="-72.78" font-family="Times,serif" font-size="14.00">~</text>
<text text-anchor="middle" x="189.5" y="-57.78" font-family="Times,serif" font-size="14.00">Normal</text>
</g>
<!-- b&#45;&gt;y -->
<g id="edge3" class="edge">
<title>b&#45;&gt;y</title>
<path fill="none" stroke="black" d="M74.26,-165.52C84.23,-153.67 96.26,-140.55 108.5,-129.95 118.69,-121.13 130.48,-112.66 141.86,-105.21"/>
<polygon fill="black" stroke="black" points="143.91,-108.05 150.44,-99.71 140.13,-102.15 143.91,-108.05"/>
</g>
<!-- sigma_a -->
<g id="node2" class="node">
<title>sigma_a</title>
<ellipse fill="none" stroke="black" cx="264.5" cy="-309.38" rx="72.25" ry="37.45"/>
<text text-anchor="middle" x="264.5" y="-320.68" font-family="Times,serif" font-size="14.00">sigma_a</text>
<text text-anchor="middle" x="264.5" y="-305.68" font-family="Times,serif" font-size="14.00">~</text>
<text text-anchor="middle" x="264.5" y="-290.68" font-family="Times,serif" font-size="14.00">Exponential</text>
</g>
<!-- a_mouse -->
<g id="node5" class="node">
<title>a_mouse</title>
<ellipse fill="none" stroke="black" cx="334.5" cy="-198.43" rx="55.31" ry="37.45"/>
<text text-anchor="middle" x="334.5" y="-209.73" font-family="Times,serif" font-size="14.00">a_mouse</text>
<text text-anchor="middle" x="334.5" y="-194.73" font-family="Times,serif" font-size="14.00">~</text>
<text text-anchor="middle" x="334.5" y="-179.73" font-family="Times,serif" font-size="14.00">Normal</text>
</g>
<!-- sigma_a&#45;&gt;a_mouse -->
<g id="edge1" class="edge">
<title>sigma_a&#45;&gt;a_mouse</title>
<path fill="none" stroke="black" d="M286.84,-273.61C293.34,-263.49 300.52,-252.32 307.28,-241.79"/>
<polygon fill="black" stroke="black" points="310.39,-243.43 312.85,-233.13 304.5,-239.65 310.39,-243.43"/>
</g>
<!-- sigma -->
<g id="node3" class="node">
<title>sigma</title>
<ellipse fill="none" stroke="black" cx="189.5" cy="-198.43" rx="72.25" ry="37.45"/>
<text text-anchor="middle" x="189.5" y="-209.73" font-family="Times,serif" font-size="14.00">sigma</text>
<text text-anchor="middle" x="189.5" y="-194.73" font-family="Times,serif" font-size="14.00">~</text>
<text text-anchor="middle" x="189.5" y="-179.73" font-family="Times,serif" font-size="14.00">Exponential</text>
</g>
<!-- sigma&#45;&gt;y -->
<g id="edge5" class="edge">
<title>sigma&#45;&gt;y</title>
<path fill="none" stroke="black" d="M189.5,-160.79C189.5,-149.38 189.5,-136.65 189.5,-124.63"/>
<polygon fill="black" stroke="black" points="193,-124.31 189.5,-114.31 186,-124.31 193,-124.31"/>
</g>
<!-- a -->
<g id="node4" class="node">
<title>a</title>
<ellipse fill="none" stroke="black" cx="404.5" cy="-309.38" rx="49.49" ry="37.45"/>
<text text-anchor="middle" x="404.5" y="-320.68" font-family="Times,serif" font-size="14.00">a</text>
<text text-anchor="middle" x="404.5" y="-305.68" font-family="Times,serif" font-size="14.00">~</text>
<text text-anchor="middle" x="404.5" y="-290.68" font-family="Times,serif" font-size="14.00">Normal</text>
</g>
<!-- a&#45;&gt;a_mouse -->
<g id="edge2" class="edge">
<title>a&#45;&gt;a_mouse</title>
<path fill="none" stroke="black" d="M383.31,-275.4C376.44,-264.72 368.74,-252.72 361.51,-241.48"/>
<polygon fill="black" stroke="black" points="364.45,-239.58 356.1,-233.06 358.56,-243.36 364.45,-239.58"/>
</g>
<!-- a_mouse&#45;&gt;y -->
<g id="edge4" class="edge">
<title>a_mouse&#45;&gt;y</title>
<path fill="none" stroke="black" d="M307.26,-165.66C296.4,-153.83 283.41,-140.69 270.5,-129.95 260.13,-121.33 248.27,-112.95 236.89,-105.5"/>
<polygon fill="black" stroke="black" points="238.61,-102.45 228.31,-100 234.84,-108.34 238.61,-102.45"/>
</g>
</g>
</svg>
