<?xml version="1.0" encoding="UTF-8" standalone="no"?>
<!DOCTYPE svg PUBLIC "-//W3C//DTD SVG 1.1//EN"
 "http://www.w3.org/Graphics/SVG/1.1/DTD/svg11.dtd">
<!-- Generated by graphviz version 2.43.0 (0)
 -->
<!-- Title: %3 Pages: 1 -->
<svg width="1007pt" height="260pt"
 viewBox="0.00 0.00 1007.12 259.91" xmlns="http://www.w3.org/2000/svg" xmlns:xlink="http://www.w3.org/1999/xlink">
<g id="graph0" class="graph" transform="scale(1 1) rotate(0) translate(4 255.91)">
<title>%3</title>
<polygon fill="white" stroke="transparent" points="-4,4 -4,-255.91 1003.12,-255.91 1003.12,4 -4,4"/>
<g id="clust1" class="cluster">
<title>cluster85</title>
<path fill="none" stroke="black" d="M725.12,-129.95C725.12,-129.95 979.12,-129.95 979.12,-129.95 985.12,-129.95 991.12,-135.95 991.12,-141.95 991.12,-141.95 991.12,-231.91 991.12,-231.91 991.12,-237.91 985.12,-243.91 979.12,-243.91 979.12,-243.91 725.12,-243.91 725.12,-243.91 719.12,-243.91 713.12,-237.91 713.12,-231.91 713.12,-231.91 713.12,-141.95 713.12,-141.95 713.12,-135.95 719.12,-129.95 725.12,-129.95"/>
<text text-anchor="middle" x="973.62" y="-137.75" font-family="Times,serif" font-size="14.00">85</text>
</g>
<g id="clust2" class="cluster">
<title>cluster919</title>
<path fill="none" stroke="black" d="M424.12,-8C424.12,-8 514.12,-8 514.12,-8 520.12,-8 526.12,-14 526.12,-20 526.12,-20 526.12,-109.95 526.12,-109.95 526.12,-115.95 520.12,-121.95 514.12,-121.95 514.12,-121.95 424.12,-121.95 424.12,-121.95 418.12,-121.95 412.12,-115.95 412.12,-109.95 412.12,-109.95 412.12,-20 412.12,-20 412.12,-14 418.12,-8 424.12,-8"/>
<text text-anchor="middle" x="504.12" y="-15.8" font-family="Times,serif" font-size="14.00">919</text>
</g>
<!-- sigma -->
<g id="node1" class="node">
<title>sigma</title>
<ellipse fill="none" stroke="black" cx="72.12" cy="-198.43" rx="72.25" ry="37.45"/>
<text text-anchor="middle" x="72.12" y="-209.73" font-family="Times,serif" font-size="14.00">sigma</text>
<text text-anchor="middle" x="72.12" y="-194.73" font-family="Times,serif" font-size="14.00">~</text>
<text text-anchor="middle" x="72.12" y="-179.73" font-family="Times,serif" font-size="14.00">Exponential</text>
</g>
<!-- y -->
<g id="node8" class="node">
<title>y</title>
<ellipse fill="lightgrey" stroke="black" cx="469.12" cy="-76.48" rx="49.49" ry="37.45"/>
<text text-anchor="middle" x="469.12" y="-87.78" font-family="Times,serif" font-size="14.00">y</text>
<text text-anchor="middle" x="469.12" y="-72.78" font-family="Times,serif" font-size="14.00">~</text>
<text text-anchor="middle" x="469.12" y="-57.78" font-family="Times,serif" font-size="14.00">Normal</text>
</g>
<!-- sigma&#45;&gt;y -->
<g id="edge2" class="edge">
<title>sigma&#45;&gt;y</title>
<path fill="none" stroke="black" d="M104.09,-164.46C118.25,-151.74 135.83,-138.27 154.12,-129.95 237.36,-92.1 344.09,-81.24 409.49,-78.3"/>
<polygon fill="black" stroke="black" points="409.77,-81.8 419.63,-77.9 409.49,-74.8 409.77,-81.8"/>
</g>
<!-- a -->
<g id="node2" class="node">
<title>a</title>
<ellipse fill="none" stroke="black" cx="212.12" cy="-198.43" rx="49.49" ry="37.45"/>
<text text-anchor="middle" x="212.12" y="-209.73" font-family="Times,serif" font-size="14.00">a</text>
<text text-anchor="middle" x="212.12" y="-194.73" font-family="Times,serif" font-size="14.00">~</text>
<text text-anchor="middle" x="212.12" y="-179.73" font-family="Times,serif" font-size="14.00">Normal</text>
</g>
<!-- a&#45;&gt;y -->
<g id="edge4" class="edge">
<title>a&#45;&gt;y</title>
<path fill="none" stroke="black" d="M234.17,-164.74C244.12,-152.21 256.85,-138.82 271.12,-129.95 313.41,-103.7 368.64,-90.46 410.02,-83.86"/>
<polygon fill="black" stroke="black" points="410.6,-87.32 419.96,-82.36 409.55,-80.4 410.6,-87.32"/>
</g>
<!-- b -->
<g id="node3" class="node">
<title>b</title>
<ellipse fill="none" stroke="black" cx="329.12" cy="-198.43" rx="49.49" ry="37.45"/>
<text text-anchor="middle" x="329.12" y="-209.73" font-family="Times,serif" font-size="14.00">b</text>
<text text-anchor="middle" x="329.12" y="-194.73" font-family="Times,serif" font-size="14.00">~</text>
<text text-anchor="middle" x="329.12" y="-179.73" font-family="Times,serif" font-size="14.00">Normal</text>
</g>
<!-- b&#45;&gt;y -->
<g id="edge5" class="edge">
<title>b&#45;&gt;y</title>
<path fill="none" stroke="black" d="M353.88,-165.52C363.86,-153.67 375.89,-140.55 388.12,-129.95 398.32,-121.13 410.11,-112.66 421.49,-105.21"/>
<polygon fill="black" stroke="black" points="423.54,-108.05 430.07,-99.71 419.76,-102.15 423.54,-108.05"/>
</g>
<!-- sigma_a -->
<g id="node4" class="node">
<title>sigma_a</title>
<ellipse fill="none" stroke="black" cx="469.12" cy="-198.43" rx="72.25" ry="37.45"/>
<text text-anchor="middle" x="469.12" y="-209.73" font-family="Times,serif" font-size="14.00">sigma_a</text>
<text text-anchor="middle" x="469.12" y="-194.73" font-family="Times,serif" font-size="14.00">~</text>
<text text-anchor="middle" x="469.12" y="-179.73" font-family="Times,serif" font-size="14.00">Exponential</text>
</g>
<!-- sigma_a&#45;&gt;y -->
<g id="edge6" class="edge">
<title>sigma_a&#45;&gt;y</title>
<path fill="none" stroke="black" d="M469.12,-160.79C469.12,-149.38 469.12,-136.65 469.12,-124.63"/>
<polygon fill="black" stroke="black" points="472.62,-124.31 469.12,-114.31 465.62,-124.31 472.62,-124.31"/>
</g>
<!-- sigma_b -->
<g id="node5" class="node">
<title>sigma_b</title>
<ellipse fill="none" stroke="black" cx="631.12" cy="-198.43" rx="72.25" ry="37.45"/>
<text text-anchor="middle" x="631.12" y="-209.73" font-family="Times,serif" font-size="14.00">sigma_b</text>
<text text-anchor="middle" x="631.12" y="-194.73" font-family="Times,serif" font-size="14.00">~</text>
<text text-anchor="middle" x="631.12" y="-179.73" font-family="Times,serif" font-size="14.00">Exponential</text>
</g>
<!-- sigma_b&#45;&gt;y -->
<g id="edge7" class="edge">
<title>sigma_b&#45;&gt;y</title>
<path fill="none" stroke="black" d="M595.18,-165.91C581.38,-154.24 565.31,-141.13 550.12,-129.95 539.27,-121.96 527.23,-113.8 515.83,-106.38"/>
<polygon fill="black" stroke="black" points="517.56,-103.33 507.26,-100.86 513.77,-109.22 517.56,-103.33"/>
</g>
<!-- zb_mouse -->
<g id="node6" class="node">
<title>zb_mouse</title>
<ellipse fill="none" stroke="black" cx="922.12" cy="-198.43" rx="60.62" ry="37.45"/>
<text text-anchor="middle" x="922.12" y="-209.73" font-family="Times,serif" font-size="14.00">zb_mouse</text>
<text text-anchor="middle" x="922.12" y="-194.73" font-family="Times,serif" font-size="14.00">~</text>
<text text-anchor="middle" x="922.12" y="-179.73" font-family="Times,serif" font-size="14.00">Normal</text>
</g>
<!-- zb_mouse&#45;&gt;y -->
<g id="edge3" class="edge">
<title>zb_mouse&#45;&gt;y</title>
<path fill="none" stroke="black" d="M896.09,-164.53C884.1,-151.65 868.83,-138.06 852.12,-129.95 796.32,-102.89 621.46,-87.55 528.54,-81.11"/>
<polygon fill="black" stroke="black" points="528.66,-77.61 518.45,-80.43 528.19,-84.6 528.66,-77.61"/>
</g>
<!-- za_mouse -->
<g id="node7" class="node">
<title>za_mouse</title>
<ellipse fill="none" stroke="black" cx="782.12" cy="-198.43" rx="60.62" ry="37.45"/>
<text text-anchor="middle" x="782.12" y="-209.73" font-family="Times,serif" font-size="14.00">za_mouse</text>
<text text-anchor="middle" x="782.12" y="-194.73" font-family="Times,serif" font-size="14.00">~</text>
<text text-anchor="middle" x="782.12" y="-179.73" font-family="Times,serif" font-size="14.00">Normal</text>
</g>
<!-- za_mouse&#45;&gt;y -->
<g id="edge1" class="edge">
<title>za_mouse&#45;&gt;y</title>
<path fill="none" stroke="black" d="M755.12,-164.45C743.18,-151.88 728.21,-138.53 712.12,-129.95 654.4,-99.18 579.86,-86.45 528.64,-81.19"/>
<polygon fill="black" stroke="black" points="528.69,-77.67 518.4,-80.2 528.02,-84.64 528.69,-77.67"/>
</g>
</g>
</svg>
