<?xml version="1.0" encoding="UTF-8" standalone="no"?>
<!DOCTYPE svg PUBLIC "-//W3C//DTD SVG 1.1//EN"
 "http://www.w3.org/Graphics/SVG/1.1/DTD/svg11.dtd">
<!-- Generated by graphviz version 2.43.0 (0)
 -->
<!-- Title: %3 Pages: 1 -->
<svg width="285pt" height="260pt"
 viewBox="0.00 0.00 285.12 259.91" xmlns="http://www.w3.org/2000/svg" xmlns:xlink="http://www.w3.org/1999/xlink">
<g id="graph0" class="graph" transform="scale(1 1) rotate(0) translate(4 255.91)">
<title>%3</title>
<polygon fill="white" stroke="transparent" points="-4,4 -4,-255.91 281.12,-255.91 281.12,4 -4,4"/>
<g id="clust1" class="cluster">
<title>cluster2</title>
<path fill="none" stroke="black" d="M20,-129.95C20,-129.95 110,-129.95 110,-129.95 116,-129.95 122,-135.95 122,-141.95 122,-141.95 122,-231.91 122,-231.91 122,-237.91 116,-243.91 110,-243.91 110,-243.91 20,-243.91 20,-243.91 14,-243.91 8,-237.91 8,-231.91 8,-231.91 8,-141.95 8,-141.95 8,-135.95 14,-129.95 20,-129.95"/>
<text text-anchor="middle" x="109" y="-137.75" font-family="Times,serif" font-size="14.00">2</text>
</g>
<g id="clust2" class="cluster">
<title>cluster919</title>
<path fill="none" stroke="black" d="M20,-8C20,-8 110,-8 110,-8 116,-8 122,-14 122,-20 122,-20 122,-109.95 122,-109.95 122,-115.95 116,-121.95 110,-121.95 110,-121.95 20,-121.95 20,-121.95 14,-121.95 8,-115.95 8,-109.95 8,-109.95 8,-20 8,-20 8,-14 14,-8 20,-8"/>
<text text-anchor="middle" x="100" y="-15.8" font-family="Times,serif" font-size="14.00">919</text>
</g>
<!-- a -->
<g id="node1" class="node">
<title>a</title>
<ellipse fill="none" stroke="black" cx="65" cy="-198.43" rx="49.49" ry="37.45"/>
<text text-anchor="middle" x="65" y="-209.73" font-family="Times,serif" font-size="14.00">a</text>
<text text-anchor="middle" x="65" y="-194.73" font-family="Times,serif" font-size="14.00">~</text>
<text text-anchor="middle" x="65" y="-179.73" font-family="Times,serif" font-size="14.00">Normal</text>
</g>
<!-- y -->
<g id="node3" class="node">
<title>y</title>
<ellipse fill="lightgrey" stroke="black" cx="65" cy="-76.48" rx="49.49" ry="37.45"/>
<text text-anchor="middle" x="65" y="-87.78" font-family="Times,serif" font-size="14.00">y</text>
<text text-anchor="middle" x="65" y="-72.78" font-family="Times,serif" font-size="14.00">~</text>
<text text-anchor="middle" x="65" y="-57.78" font-family="Times,serif" font-size="14.00">Normal</text>
</g>
<!-- a&#45;&gt;y -->
<g id="edge2" class="edge">
<title>a&#45;&gt;y</title>
<path fill="none" stroke="black" d="M65,-160.79C65,-149.38 65,-136.65 65,-124.63"/>
<polygon fill="black" stroke="black" points="68.5,-124.31 65,-114.31 61.5,-124.31 68.5,-124.31"/>
</g>
<!-- sigma -->
<g id="node2" class="node">
<title>sigma</title>
<ellipse fill="none" stroke="black" cx="205" cy="-198.43" rx="72.25" ry="37.45"/>
<text text-anchor="middle" x="205" y="-209.73" font-family="Times,serif" font-size="14.00">sigma</text>
<text text-anchor="middle" x="205" y="-194.73" font-family="Times,serif" font-size="14.00">~</text>
<text text-anchor="middle" x="205" y="-179.73" font-family="Times,serif" font-size="14.00">Exponential</text>
</g>
<!-- sigma&#45;&gt;y -->
<g id="edge1" class="edge">
<title>sigma&#45;&gt;y</title>
<path fill="none" stroke="black" d="M168.22,-165.91C148.76,-149.25 124.85,-128.76 104.95,-111.7"/>
<polygon fill="black" stroke="black" points="107.12,-108.96 97.25,-105.11 102.57,-114.27 107.12,-108.96"/>
</g>
</g>
</svg>
