<?xml version="1.0" encoding="UTF-8" standalone="no"?>
<!DOCTYPE svg PUBLIC "-//W3C//DTD SVG 1.1//EN"
 "http://www.w3.org/Graphics/SVG/1.1/DTD/svg11.dtd">
<!-- Generated by graphviz version 2.43.0 (0)
 -->
<!-- Title: %3 Pages: 1 -->
<svg width="407pt" height="355pt"
 viewBox="0.00 0.00 406.70 354.86" xmlns="http://www.w3.org/2000/svg" xmlns:xlink="http://www.w3.org/1999/xlink">
<g id="graph0" class="graph" transform="scale(1 1) rotate(0) translate(4 350.86)">
<title>%3</title>
<polygon fill="white" stroke="transparent" points="-4,4 -4,-350.86 402.7,-350.86 402.7,4 -4,4"/>
<g id="clust1" class="cluster">
<title>cluster85</title>
<path fill="none" stroke="black" d="M239.72,-129.95C239.72,-129.95 323.72,-129.95 323.72,-129.95 329.72,-129.95 335.72,-135.95 335.72,-141.95 335.72,-141.95 335.72,-231.91 335.72,-231.91 335.72,-237.91 329.72,-243.91 323.72,-243.91 323.72,-243.91 239.72,-243.91 239.72,-243.91 233.72,-243.91 227.72,-237.91 227.72,-231.91 227.72,-231.91 227.72,-141.95 227.72,-141.95 227.72,-135.95 233.72,-129.95 239.72,-129.95"/>
<text text-anchor="middle" x="320.72" y="-137.75" font-family="Times,serif" font-size="14.00">85</text>
</g>
<g id="clust2" class="cluster">
<title>cluster919</title>
<path fill="none" stroke="black" d="M121.72,-8C121.72,-8 197.72,-8 197.72,-8 203.72,-8 209.72,-14 209.72,-20 209.72,-20 209.72,-109.95 209.72,-109.95 209.72,-115.95 203.72,-121.95 197.72,-121.95 197.72,-121.95 121.72,-121.95 121.72,-121.95 115.72,-121.95 109.72,-115.95 109.72,-109.95 109.72,-109.95 109.72,-20 109.72,-20 109.72,-14 115.72,-8 121.72,-8"/>
<text text-anchor="middle" x="191.22" y="-15.8" font-family="Times,serif" font-size="14.00">919</text>
</g>
<!-- b -->
<g id="node1" class="node">
<title>b</title>
<ellipse fill="none" stroke="black" cx="41.72" cy="-198.43" rx="41.94" ry="37.45"/>
<text text-anchor="middle" x="41.72" y="-209.73" font-family="Times,serif" font-size="14.00">b</text>
<text text-anchor="middle" x="41.72" y="-194.73" font-family="Times,serif" font-size="14.00">~</text>
<text text-anchor="middle" x="41.72" y="-179.73" font-family="Times,serif" font-size="14.00">Normal</text>
</g>
<!-- y -->
<g id="node6" class="node">
<title>y</title>
<ellipse fill="lightgrey" stroke="black" cx="159.72" cy="-76.48" rx="41.94" ry="37.45"/>
<text text-anchor="middle" x="159.72" y="-87.78" font-family="Times,serif" font-size="14.00">y</text>
<text text-anchor="middle" x="159.72" y="-72.78" font-family="Times,serif" font-size="14.00">~</text>
<text text-anchor="middle" x="159.72" y="-57.78" font-family="Times,serif" font-size="14.00">Normal</text>
</g>
<!-- b&#45;&gt;y -->
<g id="edge5" class="edge">
<title>b&#45;&gt;y</title>
<path fill="none" stroke="black" d="M62.98,-165.83C71.59,-154.02 82.01,-140.84 92.72,-129.95 100.81,-121.72 110.2,-113.63 119.35,-106.35"/>
<polygon fill="black" stroke="black" points="121.53,-109.09 127.28,-100.19 117.24,-103.56 121.53,-109.09"/>
</g>
<!-- sigma -->
<g id="node2" class="node">
<title>sigma</title>
<ellipse fill="none" stroke="black" cx="159.72" cy="-198.43" rx="57.97" ry="37.45"/>
<text text-anchor="middle" x="159.72" y="-209.73" font-family="Times,serif" font-size="14.00">sigma</text>
<text text-anchor="middle" x="159.72" y="-194.73" font-family="Times,serif" font-size="14.00">~</text>
<text text-anchor="middle" x="159.72" y="-179.73" font-family="Times,serif" font-size="14.00">Exponential</text>
</g>
<!-- sigma&#45;&gt;y -->
<g id="edge4" class="edge">
<title>sigma&#45;&gt;y</title>
<path fill="none" stroke="black" d="M159.72,-160.79C159.72,-149.38 159.72,-136.65 159.72,-124.63"/>
<polygon fill="black" stroke="black" points="163.22,-124.31 159.72,-114.31 156.22,-124.31 163.22,-124.31"/>
</g>
<!-- a -->
<g id="node3" class="node">
<title>a</title>
<ellipse fill="none" stroke="black" cx="222.72" cy="-309.38" rx="41.94" ry="37.45"/>
<text text-anchor="middle" x="222.72" y="-320.68" font-family="Times,serif" font-size="14.00">a</text>
<text text-anchor="middle" x="222.72" y="-305.68" font-family="Times,serif" font-size="14.00">~</text>
<text text-anchor="middle" x="222.72" y="-290.68" font-family="Times,serif" font-size="14.00">Normal</text>
</g>
<!-- a_mouse -->
<g id="node5" class="node">
<title>a_mouse</title>
<ellipse fill="none" stroke="black" cx="281.72" cy="-198.43" rx="45.92" ry="37.45"/>
<text text-anchor="middle" x="281.72" y="-209.73" font-family="Times,serif" font-size="14.00">a_mouse</text>
<text text-anchor="middle" x="281.72" y="-194.73" font-family="Times,serif" font-size="14.00">~</text>
<text text-anchor="middle" x="281.72" y="-179.73" font-family="Times,serif" font-size="14.00">Normal</text>
</g>
<!-- a&#45;&gt;a_mouse -->
<g id="edge1" class="edge">
<title>a&#45;&gt;a_mouse</title>
<path fill="none" stroke="black" d="M240.58,-275.4C246.25,-264.93 252.61,-253.19 258.59,-242.14"/>
<polygon fill="black" stroke="black" points="261.83,-243.52 263.51,-233.06 255.67,-240.18 261.83,-243.52"/>
</g>
<!-- sigma_a -->
<g id="node4" class="node">
<title>sigma_a</title>
<ellipse fill="none" stroke="black" cx="340.72" cy="-309.38" rx="57.97" ry="37.45"/>
<text text-anchor="middle" x="340.72" y="-320.68" font-family="Times,serif" font-size="14.00">sigma_a</text>
<text text-anchor="middle" x="340.72" y="-305.68" font-family="Times,serif" font-size="14.00">~</text>
<text text-anchor="middle" x="340.72" y="-290.68" font-family="Times,serif" font-size="14.00">Exponential</text>
</g>
<!-- sigma_a&#45;&gt;a_mouse -->
<g id="edge2" class="edge">
<title>sigma_a&#45;&gt;a_mouse</title>
<path fill="none" stroke="black" d="M321.89,-273.61C316.46,-263.59 310.48,-252.54 304.83,-242.11"/>
<polygon fill="black" stroke="black" points="307.81,-240.26 299.97,-233.13 301.65,-243.59 307.81,-240.26"/>
</g>
<!-- a_mouse&#45;&gt;y -->
<g id="edge3" class="edge">
<title>a_mouse&#45;&gt;y</title>
<path fill="none" stroke="black" d="M258.44,-165.95C249.12,-154.16 237.94,-140.96 226.72,-129.95 218.48,-121.87 209.03,-113.84 199.87,-106.57"/>
<polygon fill="black" stroke="black" points="201.99,-103.78 191.94,-100.4 197.69,-109.3 201.99,-103.78"/>
</g>
</g>
</svg>
