<?xml version="1.0" encoding="UTF-8" standalone="no"?>
<!DOCTYPE svg PUBLIC "-//W3C//DTD SVG 1.1//EN"
 "http://www.w3.org/Graphics/SVG/1.1/DTD/svg11.dtd">
<!-- Generated by graphviz version 2.43.0 (0)
 -->
<!-- Title: %3 Pages: 1 -->
<svg width="242pt" height="260pt"
 viewBox="0.00 0.00 241.98 259.91" xmlns="http://www.w3.org/2000/svg" xmlns:xlink="http://www.w3.org/1999/xlink">
<g id="graph0" class="graph" transform="scale(1 1) rotate(0) translate(4 255.91)">
<title>%3</title>
<polygon fill="white" stroke="transparent" points="-4,4 -4,-255.91 237.98,-255.91 237.98,4 -4,4"/>
<g id="clust1" class="cluster">
<title>cluster2</title>
<path fill="none" stroke="black" d="M20,-129.95C20,-129.95 96,-129.95 96,-129.95 102,-129.95 108,-135.95 108,-141.95 108,-141.95 108,-231.91 108,-231.91 108,-237.91 102,-243.91 96,-243.91 96,-243.91 20,-243.91 20,-243.91 14,-243.91 8,-237.91 8,-231.91 8,-231.91 8,-141.95 8,-141.95 8,-135.95 14,-129.95 20,-129.95"/>
<text text-anchor="middle" x="96.5" y="-137.75" font-family="Times,serif" font-size="14.00">2</text>
</g>
<g id="clust2" class="cluster">
<title>cluster919</title>
<path fill="none" stroke="black" d="M20,-8C20,-8 96,-8 96,-8 102,-8 108,-14 108,-20 108,-20 108,-109.95 108,-109.95 108,-115.95 102,-121.95 96,-121.95 96,-121.95 20,-121.95 20,-121.95 14,-121.95 8,-115.95 8,-109.95 8,-109.95 8,-20 8,-20 8,-14 14,-8 20,-8"/>
<text text-anchor="middle" x="89.5" y="-15.8" font-family="Times,serif" font-size="14.00">919</text>
</g>
<!-- a -->
<g id="node1" class="node">
<title>a</title>
<ellipse fill="none" stroke="black" cx="58" cy="-198.43" rx="41.94" ry="37.45"/>
<text text-anchor="middle" x="58" y="-209.73" font-family="Times,serif" font-size="14.00">a</text>
<text text-anchor="middle" x="58" y="-194.73" font-family="Times,serif" font-size="14.00">~</text>
<text text-anchor="middle" x="58" y="-179.73" font-family="Times,serif" font-size="14.00">Normal</text>
</g>
<!-- y -->
<g id="node3" class="node">
<title>y</title>
<ellipse fill="lightgrey" stroke="black" cx="58" cy="-76.48" rx="41.94" ry="37.45"/>
<text text-anchor="middle" x="58" y="-87.78" font-family="Times,serif" font-size="14.00">y</text>
<text text-anchor="middle" x="58" y="-72.78" font-family="Times,serif" font-size="14.00">~</text>
<text text-anchor="middle" x="58" y="-57.78" font-family="Times,serif" font-size="14.00">Normal</text>
</g>
<!-- a&#45;&gt;y -->
<g id="edge2" class="edge">
<title>a&#45;&gt;y</title>
<path fill="none" stroke="black" d="M58,-160.79C58,-149.38 58,-136.65 58,-124.63"/>
<polygon fill="black" stroke="black" points="61.5,-124.31 58,-114.31 54.5,-124.31 61.5,-124.31"/>
</g>
<!-- sigma -->
<g id="node2" class="node">
<title>sigma</title>
<ellipse fill="none" stroke="black" cx="176" cy="-198.43" rx="57.97" ry="37.45"/>
<text text-anchor="middle" x="176" y="-209.73" font-family="Times,serif" font-size="14.00">sigma</text>
<text text-anchor="middle" x="176" y="-194.73" font-family="Times,serif" font-size="14.00">~</text>
<text text-anchor="middle" x="176" y="-179.73" font-family="Times,serif" font-size="14.00">Exponential</text>
</g>
<!-- sigma&#45;&gt;y -->
<g id="edge1" class="edge">
<title>sigma&#45;&gt;y</title>
<path fill="none" stroke="black" d="M146.63,-165.93C135.84,-154.5 123.46,-141.55 112,-129.95 106.06,-123.94 99.67,-117.61 93.44,-111.52"/>
<polygon fill="black" stroke="black" points="95.84,-108.97 86.24,-104.5 90.96,-113.98 95.84,-108.97"/>
</g>
</g>
</svg>
