<?xml version="1.0" encoding="UTF-8" standalone="no"?>
<!DOCTYPE svg PUBLIC "-//W3C//DTD SVG 1.1//EN"
 "http://www.w3.org/Graphics/SVG/1.1/DTD/svg11.dtd">
<!-- Generated by graphviz version 2.43.0 (0)
 -->
<!-- Title: %3 Pages: 1 -->
<svg width="850pt" height="260pt"
 viewBox="0.00 0.00 849.72 259.91" xmlns="http://www.w3.org/2000/svg" xmlns:xlink="http://www.w3.org/1999/xlink">
<g id="graph0" class="graph" transform="scale(1 1) rotate(0) translate(4 255.91)">
<title>%3</title>
<polygon fill="white" stroke="transparent" points="-4,4 -4,-255.91 845.72,-255.91 845.72,4 -4,4"/>
<g id="clust1" class="cluster">
<title>cluster85</title>
<path fill="none" stroke="black" d="M609.72,-129.95C609.72,-129.95 821.72,-129.95 821.72,-129.95 827.72,-129.95 833.72,-135.95 833.72,-141.95 833.72,-141.95 833.72,-231.91 833.72,-231.91 833.72,-237.91 827.72,-243.91 821.72,-243.91 821.72,-243.91 609.72,-243.91 609.72,-243.91 603.72,-243.91 597.72,-237.91 597.72,-231.91 597.72,-231.91 597.72,-141.95 597.72,-141.95 597.72,-135.95 603.72,-129.95 609.72,-129.95"/>
<text text-anchor="middle" x="818.72" y="-137.75" font-family="Times,serif" font-size="14.00">85</text>
</g>
<g id="clust2" class="cluster">
<title>cluster919</title>
<path fill="none" stroke="black" d="M389.72,-8C389.72,-8 465.72,-8 465.72,-8 471.72,-8 477.72,-14 477.72,-20 477.72,-20 477.72,-109.95 477.72,-109.95 477.72,-115.95 471.72,-121.95 465.72,-121.95 465.72,-121.95 389.72,-121.95 389.72,-121.95 383.72,-121.95 377.72,-115.95 377.72,-109.95 377.72,-109.95 377.72,-20 377.72,-20 377.72,-14 383.72,-8 389.72,-8"/>
<text text-anchor="middle" x="459.22" y="-15.8" font-family="Times,serif" font-size="14.00">919</text>
</g>
<!-- a -->
<g id="node1" class="node">
<title>a</title>
<ellipse fill="none" stroke="black" cx="41.72" cy="-198.43" rx="41.94" ry="37.45"/>
<text text-anchor="middle" x="41.72" y="-209.73" font-family="Times,serif" font-size="14.00">a</text>
<text text-anchor="middle" x="41.72" y="-194.73" font-family="Times,serif" font-size="14.00">~</text>
<text text-anchor="middle" x="41.72" y="-179.73" font-family="Times,serif" font-size="14.00">Normal</text>
</g>
<!-- y -->
<g id="node8" class="node">
<title>y</title>
<ellipse fill="lightgrey" stroke="black" cx="427.72" cy="-76.48" rx="41.94" ry="37.45"/>
<text text-anchor="middle" x="427.72" y="-87.78" font-family="Times,serif" font-size="14.00">y</text>
<text text-anchor="middle" x="427.72" y="-72.78" font-family="Times,serif" font-size="14.00">~</text>
<text text-anchor="middle" x="427.72" y="-57.78" font-family="Times,serif" font-size="14.00">Normal</text>
</g>
<!-- a&#45;&gt;y -->
<g id="edge1" class="edge">
<title>a&#45;&gt;y</title>
<path fill="none" stroke="black" d="M59.27,-164.37C67.7,-151.63 78.99,-138.18 92.72,-129.95 139.52,-101.93 294.12,-86.98 375.92,-80.86"/>
<polygon fill="black" stroke="black" points="376.28,-84.34 386,-80.12 375.77,-77.36 376.28,-84.34"/>
</g>
<!-- sigma -->
<g id="node2" class="node">
<title>sigma</title>
<ellipse fill="none" stroke="black" cx="159.72" cy="-198.43" rx="57.97" ry="37.45"/>
<text text-anchor="middle" x="159.72" y="-209.73" font-family="Times,serif" font-size="14.00">sigma</text>
<text text-anchor="middle" x="159.72" y="-194.73" font-family="Times,serif" font-size="14.00">~</text>
<text text-anchor="middle" x="159.72" y="-179.73" font-family="Times,serif" font-size="14.00">Exponential</text>
</g>
<!-- sigma&#45;&gt;y -->
<g id="edge2" class="edge">
<title>sigma&#45;&gt;y</title>
<path fill="none" stroke="black" d="M185.51,-164.76C196.93,-152.24 211.27,-138.85 226.72,-129.95 273.36,-103.12 333.91,-89.74 376.31,-83.24"/>
<polygon fill="black" stroke="black" points="377.02,-86.68 386.41,-81.77 376.01,-79.75 377.02,-86.68"/>
</g>
<!-- sigma_b -->
<g id="node3" class="node">
<title>sigma_b</title>
<ellipse fill="none" stroke="black" cx="293.72" cy="-198.43" rx="57.97" ry="37.45"/>
<text text-anchor="middle" x="293.72" y="-209.73" font-family="Times,serif" font-size="14.00">sigma_b</text>
<text text-anchor="middle" x="293.72" y="-194.73" font-family="Times,serif" font-size="14.00">~</text>
<text text-anchor="middle" x="293.72" y="-179.73" font-family="Times,serif" font-size="14.00">Exponential</text>
</g>
<!-- sigma_b&#45;&gt;y -->
<g id="edge3" class="edge">
<title>sigma_b&#45;&gt;y</title>
<path fill="none" stroke="black" d="M323.29,-166.04C334.68,-154.38 348.01,-141.25 360.72,-129.95 369.35,-122.28 378.95,-114.41 388.12,-107.17"/>
<polygon fill="black" stroke="black" points="390.31,-109.9 396.04,-100.99 386.01,-104.38 390.31,-109.9"/>
</g>
<!-- sigma_a -->
<g id="node4" class="node">
<title>sigma_a</title>
<ellipse fill="none" stroke="black" cx="427.72" cy="-198.43" rx="57.97" ry="37.45"/>
<text text-anchor="middle" x="427.72" y="-209.73" font-family="Times,serif" font-size="14.00">sigma_a</text>
<text text-anchor="middle" x="427.72" y="-194.73" font-family="Times,serif" font-size="14.00">~</text>
<text text-anchor="middle" x="427.72" y="-179.73" font-family="Times,serif" font-size="14.00">Exponential</text>
</g>
<!-- sigma_a&#45;&gt;y -->
<g id="edge5" class="edge">
<title>sigma_a&#45;&gt;y</title>
<path fill="none" stroke="black" d="M427.72,-160.79C427.72,-149.38 427.72,-136.65 427.72,-124.63"/>
<polygon fill="black" stroke="black" points="431.22,-124.31 427.72,-114.31 424.22,-124.31 431.22,-124.31"/>
</g>
<!-- b -->
<g id="node5" class="node">
<title>b</title>
<ellipse fill="none" stroke="black" cx="545.72" cy="-198.43" rx="41.94" ry="37.45"/>
<text text-anchor="middle" x="545.72" y="-209.73" font-family="Times,serif" font-size="14.00">b</text>
<text text-anchor="middle" x="545.72" y="-194.73" font-family="Times,serif" font-size="14.00">~</text>
<text text-anchor="middle" x="545.72" y="-179.73" font-family="Times,serif" font-size="14.00">Normal</text>
</g>
<!-- b&#45;&gt;y -->
<g id="edge6" class="edge">
<title>b&#45;&gt;y</title>
<path fill="none" stroke="black" d="M524.45,-165.83C515.85,-154.02 505.42,-140.84 494.72,-129.95 486.63,-121.72 477.24,-113.63 468.09,-106.35"/>
<polygon fill="black" stroke="black" points="470.2,-103.56 460.16,-100.19 465.91,-109.09 470.2,-103.56"/>
</g>
<!-- za_mouse -->
<g id="node6" class="node">
<title>za_mouse</title>
<ellipse fill="none" stroke="black" cx="775.72" cy="-198.43" rx="50.41" ry="37.45"/>
<text text-anchor="middle" x="775.72" y="-209.73" font-family="Times,serif" font-size="14.00">za_mouse</text>
<text text-anchor="middle" x="775.72" y="-194.73" font-family="Times,serif" font-size="14.00">~</text>
<text text-anchor="middle" x="775.72" y="-179.73" font-family="Times,serif" font-size="14.00">Normal</text>
</g>
<!-- za_mouse&#45;&gt;y -->
<g id="edge4" class="edge">
<title>za_mouse&#45;&gt;y</title>
<path fill="none" stroke="black" d="M754.29,-164.51C744.36,-151.8 731.47,-138.32 716.72,-129.95 642.08,-87.62 540.71,-78.26 479.99,-76.83"/>
<polygon fill="black" stroke="black" points="479.93,-73.32 469.87,-76.65 479.81,-80.32 479.93,-73.32"/>
</g>
<!-- zb_mouse -->
<g id="node7" class="node">
<title>zb_mouse</title>
<ellipse fill="none" stroke="black" cx="656.72" cy="-198.43" rx="50.82" ry="37.45"/>
<text text-anchor="middle" x="656.72" y="-209.73" font-family="Times,serif" font-size="14.00">zb_mouse</text>
<text text-anchor="middle" x="656.72" y="-194.73" font-family="Times,serif" font-size="14.00">~</text>
<text text-anchor="middle" x="656.72" y="-179.73" font-family="Times,serif" font-size="14.00">Normal</text>
</g>
<!-- zb_mouse&#45;&gt;y -->
<g id="edge7" class="edge">
<title>zb_mouse&#45;&gt;y</title>
<path fill="none" stroke="black" d="M633.73,-164.7C623.61,-152.32 610.82,-139.04 596.72,-129.95 560.88,-106.85 514.22,-93.37 479.01,-85.88"/>
<polygon fill="black" stroke="black" points="479.44,-82.39 468.94,-83.83 478.05,-89.25 479.44,-82.39"/>
</g>
</g>
</svg>
