<?xml version="1.0" encoding="UTF-8" standalone="no"?>
<!DOCTYPE svg PUBLIC "-//W3C//DTD SVG 1.1//EN"
 "http://www.w3.org/Graphics/SVG/1.1/DTD/svg11.dtd">
<!-- Generated by graphviz version 2.43.0 (0)
 -->
<!-- Title: %3 Pages: 1 -->
<svg width="716pt" height="363pt"
 viewBox="0.00 0.00 715.72 362.86" xmlns="http://www.w3.org/2000/svg" xmlns:xlink="http://www.w3.org/1999/xlink">
<g id="graph0" class="graph" transform="scale(1 1) rotate(0) translate(4 358.86)">
<title>%3</title>
<polygon fill="white" stroke="transparent" points="-4,4 -4,-358.86 711.72,-358.86 711.72,4 -4,4"/>
<g id="clust1" class="cluster">
<title>cluster85</title>
<path fill="none" stroke="black" d="M475.72,-232.91C475.72,-232.91 687.72,-232.91 687.72,-232.91 693.72,-232.91 699.72,-238.91 699.72,-244.91 699.72,-244.91 699.72,-334.86 699.72,-334.86 699.72,-340.86 693.72,-346.86 687.72,-346.86 687.72,-346.86 475.72,-346.86 475.72,-346.86 469.72,-346.86 463.72,-340.86 463.72,-334.86 463.72,-334.86 463.72,-244.91 463.72,-244.91 463.72,-238.91 469.72,-232.91 475.72,-232.91"/>
<text text-anchor="middle" x="684.72" y="-240.71" font-family="Times,serif" font-size="14.00">85</text>
</g>
<g id="clust2" class="cluster">
<title>cluster919</title>
<path fill="none" stroke="black" d="M201.72,-8C201.72,-8 394.72,-8 394.72,-8 400.72,-8 406.72,-14 406.72,-20 406.72,-20 406.72,-209.93 406.72,-209.93 406.72,-215.93 400.72,-221.93 394.72,-221.93 394.72,-221.93 201.72,-221.93 201.72,-221.93 195.72,-221.93 189.72,-215.93 189.72,-209.93 189.72,-209.93 189.72,-20 189.72,-20 189.72,-14 195.72,-8 201.72,-8"/>
<text text-anchor="middle" x="388.22" y="-15.8" font-family="Times,serif" font-size="14.00">919</text>
</g>
<!-- a -->
<g id="node1" class="node">
<title>a</title>
<ellipse fill="none" stroke="black" cx="41.72" cy="-301.38" rx="41.94" ry="37.45"/>
<text text-anchor="middle" x="41.72" y="-312.68" font-family="Times,serif" font-size="14.00">a</text>
<text text-anchor="middle" x="41.72" y="-297.68" font-family="Times,serif" font-size="14.00">~</text>
<text text-anchor="middle" x="41.72" y="-282.68" font-family="Times,serif" font-size="14.00">Normal</text>
</g>
<!-- aa -->
<g id="node9" class="node">
<title>aa</title>
<polygon fill="none" stroke="black" points="289.22,-213.93 198.22,-213.93 198.22,-160.93 289.22,-160.93 289.22,-213.93"/>
<text text-anchor="middle" x="243.72" y="-198.73" font-family="Times,serif" font-size="14.00">aa</text>
<text text-anchor="middle" x="243.72" y="-183.73" font-family="Times,serif" font-size="14.00">~</text>
<text text-anchor="middle" x="243.72" y="-168.73" font-family="Times,serif" font-size="14.00">Deterministic</text>
</g>
<!-- a&#45;&gt;aa -->
<g id="edge1" class="edge">
<title>a&#45;&gt;aa</title>
<path fill="none" stroke="black" d="M60.3,-267.5C68.77,-255.1 79.8,-241.84 92.72,-232.91 120.99,-213.36 157.93,-202.28 188.2,-196.07"/>
<polygon fill="black" stroke="black" points="189.03,-199.47 198.19,-194.15 187.71,-192.6 189.03,-199.47"/>
</g>
<!-- sigma -->
<g id="node2" class="node">
<title>sigma</title>
<ellipse fill="none" stroke="black" cx="473.72" cy="-187.43" rx="57.97" ry="37.45"/>
<text text-anchor="middle" x="473.72" y="-198.73" font-family="Times,serif" font-size="14.00">sigma</text>
<text text-anchor="middle" x="473.72" y="-183.73" font-family="Times,serif" font-size="14.00">~</text>
<text text-anchor="middle" x="473.72" y="-168.73" font-family="Times,serif" font-size="14.00">Exponential</text>
</g>
<!-- y -->
<g id="node8" class="node">
<title>y</title>
<ellipse fill="lightgrey" stroke="black" cx="352.72" cy="-76.48" rx="41.94" ry="37.45"/>
<text text-anchor="middle" x="352.72" y="-87.78" font-family="Times,serif" font-size="14.00">y</text>
<text text-anchor="middle" x="352.72" y="-72.78" font-family="Times,serif" font-size="14.00">~</text>
<text text-anchor="middle" x="352.72" y="-57.78" font-family="Times,serif" font-size="14.00">Normal</text>
</g>
<!-- sigma&#45;&gt;y -->
<g id="edge7" class="edge">
<title>sigma&#45;&gt;y</title>
<path fill="none" stroke="black" d="M440.34,-156.37C424.59,-142.19 405.74,-125.22 389.58,-110.66"/>
<polygon fill="black" stroke="black" points="391.65,-107.82 381.88,-103.73 386.97,-113.03 391.65,-107.82"/>
</g>
<!-- sigma_b -->
<g id="node3" class="node">
<title>sigma_b</title>
<ellipse fill="none" stroke="black" cx="293.72" cy="-301.38" rx="57.97" ry="37.45"/>
<text text-anchor="middle" x="293.72" y="-312.68" font-family="Times,serif" font-size="14.00">sigma_b</text>
<text text-anchor="middle" x="293.72" y="-297.68" font-family="Times,serif" font-size="14.00">~</text>
<text text-anchor="middle" x="293.72" y="-282.68" font-family="Times,serif" font-size="14.00">Exponential</text>
</g>
<!-- bb -->
<g id="node10" class="node">
<title>bb</title>
<polygon fill="none" stroke="black" points="398.22,-213.93 307.22,-213.93 307.22,-160.93 398.22,-160.93 398.22,-213.93"/>
<text text-anchor="middle" x="352.72" y="-198.73" font-family="Times,serif" font-size="14.00">bb</text>
<text text-anchor="middle" x="352.72" y="-183.73" font-family="Times,serif" font-size="14.00">~</text>
<text text-anchor="middle" x="352.72" y="-168.73" font-family="Times,serif" font-size="14.00">Deterministic</text>
</g>
<!-- sigma_b&#45;&gt;bb -->
<g id="edge5" class="edge">
<title>sigma_b&#45;&gt;bb</title>
<path fill="none" stroke="black" d="M312.06,-265.57C319.21,-252.01 327.38,-236.51 334.51,-222.98"/>
<polygon fill="black" stroke="black" points="337.69,-224.45 339.26,-213.97 331.5,-221.18 337.69,-224.45"/>
</g>
<!-- sigma_a -->
<g id="node4" class="node">
<title>sigma_a</title>
<ellipse fill="none" stroke="black" cx="159.72" cy="-301.38" rx="57.97" ry="37.45"/>
<text text-anchor="middle" x="159.72" y="-312.68" font-family="Times,serif" font-size="14.00">sigma_a</text>
<text text-anchor="middle" x="159.72" y="-297.68" font-family="Times,serif" font-size="14.00">~</text>
<text text-anchor="middle" x="159.72" y="-282.68" font-family="Times,serif" font-size="14.00">Exponential</text>
</g>
<!-- sigma_a&#45;&gt;aa -->
<g id="edge3" class="edge">
<title>sigma_a&#45;&gt;aa</title>
<path fill="none" stroke="black" d="M184.47,-267.4C195.15,-253.17 207.63,-236.53 218.37,-222.21"/>
<polygon fill="black" stroke="black" points="221.27,-224.18 224.47,-214.08 215.67,-219.98 221.27,-224.18"/>
</g>
<!-- b -->
<g id="node5" class="node">
<title>b</title>
<ellipse fill="none" stroke="black" cx="411.72" cy="-301.38" rx="41.94" ry="37.45"/>
<text text-anchor="middle" x="411.72" y="-312.68" font-family="Times,serif" font-size="14.00">b</text>
<text text-anchor="middle" x="411.72" y="-297.68" font-family="Times,serif" font-size="14.00">~</text>
<text text-anchor="middle" x="411.72" y="-282.68" font-family="Times,serif" font-size="14.00">Normal</text>
</g>
<!-- b&#45;&gt;bb -->
<g id="edge4" class="edge">
<title>b&#45;&gt;bb</title>
<path fill="none" stroke="black" d="M394.18,-267.1C386.82,-253.14 378.27,-236.91 370.85,-222.84"/>
<polygon fill="black" stroke="black" points="373.92,-221.16 366.16,-213.94 367.73,-224.42 373.92,-221.16"/>
</g>
<!-- za_mouse -->
<g id="node6" class="node">
<title>za_mouse</title>
<ellipse fill="none" stroke="black" cx="521.72" cy="-301.38" rx="50.41" ry="37.45"/>
<text text-anchor="middle" x="521.72" y="-312.68" font-family="Times,serif" font-size="14.00">za_mouse</text>
<text text-anchor="middle" x="521.72" y="-297.68" font-family="Times,serif" font-size="14.00">~</text>
<text text-anchor="middle" x="521.72" y="-282.68" font-family="Times,serif" font-size="14.00">Normal</text>
</g>
<!-- za_mouse&#45;&gt;aa -->
<g id="edge2" class="edge">
<title>za_mouse&#45;&gt;aa</title>
<path fill="none" stroke="black" d="M501.07,-266.85C491.19,-253.87 478.13,-240.36 462.72,-232.91 429.87,-217.02 333.39,-236.29 298.72,-224.91 294.13,-223.4 289.56,-221.4 285.13,-219.11"/>
<polygon fill="black" stroke="black" points="286.69,-215.97 276.26,-214.07 283.23,-222.06 286.69,-215.97"/>
</g>
<!-- zb_mouse -->
<g id="node7" class="node">
<title>zb_mouse</title>
<ellipse fill="none" stroke="black" cx="640.72" cy="-301.38" rx="50.82" ry="37.45"/>
<text text-anchor="middle" x="640.72" y="-312.68" font-family="Times,serif" font-size="14.00">zb_mouse</text>
<text text-anchor="middle" x="640.72" y="-297.68" font-family="Times,serif" font-size="14.00">~</text>
<text text-anchor="middle" x="640.72" y="-282.68" font-family="Times,serif" font-size="14.00">Normal</text>
</g>
<!-- zb_mouse&#45;&gt;bb -->
<g id="edge6" class="edge">
<title>zb_mouse&#45;&gt;bb</title>
<path fill="none" stroke="black" d="M619.89,-267.17C609.79,-254.08 596.43,-240.4 580.72,-232.91 545.78,-216.25 443.46,-237.08 406.72,-224.91 402.19,-223.41 397.69,-221.41 393.33,-219.12"/>
<polygon fill="black" stroke="black" points="395.03,-216.06 384.62,-214.09 391.52,-222.12 395.03,-216.06"/>
</g>
<!-- aa&#45;&gt;y -->
<g id="edge8" class="edge">
<title>aa&#45;&gt;y</title>
<path fill="none" stroke="black" d="M269.27,-160.89C283.66,-146.51 301.83,-128.34 317.54,-112.64"/>
<polygon fill="black" stroke="black" points="320.43,-114.7 325.03,-105.15 315.49,-109.75 320.43,-114.7"/>
</g>
<!-- bb&#45;&gt;y -->
<g id="edge9" class="edge">
<title>bb&#45;&gt;y</title>
<path fill="none" stroke="black" d="M352.72,-160.89C352.72,-149.98 352.72,-136.89 352.72,-124.35"/>
<polygon fill="black" stroke="black" points="356.22,-124 352.72,-114 349.22,-124 356.22,-124"/>
</g>
</g>
</svg>
