<?xml version="1.0" encoding="UTF-8" standalone="no"?>
<!DOCTYPE svg PUBLIC "-//W3C//DTD SVG 1.1//EN"
 "http://www.w3.org/Graphics/SVG/1.1/DTD/svg11.dtd">
<!-- Generated by graphviz version 2.43.0 (0)
 -->
<!-- Title: %3 Pages: 1 -->
<svg width="850pt" height="260pt"
 viewBox="0.00 0.00 849.72 259.91" xmlns="http://www.w3.org/2000/svg" xmlns:xlink="http://www.w3.org/1999/xlink">
<g id="graph0" class="graph" transform="scale(1 1) rotate(0) translate(4 255.91)">
<title>%3</title>
<polygon fill="white" stroke="transparent" points="-4,4 -4,-255.91 845.72,-255.91 845.72,4 -4,4"/>
<g id="clust1" class="cluster">
<title>cluster85</title>
<path fill="none" stroke="black" d="M609.72,-129.95C609.72,-129.95 821.72,-129.95 821.72,-129.95 827.72,-129.95 833.72,-135.95 833.72,-141.95 833.72,-141.95 833.72,-231.91 833.72,-231.91 833.72,-237.91 827.72,-243.91 821.72,-243.91 821.72,-243.91 609.72,-243.91 609.72,-243.91 603.72,-243.91 597.72,-237.91 597.72,-231.91 597.72,-231.91 597.72,-141.95 597.72,-141.95 597.72,-135.95 603.72,-129.95 609.72,-129.95"/>
<text text-anchor="middle" x="818.72" y="-137.75" font-family="Times,serif" font-size="14.00">85</text>
</g>
<g id="clust2" class="cluster">
<title>cluster919</title>
<path fill="none" stroke="black" d="M373.72,-8C373.72,-8 449.72,-8 449.72,-8 455.72,-8 461.72,-14 461.72,-20 461.72,-20 461.72,-109.95 461.72,-109.95 461.72,-115.95 455.72,-121.95 449.72,-121.95 449.72,-121.95 373.72,-121.95 373.72,-121.95 367.72,-121.95 361.72,-115.95 361.72,-109.95 361.72,-109.95 361.72,-20 361.72,-20 361.72,-14 367.72,-8 373.72,-8"/>
<text text-anchor="middle" x="443.22" y="-15.8" font-family="Times,serif" font-size="14.00">919</text>
</g>
<!-- a -->
<g id="node1" class="node">
<title>a</title>
<ellipse fill="none" stroke="black" cx="41.72" cy="-198.43" rx="41.94" ry="37.45"/>
<text text-anchor="middle" x="41.72" y="-209.73" font-family="Times,serif" font-size="14.00">a</text>
<text text-anchor="middle" x="41.72" y="-194.73" font-family="Times,serif" font-size="14.00">~</text>
<text text-anchor="middle" x="41.72" y="-179.73" font-family="Times,serif" font-size="14.00">Normal</text>
</g>
<!-- y -->
<g id="node8" class="node">
<title>y</title>
<ellipse fill="lightgrey" stroke="black" cx="411.72" cy="-76.48" rx="41.94" ry="37.45"/>
<text text-anchor="middle" x="411.72" y="-87.78" font-family="Times,serif" font-size="14.00">y</text>
<text text-anchor="middle" x="411.72" y="-72.78" font-family="Times,serif" font-size="14.00">~</text>
<text text-anchor="middle" x="411.72" y="-57.78" font-family="Times,serif" font-size="14.00">Normal</text>
</g>
<!-- a&#45;&gt;y -->
<g id="edge1" class="edge">
<title>a&#45;&gt;y</title>
<path fill="none" stroke="black" d="M59.3,-164.42C67.74,-151.69 79.02,-138.23 92.72,-129.95 136.8,-103.33 281.61,-87.91 360.08,-81.31"/>
<polygon fill="black" stroke="black" points="360.55,-84.79 370.23,-80.48 359.98,-77.81 360.55,-84.79"/>
</g>
<!-- sigma_a -->
<g id="node2" class="node">
<title>sigma_a</title>
<ellipse fill="none" stroke="black" cx="159.72" cy="-198.43" rx="57.97" ry="37.45"/>
<text text-anchor="middle" x="159.72" y="-209.73" font-family="Times,serif" font-size="14.00">sigma_a</text>
<text text-anchor="middle" x="159.72" y="-194.73" font-family="Times,serif" font-size="14.00">~</text>
<text text-anchor="middle" x="159.72" y="-179.73" font-family="Times,serif" font-size="14.00">Exponential</text>
</g>
<!-- sigma_a&#45;&gt;y -->
<g id="edge2" class="edge">
<title>sigma_a&#45;&gt;y</title>
<path fill="none" stroke="black" d="M185.92,-164.58C197.3,-152.18 211.5,-138.92 226.72,-129.95 268.17,-105.52 321.58,-91.96 360.35,-84.78"/>
<polygon fill="black" stroke="black" points="361.14,-88.2 370.38,-83.01 359.92,-81.31 361.14,-88.2"/>
</g>
<!-- sigma -->
<g id="node3" class="node">
<title>sigma</title>
<ellipse fill="none" stroke="black" cx="293.72" cy="-198.43" rx="57.97" ry="37.45"/>
<text text-anchor="middle" x="293.72" y="-209.73" font-family="Times,serif" font-size="14.00">sigma</text>
<text text-anchor="middle" x="293.72" y="-194.73" font-family="Times,serif" font-size="14.00">~</text>
<text text-anchor="middle" x="293.72" y="-179.73" font-family="Times,serif" font-size="14.00">Exponential</text>
</g>
<!-- sigma&#45;&gt;y -->
<g id="edge4" class="edge">
<title>sigma&#45;&gt;y</title>
<path fill="none" stroke="black" d="M324.41,-166.23C340.52,-149.85 360.32,-129.73 376.98,-112.79"/>
<polygon fill="black" stroke="black" points="379.88,-114.83 384.4,-105.25 374.89,-109.93 379.88,-114.83"/>
</g>
<!-- b -->
<g id="node4" class="node">
<title>b</title>
<ellipse fill="none" stroke="black" cx="411.72" cy="-198.43" rx="41.94" ry="37.45"/>
<text text-anchor="middle" x="411.72" y="-209.73" font-family="Times,serif" font-size="14.00">b</text>
<text text-anchor="middle" x="411.72" y="-194.73" font-family="Times,serif" font-size="14.00">~</text>
<text text-anchor="middle" x="411.72" y="-179.73" font-family="Times,serif" font-size="14.00">Normal</text>
</g>
<!-- b&#45;&gt;y -->
<g id="edge5" class="edge">
<title>b&#45;&gt;y</title>
<path fill="none" stroke="black" d="M411.72,-160.79C411.72,-149.38 411.72,-136.65 411.72,-124.63"/>
<polygon fill="black" stroke="black" points="415.22,-124.31 411.72,-114.31 408.22,-124.31 415.22,-124.31"/>
</g>
<!-- sigma_b -->
<g id="node5" class="node">
<title>sigma_b</title>
<ellipse fill="none" stroke="black" cx="529.72" cy="-198.43" rx="57.97" ry="37.45"/>
<text text-anchor="middle" x="529.72" y="-209.73" font-family="Times,serif" font-size="14.00">sigma_b</text>
<text text-anchor="middle" x="529.72" y="-194.73" font-family="Times,serif" font-size="14.00">~</text>
<text text-anchor="middle" x="529.72" y="-179.73" font-family="Times,serif" font-size="14.00">Exponential</text>
</g>
<!-- sigma_b&#45;&gt;y -->
<g id="edge6" class="edge">
<title>sigma_b&#45;&gt;y</title>
<path fill="none" stroke="black" d="M499.02,-166.23C482.92,-149.85 463.12,-129.73 446.45,-112.79"/>
<polygon fill="black" stroke="black" points="448.55,-109.93 439.04,-105.25 443.56,-114.83 448.55,-109.93"/>
</g>
<!-- zb_mouse -->
<g id="node6" class="node">
<title>zb_mouse</title>
<ellipse fill="none" stroke="black" cx="774.72" cy="-198.43" rx="50.82" ry="37.45"/>
<text text-anchor="middle" x="774.72" y="-209.73" font-family="Times,serif" font-size="14.00">zb_mouse</text>
<text text-anchor="middle" x="774.72" y="-194.73" font-family="Times,serif" font-size="14.00">~</text>
<text text-anchor="middle" x="774.72" y="-179.73" font-family="Times,serif" font-size="14.00">Normal</text>
</g>
<!-- zb_mouse&#45;&gt;y -->
<g id="edge3" class="edge">
<title>zb_mouse&#45;&gt;y</title>
<path fill="none" stroke="black" d="M752.86,-164.45C742.74,-151.73 729.65,-138.26 714.72,-129.95 672.45,-106.43 538.18,-89.92 463.35,-82.27"/>
<polygon fill="black" stroke="black" points="463.5,-78.77 453.2,-81.25 462.8,-85.74 463.5,-78.77"/>
</g>
<!-- za_mouse -->
<g id="node7" class="node">
<title>za_mouse</title>
<ellipse fill="none" stroke="black" cx="655.72" cy="-198.43" rx="50.41" ry="37.45"/>
<text text-anchor="middle" x="655.72" y="-209.73" font-family="Times,serif" font-size="14.00">za_mouse</text>
<text text-anchor="middle" x="655.72" y="-194.73" font-family="Times,serif" font-size="14.00">~</text>
<text text-anchor="middle" x="655.72" y="-179.73" font-family="Times,serif" font-size="14.00">Normal</text>
</g>
<!-- za_mouse&#45;&gt;y -->
<g id="edge7" class="edge">
<title>za_mouse&#45;&gt;y</title>
<path fill="none" stroke="black" d="M633.32,-164.51C623.4,-152.11 610.79,-138.86 596.72,-129.95 555.94,-104.14 502.21,-90.74 463.17,-83.97"/>
<polygon fill="black" stroke="black" points="463.51,-80.48 453.08,-82.31 462.38,-87.39 463.51,-80.48"/>
</g>
</g>
</svg>
