<?xml version="1.0" encoding="UTF-8" standalone="no"?>
<!DOCTYPE svg PUBLIC "-//W3C//DTD SVG 1.1//EN"
 "http://www.w3.org/Graphics/SVG/1.1/DTD/svg11.dtd">
<!-- Generated by graphviz version 2.43.0 (0)
 -->
<!-- Title: %3 Pages: 1 -->
<svg width="250pt" height="260pt"
 viewBox="0.00 0.00 249.98 259.91" xmlns="http://www.w3.org/2000/svg" xmlns:xlink="http://www.w3.org/1999/xlink">
<g id="graph0" class="graph" transform="scale(1 1) rotate(0) translate(4 255.91)">
<title>%3</title>
<polygon fill="white" stroke="transparent" points="-4,4 -4,-255.91 245.98,-255.91 245.98,4 -4,4"/>
<g id="clust1" class="cluster">
<title>cluster85</title>
<path fill="none" stroke="black" d="M20,-129.95C20,-129.95 104,-129.95 104,-129.95 110,-129.95 116,-135.95 116,-141.95 116,-141.95 116,-231.91 116,-231.91 116,-237.91 110,-243.91 104,-243.91 104,-243.91 20,-243.91 20,-243.91 14,-243.91 8,-237.91 8,-231.91 8,-231.91 8,-141.95 8,-141.95 8,-135.95 14,-129.95 20,-129.95"/>
<text text-anchor="middle" x="101" y="-137.75" font-family="Times,serif" font-size="14.00">85</text>
</g>
<g id="clust2" class="cluster">
<title>cluster919</title>
<path fill="none" stroke="black" d="M26,-8C26,-8 102,-8 102,-8 108,-8 114,-14 114,-20 114,-20 114,-109.95 114,-109.95 114,-115.95 108,-121.95 102,-121.95 102,-121.95 26,-121.95 26,-121.95 20,-121.95 14,-115.95 14,-109.95 14,-109.95 14,-20 14,-20 14,-14 20,-8 26,-8"/>
<text text-anchor="middle" x="95.5" y="-15.8" font-family="Times,serif" font-size="14.00">919</text>
</g>
<!-- a_mouse -->
<g id="node1" class="node">
<title>a_mouse</title>
<ellipse fill="none" stroke="black" cx="62" cy="-198.43" rx="45.92" ry="37.45"/>
<text text-anchor="middle" x="62" y="-209.73" font-family="Times,serif" font-size="14.00">a_mouse</text>
<text text-anchor="middle" x="62" y="-194.73" font-family="Times,serif" font-size="14.00">~</text>
<text text-anchor="middle" x="62" y="-179.73" font-family="Times,serif" font-size="14.00">Normal</text>
</g>
<!-- y -->
<g id="node3" class="node">
<title>y</title>
<ellipse fill="lightgrey" stroke="black" cx="64" cy="-76.48" rx="41.94" ry="37.45"/>
<text text-anchor="middle" x="64" y="-87.78" font-family="Times,serif" font-size="14.00">y</text>
<text text-anchor="middle" x="64" y="-72.78" font-family="Times,serif" font-size="14.00">~</text>
<text text-anchor="middle" x="64" y="-57.78" font-family="Times,serif" font-size="14.00">Normal</text>
</g>
<!-- a_mouse&#45;&gt;y -->
<g id="edge2" class="edge">
<title>a_mouse&#45;&gt;y</title>
<path fill="none" stroke="black" d="M62.61,-160.79C62.8,-149.38 63.01,-136.65 63.21,-124.63"/>
<polygon fill="black" stroke="black" points="66.72,-124.36 63.39,-114.31 59.72,-124.25 66.72,-124.36"/>
</g>
<!-- sigma -->
<g id="node2" class="node">
<title>sigma</title>
<ellipse fill="none" stroke="black" cx="184" cy="-198.43" rx="57.97" ry="37.45"/>
<text text-anchor="middle" x="184" y="-209.73" font-family="Times,serif" font-size="14.00">sigma</text>
<text text-anchor="middle" x="184" y="-194.73" font-family="Times,serif" font-size="14.00">~</text>
<text text-anchor="middle" x="184" y="-179.73" font-family="Times,serif" font-size="14.00">Exponential</text>
</g>
<!-- sigma&#45;&gt;y -->
<g id="edge1" class="edge">
<title>sigma&#45;&gt;y</title>
<path fill="none" stroke="black" d="M154.74,-165.82C143.97,-154.38 131.57,-141.45 120,-129.95 113.75,-123.74 106.99,-117.24 100.41,-111.01"/>
<polygon fill="black" stroke="black" points="102.48,-108.15 92.8,-103.85 97.69,-113.25 102.48,-108.15"/>
</g>
</g>
</svg>
