<?xml version="1.0" encoding="UTF-8" standalone="no"?>
<!DOCTYPE svg PUBLIC "-//W3C//DTD SVG 1.1//EN"
 "http://www.w3.org/Graphics/SVG/1.1/DTD/svg11.dtd">
<!-- Generated by graphviz version 2.43.0 (0)
 -->
<!-- Title: %3 Pages: 1 -->
<svg width="469pt" height="482pt"
 viewBox="0.00 0.00 468.98 481.84" xmlns="http://www.w3.org/2000/svg" xmlns:xlink="http://www.w3.org/1999/xlink">
<g id="graph0" class="graph" transform="scale(1 1) rotate(0) translate(4 477.84)">
<title>%3</title>
<polygon fill="white" stroke="transparent" points="-4,4 -4,-477.84 464.98,-477.84 464.98,4 -4,4"/>
<g id="clust1" class="cluster">
<title>cluster2</title>
<path fill="none" stroke="black" d="M142,-351.88C142,-351.88 218,-351.88 218,-351.88 224,-351.88 230,-357.88 230,-363.88 230,-363.88 230,-453.84 230,-453.84 230,-459.84 224,-465.84 218,-465.84 218,-465.84 142,-465.84 142,-465.84 136,-465.84 130,-459.84 130,-453.84 130,-453.84 130,-363.88 130,-363.88 130,-357.88 136,-351.88 142,-351.88"/>
<text text-anchor="middle" x="218.5" y="-359.68" font-family="Times,serif" font-size="14.00">2</text>
</g>
<g id="clust2" class="cluster">
<title>cluster85</title>
<path fill="none" stroke="black" d="M20,-129.95C20,-129.95 222,-129.95 222,-129.95 228,-129.95 234,-135.95 234,-141.95 234,-141.95 234,-331.88 234,-331.88 234,-337.88 228,-343.88 222,-343.88 222,-343.88 20,-343.88 20,-343.88 14,-343.88 8,-337.88 8,-331.88 8,-331.88 8,-141.95 8,-141.95 8,-135.95 14,-129.95 20,-129.95"/>
<text text-anchor="middle" x="219" y="-137.75" font-family="Times,serif" font-size="14.00">85</text>
</g>
<g id="clust3" class="cluster">
<title>cluster919</title>
<path fill="none" stroke="black" d="M247,-8C247,-8 323,-8 323,-8 329,-8 335,-14 335,-20 335,-20 335,-109.95 335,-109.95 335,-115.95 329,-121.95 323,-121.95 323,-121.95 247,-121.95 247,-121.95 241,-121.95 235,-115.95 235,-109.95 235,-109.95 235,-20 235,-20 235,-14 241,-8 247,-8"/>
<text text-anchor="middle" x="316.5" y="-15.8" font-family="Times,serif" font-size="14.00">919</text>
</g>
<!-- g -->
<g id="node1" class="node">
<title>g</title>
<ellipse fill="none" stroke="black" cx="180" cy="-420.36" rx="41.94" ry="37.45"/>
<text text-anchor="middle" x="180" y="-431.66" font-family="Times,serif" font-size="14.00">g</text>
<text text-anchor="middle" x="180" y="-416.66" font-family="Times,serif" font-size="14.00">~</text>
<text text-anchor="middle" x="180" y="-401.66" font-family="Times,serif" font-size="14.00">Normal</text>
</g>
<!-- a -->
<g id="node5" class="node">
<title>a</title>
<polygon fill="none" stroke="black" points="225.5,-324.91 134.5,-324.91 134.5,-271.91 225.5,-271.91 225.5,-324.91"/>
<text text-anchor="middle" x="180" y="-309.71" font-family="Times,serif" font-size="14.00">a</text>
<text text-anchor="middle" x="180" y="-294.71" font-family="Times,serif" font-size="14.00">~</text>
<text text-anchor="middle" x="180" y="-279.71" font-family="Times,serif" font-size="14.00">Deterministic</text>
</g>
<!-- g&#45;&gt;a -->
<g id="edge1" class="edge">
<title>g&#45;&gt;a</title>
<path fill="none" stroke="black" d="M180,-382.72C180,-367.75 180,-350.48 180,-335.56"/>
<polygon fill="black" stroke="black" points="183.5,-335.18 180,-325.18 176.5,-335.18 183.5,-335.18"/>
</g>
<!-- b -->
<g id="node2" class="node">
<title>b</title>
<ellipse fill="none" stroke="black" cx="285" cy="-187.45" rx="41.94" ry="37.45"/>
<text text-anchor="middle" x="285" y="-198.75" font-family="Times,serif" font-size="14.00">b</text>
<text text-anchor="middle" x="285" y="-183.75" font-family="Times,serif" font-size="14.00">~</text>
<text text-anchor="middle" x="285" y="-168.75" font-family="Times,serif" font-size="14.00">Normal</text>
</g>
<!-- y -->
<g id="node8" class="node">
<title>y</title>
<ellipse fill="lightgrey" stroke="black" cx="285" cy="-76.48" rx="41.94" ry="37.45"/>
<text text-anchor="middle" x="285" y="-87.78" font-family="Times,serif" font-size="14.00">y</text>
<text text-anchor="middle" x="285" y="-72.78" font-family="Times,serif" font-size="14.00">~</text>
<text text-anchor="middle" x="285" y="-57.78" font-family="Times,serif" font-size="14.00">Normal</text>
</g>
<!-- b&#45;&gt;y -->
<g id="edge5" class="edge">
<title>b&#45;&gt;y</title>
<path fill="none" stroke="black" d="M285,-149.86C285,-141.69 285,-132.9 285,-124.38"/>
<polygon fill="black" stroke="black" points="288.5,-124.16 285,-114.16 281.5,-124.16 288.5,-124.16"/>
</g>
<!-- sigma -->
<g id="node3" class="node">
<title>sigma</title>
<ellipse fill="none" stroke="black" cx="403" cy="-187.45" rx="57.97" ry="37.45"/>
<text text-anchor="middle" x="403" y="-198.75" font-family="Times,serif" font-size="14.00">sigma</text>
<text text-anchor="middle" x="403" y="-183.75" font-family="Times,serif" font-size="14.00">~</text>
<text text-anchor="middle" x="403" y="-168.75" font-family="Times,serif" font-size="14.00">Exponential</text>
</g>
<!-- sigma&#45;&gt;y -->
<g id="edge6" class="edge">
<title>sigma&#45;&gt;y</title>
<path fill="none" stroke="black" d="M370.44,-156.39C355.2,-142.31 336.99,-125.49 321.3,-111"/>
<polygon fill="black" stroke="black" points="323.55,-108.32 313.83,-104.1 318.8,-113.46 323.55,-108.32"/>
</g>
<!-- sigma_a -->
<g id="node4" class="node">
<title>sigma_a</title>
<ellipse fill="none" stroke="black" cx="301" cy="-298.41" rx="57.97" ry="37.45"/>
<text text-anchor="middle" x="301" y="-309.71" font-family="Times,serif" font-size="14.00">sigma_a</text>
<text text-anchor="middle" x="301" y="-294.71" font-family="Times,serif" font-size="14.00">~</text>
<text text-anchor="middle" x="301" y="-279.71" font-family="Times,serif" font-size="14.00">Exponential</text>
</g>
<!-- a_mouse -->
<g id="node7" class="node">
<title>a_mouse</title>
<polygon fill="none" stroke="black" points="225.5,-213.95 134.5,-213.95 134.5,-160.95 225.5,-160.95 225.5,-213.95"/>
<text text-anchor="middle" x="180" y="-198.75" font-family="Times,serif" font-size="14.00">a_mouse</text>
<text text-anchor="middle" x="180" y="-183.75" font-family="Times,serif" font-size="14.00">~</text>
<text text-anchor="middle" x="180" y="-168.75" font-family="Times,serif" font-size="14.00">Deterministic</text>
</g>
<!-- sigma_a&#45;&gt;a_mouse -->
<g id="edge3" class="edge">
<title>sigma_a&#45;&gt;a_mouse</title>
<path fill="none" stroke="black" d="M267.62,-267.35C251.63,-252.95 232.45,-235.68 216.12,-220.98"/>
<polygon fill="black" stroke="black" points="218.13,-218.08 208.36,-213.99 213.45,-223.28 218.13,-218.08"/>
</g>
<!-- a&#45;&gt;a_mouse -->
<g id="edge2" class="edge">
<title>a&#45;&gt;a_mouse</title>
<path fill="none" stroke="black" d="M180,-271.86C180,-257.76 180,-240.01 180,-224.51"/>
<polygon fill="black" stroke="black" points="183.5,-224.22 180,-214.22 176.5,-224.22 183.5,-224.22"/>
</g>
<!-- za_mouse -->
<g id="node6" class="node">
<title>za_mouse</title>
<ellipse fill="none" stroke="black" cx="66" cy="-298.41" rx="50.41" ry="37.45"/>
<text text-anchor="middle" x="66" y="-309.71" font-family="Times,serif" font-size="14.00">za_mouse</text>
<text text-anchor="middle" x="66" y="-294.71" font-family="Times,serif" font-size="14.00">~</text>
<text text-anchor="middle" x="66" y="-279.71" font-family="Times,serif" font-size="14.00">Normal</text>
</g>
<!-- za_mouse&#45;&gt;a_mouse -->
<g id="edge4" class="edge">
<title>za_mouse&#45;&gt;a_mouse</title>
<path fill="none" stroke="black" d="M96.25,-268.5C111.44,-253.98 129.91,-236.32 145.64,-221.29"/>
<polygon fill="black" stroke="black" points="148.3,-223.59 153.11,-214.15 143.46,-218.53 148.3,-223.59"/>
</g>
<!-- a_mouse&#45;&gt;y -->
<g id="edge7" class="edge">
<title>a_mouse&#45;&gt;y</title>
<path fill="none" stroke="black" d="M204.42,-160.82C213.67,-151.13 224.3,-140.02 234,-129.95 239.45,-124.29 245.25,-118.3 250.91,-112.47"/>
<polygon fill="black" stroke="black" points="253.5,-114.83 257.96,-105.21 248.48,-109.95 253.5,-114.83"/>
</g>
</g>
</svg>
