<?xml version="1.0" encoding="UTF-8" standalone="no"?>
<!DOCTYPE svg PUBLIC "-//W3C//DTD SVG 1.1//EN"
 "http://www.w3.org/Graphics/SVG/1.1/DTD/svg11.dtd">
<!-- Generated by graphviz version 2.43.0 (0)
 -->
<!-- Title: %3 Pages: 1 -->
<svg width="471pt" height="355pt"
 viewBox="0.00 0.00 470.70 354.86" xmlns="http://www.w3.org/2000/svg" xmlns:xlink="http://www.w3.org/1999/xlink">
<g id="graph0" class="graph" transform="scale(1 1) rotate(0) translate(4 350.86)">
<title>%3</title>
<polygon fill="white" stroke="transparent" points="-4,4 -4,-350.86 466.7,-350.86 466.7,4 -4,4"/>
<g id="clust1" class="cluster">
<title>cluster85</title>
<path fill="none" stroke="black" d="M128.72,-129.95C128.72,-129.95 324.72,-129.95 324.72,-129.95 330.72,-129.95 336.72,-135.95 336.72,-141.95 336.72,-141.95 336.72,-231.91 336.72,-231.91 336.72,-237.91 330.72,-243.91 324.72,-243.91 324.72,-243.91 128.72,-243.91 128.72,-243.91 122.72,-243.91 116.72,-237.91 116.72,-231.91 116.72,-231.91 116.72,-141.95 116.72,-141.95 116.72,-135.95 122.72,-129.95 128.72,-129.95"/>
<text text-anchor="middle" x="321.72" y="-137.75" font-family="Times,serif" font-size="14.00">85</text>
</g>
<g id="clust2" class="cluster">
<title>cluster919</title>
<path fill="none" stroke="black" d="M243.72,-8C243.72,-8 319.72,-8 319.72,-8 325.72,-8 331.72,-14 331.72,-20 331.72,-20 331.72,-109.95 331.72,-109.95 331.72,-115.95 325.72,-121.95 319.72,-121.95 319.72,-121.95 243.72,-121.95 243.72,-121.95 237.72,-121.95 231.72,-115.95 231.72,-109.95 231.72,-109.95 231.72,-20 231.72,-20 231.72,-14 237.72,-8 243.72,-8"/>
<text text-anchor="middle" x="313.22" y="-15.8" font-family="Times,serif" font-size="14.00">919</text>
</g>
<!-- a -->
<g id="node1" class="node">
<title>a</title>
<ellipse fill="none" stroke="black" cx="41.72" cy="-309.38" rx="41.94" ry="37.45"/>
<text text-anchor="middle" x="41.72" y="-320.68" font-family="Times,serif" font-size="14.00">a</text>
<text text-anchor="middle" x="41.72" y="-305.68" font-family="Times,serif" font-size="14.00">~</text>
<text text-anchor="middle" x="41.72" y="-290.68" font-family="Times,serif" font-size="14.00">Normal</text>
</g>
<!-- a_mouse -->
<g id="node6" class="node">
<title>a_mouse</title>
<ellipse fill="none" stroke="black" cx="170.72" cy="-198.43" rx="45.92" ry="37.45"/>
<text text-anchor="middle" x="170.72" y="-209.73" font-family="Times,serif" font-size="14.00">a_mouse</text>
<text text-anchor="middle" x="170.72" y="-194.73" font-family="Times,serif" font-size="14.00">~</text>
<text text-anchor="middle" x="170.72" y="-179.73" font-family="Times,serif" font-size="14.00">Normal</text>
</g>
<!-- a&#45;&gt;a_mouse -->
<g id="edge1" class="edge">
<title>a&#45;&gt;a_mouse</title>
<path fill="none" stroke="black" d="M71.64,-283.11C89.43,-268.09 112.21,-248.85 131.44,-232.61"/>
<polygon fill="black" stroke="black" points="133.78,-235.21 139.16,-226.08 129.26,-229.86 133.78,-235.21"/>
</g>
<!-- sigma -->
<g id="node2" class="node">
<title>sigma</title>
<ellipse fill="none" stroke="black" cx="404.72" cy="-198.43" rx="57.97" ry="37.45"/>
<text text-anchor="middle" x="404.72" y="-209.73" font-family="Times,serif" font-size="14.00">sigma</text>
<text text-anchor="middle" x="404.72" y="-194.73" font-family="Times,serif" font-size="14.00">~</text>
<text text-anchor="middle" x="404.72" y="-179.73" font-family="Times,serif" font-size="14.00">Exponential</text>
</g>
<!-- y -->
<g id="node8" class="node">
<title>y</title>
<ellipse fill="lightgrey" stroke="black" cx="281.72" cy="-76.48" rx="41.94" ry="37.45"/>
<text text-anchor="middle" x="281.72" y="-87.78" font-family="Times,serif" font-size="14.00">y</text>
<text text-anchor="middle" x="281.72" y="-72.78" font-family="Times,serif" font-size="14.00">~</text>
<text text-anchor="middle" x="281.72" y="-57.78" font-family="Times,serif" font-size="14.00">Normal</text>
</g>
<!-- sigma&#45;&gt;y -->
<g id="edge5" class="edge">
<title>sigma&#45;&gt;y</title>
<path fill="none" stroke="black" d="M375.63,-165.65C364.87,-154.19 352.43,-141.3 340.72,-129.95 333.92,-123.37 326.5,-116.52 319.28,-110.03"/>
<polygon fill="black" stroke="black" points="321.37,-107.2 311.58,-103.15 316.71,-112.42 321.37,-107.2"/>
</g>
<!-- sigma_b -->
<g id="node3" class="node">
<title>sigma_b</title>
<ellipse fill="none" stroke="black" cx="293.72" cy="-309.38" rx="57.97" ry="37.45"/>
<text text-anchor="middle" x="293.72" y="-320.68" font-family="Times,serif" font-size="14.00">sigma_b</text>
<text text-anchor="middle" x="293.72" y="-305.68" font-family="Times,serif" font-size="14.00">~</text>
<text text-anchor="middle" x="293.72" y="-290.68" font-family="Times,serif" font-size="14.00">Exponential</text>
</g>
<!-- b_mouse -->
<g id="node7" class="node">
<title>b_mouse</title>
<ellipse fill="none" stroke="black" cx="281.72" cy="-198.43" rx="46.84" ry="37.45"/>
<text text-anchor="middle" x="281.72" y="-209.73" font-family="Times,serif" font-size="14.00">b_mouse</text>
<text text-anchor="middle" x="281.72" y="-194.73" font-family="Times,serif" font-size="14.00">~</text>
<text text-anchor="middle" x="281.72" y="-179.73" font-family="Times,serif" font-size="14.00">Normal</text>
</g>
<!-- sigma_b&#45;&gt;b_mouse -->
<g id="edge4" class="edge">
<title>sigma_b&#45;&gt;b_mouse</title>
<path fill="none" stroke="black" d="M289.69,-271.8C288.79,-263.63 287.82,-254.85 286.88,-246.32"/>
<polygon fill="black" stroke="black" points="290.33,-245.66 285.76,-236.1 283.37,-246.42 290.33,-245.66"/>
</g>
<!-- sigma_a -->
<g id="node4" class="node">
<title>sigma_a</title>
<ellipse fill="none" stroke="black" cx="159.72" cy="-309.38" rx="57.97" ry="37.45"/>
<text text-anchor="middle" x="159.72" y="-320.68" font-family="Times,serif" font-size="14.00">sigma_a</text>
<text text-anchor="middle" x="159.72" y="-305.68" font-family="Times,serif" font-size="14.00">~</text>
<text text-anchor="middle" x="159.72" y="-290.68" font-family="Times,serif" font-size="14.00">Exponential</text>
</g>
<!-- sigma_a&#45;&gt;a_mouse -->
<g id="edge2" class="edge">
<title>sigma_a&#45;&gt;a_mouse</title>
<path fill="none" stroke="black" d="M163.41,-271.8C164.24,-263.63 165.12,-254.85 165.99,-246.32"/>
<polygon fill="black" stroke="black" points="169.49,-246.4 167.02,-236.1 162.53,-245.7 169.49,-246.4"/>
</g>
<!-- b -->
<g id="node5" class="node">
<title>b</title>
<ellipse fill="none" stroke="black" cx="411.72" cy="-309.38" rx="41.94" ry="37.45"/>
<text text-anchor="middle" x="411.72" y="-320.68" font-family="Times,serif" font-size="14.00">b</text>
<text text-anchor="middle" x="411.72" y="-305.68" font-family="Times,serif" font-size="14.00">~</text>
<text text-anchor="middle" x="411.72" y="-290.68" font-family="Times,serif" font-size="14.00">Normal</text>
</g>
<!-- b&#45;&gt;b_mouse -->
<g id="edge3" class="edge">
<title>b&#45;&gt;b_mouse</title>
<path fill="none" stroke="black" d="M381.57,-283.11C363.64,-268.09 340.68,-248.85 321.3,-232.61"/>
<polygon fill="black" stroke="black" points="323.43,-229.82 313.52,-226.08 318.94,-235.19 323.43,-229.82"/>
</g>
<!-- a_mouse&#45;&gt;y -->
<g id="edge6" class="edge">
<title>a_mouse&#45;&gt;y</title>
<path fill="none" stroke="black" d="M194.79,-166.13C204.12,-154.48 215.1,-141.33 225.72,-129.95 231.73,-123.51 238.37,-116.9 244.92,-110.63"/>
<polygon fill="black" stroke="black" points="247.64,-112.87 252.52,-103.46 242.84,-107.78 247.64,-112.87"/>
</g>
<!-- b_mouse&#45;&gt;y -->
<g id="edge7" class="edge">
<title>b_mouse&#45;&gt;y</title>
<path fill="none" stroke="black" d="M281.72,-160.79C281.72,-149.38 281.72,-136.65 281.72,-124.63"/>
<polygon fill="black" stroke="black" points="285.22,-124.31 281.72,-114.31 278.22,-124.31 285.22,-124.31"/>
</g>
</g>
</svg>
