<?xml version="1.0" encoding="UTF-8" standalone="no"?>
<!DOCTYPE svg PUBLIC "-//W3C//DTD SVG 1.1//EN"
 "http://www.w3.org/Graphics/SVG/1.1/DTD/svg11.dtd">
<!-- Generated by graphviz version 2.43.0 (0)
 -->
<!-- Title: %3 Pages: 1 -->
<svg width="626pt" height="363pt"
 viewBox="0.00 0.00 625.98 362.88" xmlns="http://www.w3.org/2000/svg" xmlns:xlink="http://www.w3.org/1999/xlink">
<g id="graph0" class="graph" transform="scale(1 1) rotate(0) translate(4 358.88)">
<title>%3</title>
<polygon fill="white" stroke="transparent" points="-4,4 -4,-358.88 621.98,-358.88 621.98,4 -4,4"/>
<g id="clust1" class="cluster">
<title>cluster3</title>
<path fill="none" stroke="black" d="M20,-232.93C20,-232.93 182,-232.93 182,-232.93 188,-232.93 194,-238.93 194,-244.93 194,-244.93 194,-334.88 194,-334.88 194,-340.88 188,-346.88 182,-346.88 182,-346.88 20,-346.88 20,-346.88 14,-346.88 8,-340.88 8,-334.88 8,-334.88 8,-244.93 8,-244.93 8,-238.93 14,-232.93 20,-232.93"/>
<text text-anchor="middle" x="182.5" y="-240.73" font-family="Times,serif" font-size="14.00">3</text>
</g>
<g id="clust2" class="cluster">
<title>cluster2</title>
<path fill="none" stroke="black" d="M31,-129.95C31,-129.95 115,-129.95 115,-129.95 121,-129.95 127,-135.95 127,-141.95 127,-141.95 127,-209.95 127,-209.95 127,-215.95 121,-221.95 115,-221.95 115,-221.95 31,-221.95 31,-221.95 25,-221.95 19,-215.95 19,-209.95 19,-209.95 19,-141.95 19,-141.95 19,-135.95 25,-129.95 31,-129.95"/>
<text text-anchor="middle" x="115.5" y="-137.75" font-family="Times,serif" font-size="14.00">2</text>
</g>
<g id="clust3" class="cluster">
<title>cluster2 x 85</title>
<path fill="none" stroke="black" d="M214,-232.93C214,-232.93 290,-232.93 290,-232.93 296,-232.93 302,-238.93 302,-244.93 302,-244.93 302,-334.88 302,-334.88 302,-340.88 296,-346.88 290,-346.88 290,-346.88 214,-346.88 214,-346.88 208,-346.88 202,-340.88 202,-334.88 202,-334.88 202,-244.93 202,-244.93 202,-238.93 208,-232.93 214,-232.93"/>
<text text-anchor="middle" x="276.5" y="-240.73" font-family="Times,serif" font-size="14.00">2 x 85</text>
</g>
<g id="clust4" class="cluster">
<title>cluster85 x 2</title>
<path fill="none" stroke="black" d="M194,-129.95C194,-129.95 278,-129.95 278,-129.95 284,-129.95 290,-135.95 290,-141.95 290,-141.95 290,-209.95 290,-209.95 290,-215.95 284,-221.95 278,-221.95 278,-221.95 194,-221.95 194,-221.95 188,-221.95 182,-215.95 182,-209.95 182,-209.95 182,-141.95 182,-141.95 182,-135.95 188,-129.95 194,-129.95"/>
<text text-anchor="middle" x="264.5" y="-137.75" font-family="Times,serif" font-size="14.00">85 x 2</text>
</g>
<g id="clust5" class="cluster">
<title>cluster919</title>
<path fill="none" stroke="black" d="M353,-8C353,-8 429,-8 429,-8 435,-8 441,-14 441,-20 441,-20 441,-109.95 441,-109.95 441,-115.95 435,-121.95 429,-121.95 429,-121.95 353,-121.95 353,-121.95 347,-121.95 341,-115.95 341,-109.95 341,-109.95 341,-20 341,-20 341,-14 347,-8 353,-8"/>
<text text-anchor="middle" x="422.5" y="-15.8" font-family="Times,serif" font-size="14.00">919</text>
</g>
<!-- packed_chol -->
<g id="node1" class="node">
<title>packed_chol</title>
<ellipse fill="none" stroke="black" cx="101" cy="-301.41" rx="84.71" ry="37.45"/>
<text text-anchor="middle" x="101" y="-312.71" font-family="Times,serif" font-size="14.00">packed_chol</text>
<text text-anchor="middle" x="101" y="-297.71" font-family="Times,serif" font-size="14.00">~</text>
<text text-anchor="middle" x="101" y="-282.71" font-family="Times,serif" font-size="14.00">_LKJCholeskyCov</text>
</g>
<!-- sigma_ab -->
<g id="node2" class="node">
<title>sigma_ab</title>
<polygon fill="none" stroke="black" points="118.5,-213.95 27.5,-213.95 27.5,-160.95 118.5,-160.95 118.5,-213.95"/>
<text text-anchor="middle" x="73" y="-198.75" font-family="Times,serif" font-size="14.00">sigma_ab</text>
<text text-anchor="middle" x="73" y="-183.75" font-family="Times,serif" font-size="14.00">~</text>
<text text-anchor="middle" x="73" y="-168.75" font-family="Times,serif" font-size="14.00">Deterministic</text>
</g>
<!-- packed_chol&#45;&gt;sigma_ab -->
<g id="edge1" class="edge">
<title>packed_chol&#45;&gt;sigma_ab</title>
<path fill="none" stroke="black" d="M91.91,-264.06C88.68,-251.16 85.06,-236.67 81.85,-223.86"/>
<polygon fill="black" stroke="black" points="85.21,-222.85 79.39,-214 78.42,-224.55 85.21,-222.85"/>
</g>
<!-- Rho -->
<g id="node6" class="node">
<title>Rho</title>
<polygon fill="none" stroke="black" points="155.5,-102.98 64.5,-102.98 64.5,-49.98 155.5,-49.98 155.5,-102.98"/>
<text text-anchor="middle" x="110" y="-87.78" font-family="Times,serif" font-size="14.00">Rho</text>
<text text-anchor="middle" x="110" y="-72.78" font-family="Times,serif" font-size="14.00">~</text>
<text text-anchor="middle" x="110" y="-57.78" font-family="Times,serif" font-size="14.00">Deterministic</text>
</g>
<!-- packed_chol&#45;&gt;Rho -->
<g id="edge2" class="edge">
<title>packed_chol&#45;&gt;Rho</title>
<path fill="none" stroke="black" d="M118.52,-264.39C123.6,-252.16 128.45,-238.23 131,-224.93 138.94,-183.47 138.99,-171.4 131,-129.95 129.88,-124.15 128.13,-118.17 126.1,-112.43"/>
<polygon fill="black" stroke="black" points="129.35,-111.12 122.49,-103.04 122.81,-113.63 129.35,-111.12"/>
</g>
<!-- ab_mouse -->
<g id="node8" class="node">
<title>ab_mouse</title>
<polygon fill="none" stroke="black" points="281.5,-213.95 190.5,-213.95 190.5,-160.95 281.5,-160.95 281.5,-213.95"/>
<text text-anchor="middle" x="236" y="-198.75" font-family="Times,serif" font-size="14.00">ab_mouse</text>
<text text-anchor="middle" x="236" y="-183.75" font-family="Times,serif" font-size="14.00">~</text>
<text text-anchor="middle" x="236" y="-168.75" font-family="Times,serif" font-size="14.00">Deterministic</text>
</g>
<!-- packed_chol&#45;&gt;ab_mouse -->
<g id="edge4" class="edge">
<title>packed_chol&#45;&gt;ab_mouse</title>
<path fill="none" stroke="black" d="M140.05,-268.03C158.01,-253.13 179.26,-235.5 197.2,-220.63"/>
<polygon fill="black" stroke="black" points="199.72,-223.09 205.18,-214.01 195.25,-217.7 199.72,-223.09"/>
</g>
<!-- sigma_ab&#45;&gt;Rho -->
<g id="edge3" class="edge">
<title>sigma_ab&#45;&gt;Rho</title>
<path fill="none" stroke="black" d="M81.67,-160.9C86.51,-146.66 92.61,-128.7 97.91,-113.1"/>
<polygon fill="black" stroke="black" points="101.35,-113.84 101.25,-103.24 94.72,-111.59 101.35,-113.84"/>
</g>
<!-- a -->
<g id="node3" class="node">
<title>a</title>
<ellipse fill="none" stroke="black" cx="341" cy="-187.45" rx="41.94" ry="37.45"/>
<text text-anchor="middle" x="341" y="-198.75" font-family="Times,serif" font-size="14.00">a</text>
<text text-anchor="middle" x="341" y="-183.75" font-family="Times,serif" font-size="14.00">~</text>
<text text-anchor="middle" x="341" y="-168.75" font-family="Times,serif" font-size="14.00">Normal</text>
</g>
<!-- y -->
<g id="node9" class="node">
<title>y</title>
<ellipse fill="lightgrey" stroke="black" cx="391" cy="-76.48" rx="41.94" ry="37.45"/>
<text text-anchor="middle" x="391" y="-87.78" font-family="Times,serif" font-size="14.00">y</text>
<text text-anchor="middle" x="391" y="-72.78" font-family="Times,serif" font-size="14.00">~</text>
<text text-anchor="middle" x="391" y="-57.78" font-family="Times,serif" font-size="14.00">Normal</text>
</g>
<!-- a&#45;&gt;y -->
<g id="edge6" class="edge">
<title>a&#45;&gt;y</title>
<path fill="none" stroke="black" d="M356.55,-152.57C361.2,-142.42 366.37,-131.15 371.26,-120.5"/>
<polygon fill="black" stroke="black" points="374.47,-121.89 375.46,-111.34 368.11,-118.97 374.47,-121.89"/>
</g>
<!-- b -->
<g id="node4" class="node">
<title>b</title>
<ellipse fill="none" stroke="black" cx="442" cy="-187.45" rx="41.94" ry="37.45"/>
<text text-anchor="middle" x="442" y="-198.75" font-family="Times,serif" font-size="14.00">b</text>
<text text-anchor="middle" x="442" y="-183.75" font-family="Times,serif" font-size="14.00">~</text>
<text text-anchor="middle" x="442" y="-168.75" font-family="Times,serif" font-size="14.00">Normal</text>
</g>
<!-- b&#45;&gt;y -->
<g id="edge7" class="edge">
<title>b&#45;&gt;y</title>
<path fill="none" stroke="black" d="M426.14,-152.57C421.39,-142.42 416.12,-131.15 411.13,-120.5"/>
<polygon fill="black" stroke="black" points="414.26,-118.91 406.85,-111.34 407.92,-121.88 414.26,-118.91"/>
</g>
<!-- sigma -->
<g id="node5" class="node">
<title>sigma</title>
<ellipse fill="none" stroke="black" cx="560" cy="-187.45" rx="57.97" ry="37.45"/>
<text text-anchor="middle" x="560" y="-198.75" font-family="Times,serif" font-size="14.00">sigma</text>
<text text-anchor="middle" x="560" y="-183.75" font-family="Times,serif" font-size="14.00">~</text>
<text text-anchor="middle" x="560" y="-168.75" font-family="Times,serif" font-size="14.00">Exponential</text>
</g>
<!-- sigma&#45;&gt;y -->
<g id="edge9" class="edge">
<title>sigma&#45;&gt;y</title>
<path fill="none" stroke="black" d="M527.42,-156.45C516.84,-147.4 504.78,-137.8 493,-129.95 475.5,-118.29 455.08,-107.32 437.13,-98.46"/>
<polygon fill="black" stroke="black" points="438.52,-95.24 428,-94.02 435.47,-101.54 438.52,-95.24"/>
</g>
<!-- z -->
<g id="node7" class="node">
<title>z</title>
<ellipse fill="none" stroke="black" cx="252" cy="-301.41" rx="41.94" ry="37.45"/>
<text text-anchor="middle" x="252" y="-312.71" font-family="Times,serif" font-size="14.00">z</text>
<text text-anchor="middle" x="252" y="-297.71" font-family="Times,serif" font-size="14.00">~</text>
<text text-anchor="middle" x="252" y="-282.71" font-family="Times,serif" font-size="14.00">Normal</text>
</g>
<!-- z&#45;&gt;ab_mouse -->
<g id="edge5" class="edge">
<title>z&#45;&gt;ab_mouse</title>
<path fill="none" stroke="black" d="M246.81,-264.06C244.98,-251.29 242.93,-236.96 241.11,-224.24"/>
<polygon fill="black" stroke="black" points="244.53,-223.4 239.65,-214 237.6,-224.39 244.53,-223.4"/>
</g>
<!-- ab_mouse&#45;&gt;y -->
<g id="edge8" class="edge">
<title>ab_mouse&#45;&gt;y</title>
<path fill="none" stroke="black" d="M257.26,-160.74C266.62,-150.39 278.17,-138.83 290,-129.95 306.56,-117.53 326.47,-106.49 344.23,-97.78"/>
<polygon fill="black" stroke="black" points="345.78,-100.92 353.29,-93.44 342.76,-94.6 345.78,-100.92"/>
</g>
</g>
</svg>
