<?xml version="1.0" encoding="UTF-8" standalone="no"?>
<!DOCTYPE svg PUBLIC "-//W3C//DTD SVG 1.1//EN"
 "http://www.w3.org/Graphics/SVG/1.1/DTD/svg11.dtd">
<!-- Generated by graphviz version 2.43.0 (0)
 -->
<!-- Title: %3 Pages: 1 -->
<svg width="454pt" height="382pt"
 viewBox="0.00 0.00 453.98 381.86" xmlns="http://www.w3.org/2000/svg" xmlns:xlink="http://www.w3.org/1999/xlink">
<g id="graph0" class="graph" transform="scale(1 1) rotate(0) translate(4 377.86)">
<title>%3</title>
<polygon fill="white" stroke="transparent" points="-4,4 -4,-377.86 449.98,-377.86 449.98,4 -4,4"/>
<g id="clust1" class="cluster">
<title>cluster3</title>
<path fill="none" stroke="black" d="M31,-251.91C31,-251.91 193,-251.91 193,-251.91 199,-251.91 205,-257.91 205,-263.91 205,-263.91 205,-353.86 205,-353.86 205,-359.86 199,-365.86 193,-365.86 193,-365.86 31,-365.86 31,-365.86 25,-365.86 19,-359.86 19,-353.86 19,-353.86 19,-263.91 19,-263.91 19,-257.91 25,-251.91 31,-251.91"/>
<text text-anchor="middle" x="193.5" y="-259.71" font-family="Times,serif" font-size="14.00">3</text>
</g>
<g id="clust2" class="cluster">
<title>cluster2</title>
<path fill="none" stroke="black" d="M20,-140.93C20,-140.93 104,-140.93 104,-140.93 110,-140.93 116,-146.93 116,-152.93 116,-152.93 116,-220.93 116,-220.93 116,-226.93 110,-232.93 104,-232.93 104,-232.93 20,-232.93 20,-232.93 14,-232.93 8,-226.93 8,-220.93 8,-220.93 8,-152.93 8,-152.93 8,-146.93 14,-140.93 20,-140.93"/>
<text text-anchor="middle" x="104.5" y="-148.73" font-family="Times,serif" font-size="14.00">2</text>
</g>
<g id="clust3" class="cluster">
<title>cluster85 x 2</title>
<path fill="none" stroke="black" d="M206,-129.95C206,-129.95 308,-129.95 308,-129.95 314,-129.95 320,-135.95 320,-141.95 320,-141.95 320,-231.91 320,-231.91 320,-237.91 314,-243.91 308,-243.91 308,-243.91 206,-243.91 206,-243.91 200,-243.91 194,-237.91 194,-231.91 194,-231.91 194,-141.95 194,-141.95 194,-135.95 200,-129.95 206,-129.95"/>
<text text-anchor="middle" x="294.5" y="-137.75" font-family="Times,serif" font-size="14.00">85 x 2</text>
</g>
<g id="clust4" class="cluster">
<title>cluster919</title>
<path fill="none" stroke="black" d="M225,-8C225,-8 301,-8 301,-8 307,-8 313,-14 313,-20 313,-20 313,-109.95 313,-109.95 313,-115.95 307,-121.95 301,-121.95 301,-121.95 225,-121.95 225,-121.95 219,-121.95 213,-115.95 213,-109.95 213,-109.95 213,-20 213,-20 213,-14 219,-8 225,-8"/>
<text text-anchor="middle" x="294.5" y="-15.8" font-family="Times,serif" font-size="14.00">919</text>
</g>
<!-- packed_chol -->
<g id="node1" class="node">
<title>packed_chol</title>
<ellipse fill="none" stroke="black" cx="112" cy="-320.38" rx="84.71" ry="37.45"/>
<text text-anchor="middle" x="112" y="-331.68" font-family="Times,serif" font-size="14.00">packed_chol</text>
<text text-anchor="middle" x="112" y="-316.68" font-family="Times,serif" font-size="14.00">~</text>
<text text-anchor="middle" x="112" y="-301.68" font-family="Times,serif" font-size="14.00">_LKJCholeskyCov</text>
</g>
<!-- sigma_ab -->
<g id="node2" class="node">
<title>sigma_ab</title>
<polygon fill="none" stroke="black" points="107.5,-224.93 16.5,-224.93 16.5,-171.93 107.5,-171.93 107.5,-224.93"/>
<text text-anchor="middle" x="62" y="-209.73" font-family="Times,serif" font-size="14.00">sigma_ab</text>
<text text-anchor="middle" x="62" y="-194.73" font-family="Times,serif" font-size="14.00">~</text>
<text text-anchor="middle" x="62" y="-179.73" font-family="Times,serif" font-size="14.00">Deterministic</text>
</g>
<!-- packed_chol&#45;&gt;sigma_ab -->
<g id="edge1" class="edge">
<title>packed_chol&#45;&gt;sigma_ab</title>
<path fill="none" stroke="black" d="M97,-283.39C90.58,-268 83.11,-250.07 76.72,-234.75"/>
<polygon fill="black" stroke="black" points="79.78,-232.99 72.7,-225.11 73.32,-235.68 79.78,-232.99"/>
</g>
<!-- Rho -->
<g id="node4" class="node">
<title>Rho</title>
<polygon fill="none" stroke="black" points="144.5,-102.98 53.5,-102.98 53.5,-49.98 144.5,-49.98 144.5,-102.98"/>
<text text-anchor="middle" x="99" y="-87.78" font-family="Times,serif" font-size="14.00">Rho</text>
<text text-anchor="middle" x="99" y="-72.78" font-family="Times,serif" font-size="14.00">~</text>
<text text-anchor="middle" x="99" y="-57.78" font-family="Times,serif" font-size="14.00">Deterministic</text>
</g>
<!-- packed_chol&#45;&gt;Rho -->
<g id="edge3" class="edge">
<title>packed_chol&#45;&gt;Rho</title>
<path fill="none" stroke="black" d="M118.52,-282.7C124.2,-244.26 130.09,-182.32 120,-129.95 118.88,-124.15 117.13,-118.17 115.1,-112.43"/>
<polygon fill="black" stroke="black" points="118.35,-111.12 111.49,-103.04 111.81,-113.63 118.35,-111.12"/>
</g>
<!-- ab_mouse -->
<g id="node7" class="node">
<title>ab_mouse</title>
<ellipse fill="none" stroke="black" cx="257" cy="-198.43" rx="55.31" ry="37.45"/>
<text text-anchor="middle" x="257" y="-209.73" font-family="Times,serif" font-size="14.00">ab_mouse</text>
<text text-anchor="middle" x="257" y="-194.73" font-family="Times,serif" font-size="14.00">~</text>
<text text-anchor="middle" x="257" y="-179.73" font-family="Times,serif" font-size="14.00">MvNormal</text>
</g>
<!-- packed_chol&#45;&gt;ab_mouse -->
<g id="edge6" class="edge">
<title>packed_chol&#45;&gt;ab_mouse</title>
<path fill="none" stroke="black" d="M151.24,-286.92C170.93,-270.63 194.81,-250.88 214.89,-234.27"/>
<polygon fill="black" stroke="black" points="217.19,-236.9 222.67,-227.83 212.73,-231.51 217.19,-236.9"/>
</g>
<!-- sigma_ab&#45;&gt;Rho -->
<g id="edge2" class="edge">
<title>sigma_ab&#45;&gt;Rho</title>
<path fill="none" stroke="black" d="M69.94,-171.7C75.23,-154.54 82.25,-131.76 88.07,-112.9"/>
<polygon fill="black" stroke="black" points="91.47,-113.75 91.08,-103.17 84.78,-111.69 91.47,-113.75"/>
</g>
<!-- b -->
<g id="node3" class="node">
<title>b</title>
<ellipse fill="none" stroke="black" cx="257" cy="-320.38" rx="41.94" ry="37.45"/>
<text text-anchor="middle" x="257" y="-331.68" font-family="Times,serif" font-size="14.00">b</text>
<text text-anchor="middle" x="257" y="-316.68" font-family="Times,serif" font-size="14.00">~</text>
<text text-anchor="middle" x="257" y="-301.68" font-family="Times,serif" font-size="14.00">Normal</text>
</g>
<!-- b&#45;&gt;ab_mouse -->
<g id="edge4" class="edge">
<title>b&#45;&gt;ab_mouse</title>
<path fill="none" stroke="black" d="M257,-282.74C257,-271.34 257,-258.6 257,-246.58"/>
<polygon fill="black" stroke="black" points="260.5,-246.26 257,-236.26 253.5,-246.26 260.5,-246.26"/>
</g>
<!-- sigma -->
<g id="node5" class="node">
<title>sigma</title>
<ellipse fill="none" stroke="black" cx="388" cy="-198.43" rx="57.97" ry="37.45"/>
<text text-anchor="middle" x="388" y="-209.73" font-family="Times,serif" font-size="14.00">sigma</text>
<text text-anchor="middle" x="388" y="-194.73" font-family="Times,serif" font-size="14.00">~</text>
<text text-anchor="middle" x="388" y="-179.73" font-family="Times,serif" font-size="14.00">Exponential</text>
</g>
<!-- y -->
<g id="node8" class="node">
<title>y</title>
<ellipse fill="lightgrey" stroke="black" cx="263" cy="-76.48" rx="41.94" ry="37.45"/>
<text text-anchor="middle" x="263" y="-87.78" font-family="Times,serif" font-size="14.00">y</text>
<text text-anchor="middle" x="263" y="-72.78" font-family="Times,serif" font-size="14.00">~</text>
<text text-anchor="middle" x="263" y="-57.78" font-family="Times,serif" font-size="14.00">Normal</text>
</g>
<!-- sigma&#45;&gt;y -->
<g id="edge7" class="edge">
<title>sigma&#45;&gt;y</title>
<path fill="none" stroke="black" d="M359.01,-165.55C348.26,-154.08 335.81,-141.2 324,-129.95 316.72,-123.02 308.71,-115.83 300.95,-109.08"/>
<polygon fill="black" stroke="black" points="303.18,-106.38 293.32,-102.51 298.61,-111.69 303.18,-106.38"/>
</g>
<!-- a -->
<g id="node6" class="node">
<title>a</title>
<ellipse fill="none" stroke="black" cx="358" cy="-320.38" rx="41.94" ry="37.45"/>
<text text-anchor="middle" x="358" y="-331.68" font-family="Times,serif" font-size="14.00">a</text>
<text text-anchor="middle" x="358" y="-316.68" font-family="Times,serif" font-size="14.00">~</text>
<text text-anchor="middle" x="358" y="-301.68" font-family="Times,serif" font-size="14.00">Normal</text>
</g>
<!-- a&#45;&gt;ab_mouse -->
<g id="edge5" class="edge">
<title>a&#45;&gt;ab_mouse</title>
<path fill="none" stroke="black" d="M336.19,-288.15C327.72,-276.51 317.73,-263.35 308,-251.91 303.9,-247.08 299.46,-242.14 294.97,-237.32"/>
<polygon fill="black" stroke="black" points="297.33,-234.72 287.91,-229.87 292.25,-239.53 297.33,-234.72"/>
</g>
<!-- ab_mouse&#45;&gt;y -->
<g id="edge8" class="edge">
<title>ab_mouse&#45;&gt;y</title>
<path fill="none" stroke="black" d="M258.83,-160.79C259.4,-149.38 260.04,-136.65 260.64,-124.63"/>
<polygon fill="black" stroke="black" points="264.15,-124.47 261.16,-114.31 257.16,-124.12 264.15,-124.47"/>
</g>
</g>
</svg>
